{"glyphs":{"0":{"ha":614,"x_min":88,"x_max":526,"o":"m 447 726 q 307 869 447 869 q 167 726 167 869 l 167 201 q 307 58 167 58 q 447 201 447 58 l 447 726 m 88 726 q 142 883 88 824 q 307 942 196 942 q 472 883 418 942 q 526 726 526 824 l 526 201 q 472 45 526 104 q 307 -14 418 -14 q 142 45 196 -14 q 88 201 88 104 l 88 726 z "},"1":{"ha":375,"x_min":14,"x_max":274,"o":"m 274 928 l 274 0 l 194 0 l 194 853 l 14 722 l 14 814 l 174 928 l 274 928 z "},"2":{"ha":547,"x_min":61,"x_max":485,"o":"m 243 935 q 479 744 479 935 l 479 664 q 455 538 478 583 q 369 451 432 492 l 265 379 q 168 297 194 332 q 142 196 142 261 l 142 75 l 485 75 l 485 0 l 61 0 l 61 197 q 98 336 61 286 q 217 440 135 386 l 322 513 q 383 575 367 540 q 399 667 399 610 l 399 742 q 367 831 399 801 q 244 861 335 861 q 76 833 153 861 l 76 913 q 243 935 143 935 z "},"3":{"ha":539,"x_min":36,"x_max":451,"o":"m 211 935 q 446 740 446 935 l 446 644 q 343 465 446 508 q 451 292 451 426 l 451 189 q 392 44 451 96 q 218 -7 332 -7 q 36 18 104 -7 l 36 97 q 210 67 119 67 q 335 98 300 67 q 371 190 371 129 l 371 286 q 231 428 371 428 l 139 428 l 139 501 l 231 501 q 335 538 306 501 q 365 644 365 575 l 365 739 q 332 831 365 800 q 210 861 299 861 q 53 839 122 861 l 53 915 q 211 935 117 935 z "},"4":{"ha":550,"x_min":14,"x_max":543,"o":"m 543 249 l 543 176 l 447 176 l 447 0 l 368 0 l 368 176 l 14 176 l 14 249 l 315 928 l 447 928 l 447 249 l 543 249 m 368 249 l 368 868 l 93 249 l 368 249 z "},"5":{"ha":576,"x_min":83,"x_max":499,"o":"m 89 928 l 478 928 l 478 854 l 169 854 l 169 538 q 290 546 236 546 q 499 338 499 546 l 499 188 q 438 44 499 96 q 272 -7 376 -7 q 83 21 167 -7 l 83 101 q 260 67 176 67 q 418 189 418 67 l 418 336 q 389 437 418 404 q 285 469 360 469 q 89 453 243 469 l 89 928 z "},"6":{"ha":594,"x_min":88,"x_max":526,"o":"m 447 378 q 317 501 447 501 q 167 464 231 501 l 167 201 q 307 58 167 58 q 447 201 447 58 l 447 378 m 88 722 q 146 876 88 818 q 315 935 204 935 q 496 911 425 935 l 496 835 q 326 861 421 861 q 167 721 167 861 l 167 542 q 326 574 233 574 q 472 524 418 574 q 526 379 526 475 l 526 201 q 472 45 526 104 q 307 -14 418 -14 q 142 45 196 -14 q 88 201 88 104 l 88 722 z "},"7":{"ha":443,"x_min":7,"x_max":408,"o":"m 7 928 l 408 928 l 408 865 l 321 586 q 258 347 276 442 q 239 136 239 253 l 239 0 l 157 0 l 157 138 q 176 351 157 257 q 242 589 196 446 l 325 856 l 7 856 l 7 928 z "},"8":{"ha":628,"x_min":88,"x_max":540,"o":"m 536 732 l 536 642 q 431 463 536 507 q 540 282 540 418 l 540 196 q 483 43 540 100 q 314 -14 426 -14 q 144 43 201 -14 q 88 196 88 100 l 88 282 q 197 463 88 418 q 90 642 90 507 l 90 732 q 146 885 90 828 q 314 942 201 942 q 481 885 426 942 q 536 732 536 828 m 171 732 l 171 640 q 314 497 171 497 q 457 640 457 497 l 457 732 q 314 871 457 871 q 171 732 171 871 m 461 196 l 461 283 q 314 426 461 426 q 167 283 167 426 l 167 196 q 314 57 167 57 q 461 196 461 57 z "},"9":{"ha":594,"x_min":67,"x_max":507,"o":"m 428 726 q 288 869 428 869 q 147 726 147 869 l 147 547 q 281 417 147 417 q 428 451 372 417 l 428 726 m 67 726 q 122 883 67 824 q 288 942 176 942 q 453 883 399 942 q 507 726 507 824 l 507 201 q 447 50 507 107 q 278 -7 386 -7 q 92 19 171 -7 l 92 97 q 265 67 178 67 q 428 204 428 67 l 428 374 q 273 343 368 343 q 122 397 178 343 q 67 546 67 450 l 67 726 z "},"\r":{"ha":0,"x_min":0,"x_max":0,"o":""}," ":{"ha":264,"x_min":0,"x_max":0,"o":""},"!":{"ha":325,"x_min":110,"x_max":213,"o":"m 161 -7 q 135 -7 161 -7 q 110 49 110 -7 q 161 104 110 104 q 213 49 213 104 q 161 -7 213 -7 m 118 928 l 206 928 l 196 228 l 128 228 l 118 928 z "},"\"":{"ha":450,"x_min":111,"x_max":338,"o":"m 111 1026 l 183 1026 l 183 763 l 111 763 l 111 1026 m 265 1026 l 338 1026 l 338 763 l 265 763 l 265 1026 z "},"#":{"ha":714,"x_min":51,"x_max":685,"o":"m 685 610 l 568 610 l 521 290 l 629 290 l 629 229 l 513 229 l 479 0 l 410 0 l 443 229 l 233 229 l 200 0 l 131 0 l 164 229 l 51 229 l 51 290 l 172 290 l 219 610 l 107 610 l 107 669 l 228 669 l 261 900 l 331 900 l 297 669 l 507 669 l 540 900 l 610 900 l 576 669 l 685 669 l 685 610 m 451 290 l 499 610 l 289 610 l 242 290 l 451 290 z "},"$":{"ha":526,"x_min":40,"x_max":479,"o":"m 479 263 l 479 189 q 283 -4 479 18 l 283 -108 l 211 -108 l 211 -7 q 47 19 115 -6 l 47 97 q 228 67 126 67 q 399 192 399 67 l 399 256 q 382 332 399 304 q 319 383 365 360 l 158 472 q 40 664 40 536 l 40 746 q 87 874 40 825 q 225 932 133 922 l 225 1019 l 297 1019 l 297 935 q 446 914 389 931 l 446 836 q 272 861 381 861 q 121 746 121 861 l 121 671 q 140 592 121 622 q 204 536 160 561 l 367 446 q 479 263 479 385 z "},"%":{"ha":751,"x_min":49,"x_max":703,"o":"m 448 36 q 429 61 448 36 q 410 178 410 86 q 448 319 410 269 q 557 369 486 369 q 665 319 628 369 q 703 178 703 269 q 665 36 703 86 q 557 -14 628 -14 q 448 36 486 -14 m 556 50 q 595 50 556 50 q 633 178 633 50 q 556 306 633 306 q 479 178 479 306 q 556 50 479 50 m 86 608 q 67 633 86 608 q 49 750 49 658 q 86 892 49 842 q 194 942 124 942 q 303 892 265 942 q 340 750 340 842 q 303 608 340 658 q 194 558 265 558 q 86 608 124 558 m 194 622 q 233 622 194 622 q 272 750 272 622 q 194 878 272 878 q 117 750 117 878 q 194 622 117 622 m 525 928 l 589 928 l 228 0 l 164 0 l 525 928 z "},"&":{"ha":624,"x_min":74,"x_max":601,"o":"m 601 513 l 601 440 l 544 440 l 544 201 q 485 46 544 106 q 312 -14 425 -14 q 136 47 199 -14 q 74 201 74 107 l 74 299 q 183 476 74 433 q 75 656 75 517 l 75 731 q 138 880 75 825 q 313 935 200 935 q 503 910 425 935 l 503 831 q 328 858 425 858 q 194 824 232 858 q 156 729 156 790 l 156 656 q 288 513 156 513 l 465 513 l 465 592 l 544 592 l 544 513 l 601 513 m 465 203 l 465 440 l 290 440 q 154 297 154 440 l 154 203 q 194 97 154 136 q 311 58 235 58 q 426 97 388 58 q 465 203 465 136 z "},"'":{"ha":293,"x_min":111,"x_max":182,"o":"m 111 1026 l 182 1026 l 182 763 l 111 763 l 111 1026 z "},"(":{"ha":378,"x_min":96,"x_max":294,"o":"m 201 762 q 185 679 201 762 q 168 449 168 596 q 201 135 168 301 q 294 -172 235 -32 l 224 -172 q 129 127 163 -43 q 96 449 96 297 q 129 770 96 601 q 224 1069 163 939 l 294 1069 q 201 762 235 928 z "},")":{"ha":378,"x_min":82,"x_max":281,"o":"m 247 771 q 264 686 247 771 q 281 449 281 601 q 247 126 281 296 q 154 -172 214 -44 l 82 -172 q 176 134 143 -32 q 210 449 210 300 q 176 763 210 597 q 82 1069 143 928 l 154 1069 q 247 771 214 940 z "},"*":{"ha":674,"x_min":93,"x_max":588,"o":"m 306 935 l 306 1078 l 372 1078 l 372 935 q 360 857 372 888 q 429 893 381 878 l 565 939 l 588 875 l 451 831 q 374 818 404 815 q 428 764 401 801 l 514 647 l 460 608 l 375 724 q 339 793 347 760 q 304 725 332 763 l 221 608 l 167 647 l 250 763 q 306 818 276 800 q 229 829 271 815 l 93 874 l 113 938 l 249 894 q 318 858 293 881 q 306 935 306 886 z "},"+":{"ha":594,"x_min":56,"x_max":538,"o":"m 538 482 l 538 417 l 333 417 l 333 208 l 261 208 l 261 417 l 56 417 l 56 482 l 261 482 l 261 690 l 333 690 l 333 482 l 538 482 z "},",":{"ha":185,"x_min":7,"x_max":146,"o":"m 103 104 q 146 60 146 104 q 56 -174 146 17 l 7 -174 l 63 104 l 103 104 z "},"-":{"ha":297,"x_min":56,"x_max":249,"o":"m 56 482 l 249 482 l 249 417 l 56 417 l 56 482 z "},".":{"ha":188,"x_min":43,"x_max":144,"o":"m 94 -7 q 68 -7 94 -7 q 43 49 43 -7 q 94 104 43 104 q 144 49 144 104 q 94 -7 144 -7 z "},"/":{"ha":507,"x_min":43,"x_max":486,"o":"m 417 1071 l 486 1071 l 114 -172 l 43 -172 l 417 1071 z "},":":{"ha":268,"x_min":43,"x_max":144,"o":"m 94 -7 q 68 -7 94 -7 q 43 49 43 -7 q 94 104 43 104 q 144 49 144 104 q 94 -7 144 -7 m 94 479 q 68 479 94 479 q 43 535 43 479 q 94 590 43 590 q 144 535 144 590 q 94 479 144 479 z "},";":{"ha":263,"x_min":7,"x_max":146,"o":"m 94 479 q 68 479 94 479 q 43 535 43 479 q 94 590 43 590 q 144 535 144 590 q 94 479 144 479 m 103 104 q 146 60 146 104 q 56 -174 146 17 l 7 -174 l 63 104 l 103 104 z "},"<":{"ha":626,"x_min":61,"x_max":544,"o":"m 544 686 l 544 614 l 119 449 l 544 283 l 544 211 l 61 401 l 61 494 l 544 686 z "},"=":{"ha":593,"x_min":54,"x_max":538,"o":"m 54 360 l 538 360 l 538 294 l 54 294 l 54 360 m 54 601 l 538 601 l 538 538 l 54 538 l 54 601 z "},">":{"ha":626,"x_min":81,"x_max":564,"o":"m 81 686 l 564 494 l 564 401 l 81 211 l 81 283 l 506 449 l 81 614 l 81 686 z "},"?":{"ha":515,"x_min":50,"x_max":447,"o":"m 194 -7 q 169 -7 194 -7 q 143 49 143 -7 q 194 104 143 104 q 246 49 246 104 q 194 -7 246 -7 m 208 942 q 447 751 447 942 l 447 613 q 236 400 447 406 l 229 228 l 160 228 l 154 471 l 231 471 q 368 613 368 471 l 368 750 q 334 838 368 810 q 211 865 300 865 q 50 844 122 865 l 50 924 q 208 942 119 942 z "},"@":{"ha":1176,"x_min":104,"x_max":1083,"o":"m 711 -151 l 593 -151 q 219 -17 333 -151 q 104 377 104 118 q 221 772 104 636 q 596 907 338 907 q 969 778 854 907 q 1083 392 1083 650 q 1030 126 1083 208 q 873 43 976 43 q 731 110 769 43 q 576 63 671 63 q 390 221 390 63 l 390 238 q 432 348 390 311 q 557 411 474 385 l 706 457 l 706 533 q 681 612 706 585 q 595 639 657 639 q 425 615 533 639 l 425 683 q 601 706 514 706 q 732 660 688 706 q 776 533 776 614 l 776 221 q 800 135 776 161 q 875 110 824 110 q 1010 392 1010 110 q 915 729 1010 618 q 594 840 819 840 q 274 724 369 840 q 178 378 178 607 q 274 32 178 149 q 593 -85 369 -85 l 711 -85 l 711 -151 m 467 238 l 467 219 q 567 126 467 126 q 642 138 607 126 q 706 171 676 149 l 706 388 l 571 347 q 490 310 514 331 q 467 238 467 289 z "},"A":{"ha":596,"x_min":26,"x_max":569,"o":"m 488 0 l 428 267 l 168 267 l 108 0 l 26 0 l 240 928 l 356 928 l 569 0 l 488 0 m 185 339 l 411 339 l 297 842 l 185 339 z "},"B":{"ha":643,"x_min":101,"x_max":557,"o":"m 549 718 l 549 643 q 444 468 549 511 q 557 290 557 428 l 557 210 q 501 56 557 113 q 335 0 446 0 l 101 0 l 101 928 l 326 928 q 493 872 438 928 q 549 718 549 815 m 324 857 l 181 857 l 181 501 l 324 501 q 468 642 468 501 l 468 718 q 324 857 468 857 m 476 210 l 476 292 q 332 431 476 431 l 181 431 l 181 71 l 332 71 q 476 210 476 71 z "},"C":{"ha":543,"x_min":88,"x_max":489,"o":"m 88 743 q 328 935 88 935 q 486 913 408 935 l 486 838 q 323 861 407 861 q 203 831 239 861 q 167 742 167 801 l 167 186 q 203 97 167 126 q 324 67 239 67 q 489 90 410 67 l 489 15 q 328 -7 419 -7 q 88 185 88 -7 l 88 743 z "},"D":{"ha":640,"x_min":101,"x_max":553,"o":"m 472 718 q 329 857 472 857 l 181 857 l 181 71 l 329 71 q 472 211 472 71 l 472 718 m 101 928 l 331 928 q 497 871 440 928 q 553 719 553 814 l 553 210 q 497 57 553 114 q 332 0 442 0 l 101 0 l 101 928 z "},"E":{"ha":546,"x_min":101,"x_max":492,"o":"m 101 928 l 492 928 l 492 857 l 181 857 l 181 503 l 453 503 l 453 432 l 181 432 l 181 71 l 492 71 l 492 0 l 101 0 l 101 928 z "},"F":{"ha":507,"x_min":101,"x_max":479,"o":"m 101 928 l 479 928 l 479 857 l 181 857 l 181 488 l 467 488 l 467 417 l 181 417 l 181 0 l 101 0 l 101 928 z "},"G":{"ha":618,"x_min":88,"x_max":525,"o":"m 88 736 q 335 935 88 935 q 499 913 421 935 l 499 835 q 331 861 417 861 q 206 829 244 861 q 167 733 167 797 l 167 186 q 307 65 167 65 q 446 97 400 65 l 446 449 l 525 449 l 525 47 q 319 -7 431 -7 q 148 38 208 -7 q 88 185 88 83 l 88 736 z "},"H":{"ha":679,"x_min":101,"x_max":578,"o":"m 496 928 l 578 928 l 578 0 l 496 0 l 496 419 l 181 419 l 181 0 l 101 0 l 101 928 l 181 928 l 181 490 l 496 490 l 496 928 z "},"I":{"ha":282,"x_min":101,"x_max":181,"o":"m 101 928 l 181 928 l 181 0 l 101 0 l 101 928 z "},"J":{"ha":283,"x_min":11,"x_max":182,"o":"m 101 928 l 182 928 l 182 272 q 136 -61 182 100 l 93 -207 l 11 -207 l 53 -60 q 101 271 101 106 l 101 928 z "},"K":{"ha":589,"x_min":101,"x_max":563,"o":"m 101 928 l 181 928 l 181 0 l 101 0 l 101 928 m 465 928 l 553 928 l 353 464 l 563 0 l 474 0 l 267 461 l 465 928 z "},"L":{"ha":476,"x_min":101,"x_max":469,"o":"m 101 928 l 181 928 l 181 71 l 469 71 l 469 0 l 101 0 l 101 928 z "},"M":{"ha":840,"x_min":101,"x_max":739,"o":"m 739 928 l 739 0 l 663 0 l 663 518 l 668 794 l 467 250 l 372 250 l 169 794 q 176 519 176 664 l 176 0 l 101 0 l 101 928 l 201 928 l 419 328 l 636 928 l 739 928 z "},"N":{"ha":686,"x_min":101,"x_max":585,"o":"m 511 132 q 506 422 511 178 l 506 928 l 585 928 l 585 0 l 485 0 l 174 794 q 179 504 174 749 l 179 0 l 101 0 l 101 928 l 200 928 q 511 132 472 236 z "},"O":{"ha":626,"x_min":88,"x_max":539,"o":"m 460 725 q 313 869 460 869 q 167 725 167 869 l 167 203 q 313 58 167 58 q 460 203 460 58 l 460 725 m 88 726 q 144 883 88 824 q 314 942 201 942 q 483 883 426 942 q 539 726 539 824 l 539 201 q 483 45 539 104 q 314 -14 426 -14 q 144 45 201 -14 q 88 201 88 104 l 88 726 z "},"P":{"ha":603,"x_min":101,"x_max":536,"o":"m 456 717 q 311 857 456 857 l 181 857 l 181 399 l 311 399 q 456 539 456 399 l 456 717 m 101 928 l 314 928 q 480 871 424 928 q 536 719 536 814 l 536 536 q 480 385 536 442 q 314 328 424 328 l 181 328 l 181 0 l 101 0 l 101 928 z "},"Q":{"ha":626,"x_min":88,"x_max":601,"o":"m 314 -14 q 144 45 201 -14 q 88 201 88 104 l 88 726 q 144 883 88 824 q 314 942 201 942 q 483 883 426 942 q 539 726 539 824 l 539 201 q 453 22 539 78 l 601 -143 l 500 -143 l 379 -7 q 314 -14 347 -14 m 167 725 l 167 203 q 313 58 167 58 q 460 203 460 58 l 460 725 q 313 869 460 869 q 167 725 167 869 z "},"R":{"ha":628,"x_min":101,"x_max":563,"o":"m 338 379 l 181 379 l 181 0 l 101 0 l 101 928 l 314 928 q 480 871 424 928 q 536 719 536 814 l 536 589 q 417 396 536 440 l 563 0 l 475 0 l 338 379 m 181 453 l 311 453 q 456 589 456 453 l 456 718 q 311 857 456 857 l 181 857 l 181 453 z "},"S":{"ha":526,"x_min":40,"x_max":479,"o":"m 40 746 q 99 885 40 835 q 267 935 158 935 q 446 914 375 935 l 446 836 q 272 861 381 861 q 121 746 121 861 l 121 671 q 140 592 121 622 q 204 536 160 561 l 367 446 q 479 263 479 385 l 479 189 q 417 44 479 96 q 236 -7 354 -7 q 47 19 118 -7 l 47 97 q 228 67 126 67 q 399 192 399 67 l 399 256 q 382 332 399 304 q 319 383 365 360 l 158 472 q 40 664 40 536 l 40 746 z "},"T":{"ha":472,"x_min":14,"x_max":458,"o":"m 458 928 l 458 857 l 276 857 l 276 0 l 196 0 l 196 857 l 14 857 l 14 928 l 458 928 z "},"U":{"ha":640,"x_min":94,"x_max":546,"o":"m 465 928 l 546 928 l 546 201 q 489 45 546 104 q 319 -14 432 -14 q 151 45 207 -14 q 94 201 94 104 l 94 928 l 174 928 l 174 203 q 319 58 174 58 q 465 203 465 58 l 465 928 z "},"V":{"ha":567,"x_min":19,"x_max":547,"o":"m 464 928 l 547 928 l 340 0 l 226 0 l 19 928 l 103 928 q 283 82 207 449 q 361 457 319 247 l 464 928 z "},"W":{"ha":849,"x_min":32,"x_max":817,"o":"m 736 928 l 817 928 l 658 0 l 551 0 q 424 803 438 669 q 381 481 411 651 l 299 0 l 190 0 l 32 928 l 113 928 l 211 332 l 247 86 q 282 333 263 210 l 381 928 l 469 928 l 567 332 l 603 88 q 638 332 622 235 l 736 928 z "},"X":{"ha":526,"x_min":19,"x_max":507,"o":"m 419 928 l 507 928 l 304 464 l 507 0 l 419 0 l 264 369 l 107 0 l 19 0 l 221 464 l 19 928 l 107 928 l 264 557 l 419 928 z "},"Y":{"ha":551,"x_min":7,"x_max":544,"o":"m 315 0 l 236 0 l 236 318 l 7 928 l 89 928 q 235 536 208 614 q 278 417 263 458 q 463 928 310 517 l 544 928 l 315 318 l 315 0 z "},"Z":{"ha":521,"x_min":40,"x_max":481,"o":"m 49 928 l 481 928 l 481 857 l 125 71 l 472 71 l 472 0 l 40 0 l 40 71 l 394 857 l 49 857 l 49 928 z "},"[":{"ha":393,"x_min":113,"x_max":354,"o":"m 182 -110 l 354 -110 l 354 -174 l 113 -174 l 113 1072 l 354 1072 l 354 1008 l 182 1008 l 182 -110 z "},"\\":{"ha":522,"x_min":44,"x_max":489,"o":"m 44 1072 l 115 1072 l 489 -174 l 418 -174 l 44 1072 z "},"]":{"ha":393,"x_min":38,"x_max":281,"o":"m 38 1072 l 281 1072 l 281 -174 l 38 -174 l 38 -110 l 210 -110 l 210 1008 l 38 1008 l 38 1072 z "},"^":{"ha":413,"x_min":6,"x_max":400,"o":"m 400 522 l 325 522 l 203 865 l 81 522 l 6 522 l 147 904 l 260 904 l 400 522 z "},"_":{"ha":642,"x_min":1,"x_max":640,"o":"m 1 -19 l 640 -19 l 640 -83 l 1 -83 l 1 -19 z "},"`":{"ha":486,"x_min":176,"x_max":310,"o":"m 176 994 l 258 994 l 310 847 l 254 847 l 176 994 z "},"a":{"ha":588,"x_min":47,"x_max":493,"o":"m 125 224 l 125 181 q 153 92 125 121 q 250 63 182 63 q 415 124 346 63 l 415 397 l 242 349 q 150 301 175 329 q 125 224 125 272 m 263 792 q 493 599 493 792 l 493 0 l 415 0 l 415 56 q 372 25 392 36 q 240 -6 325 -6 q 47 182 47 -6 l 47 226 q 214 414 47 367 l 415 471 l 415 599 q 383 688 415 660 q 258 717 350 717 q 83 689 167 717 l 83 767 q 263 792 161 792 z "},"b":{"ha":618,"x_min":101,"x_max":531,"o":"m 450 600 q 338 714 450 714 q 181 676 276 714 l 181 72 l 307 72 q 450 208 450 72 l 450 600 m 101 994 l 179 994 l 179 753 q 350 789 269 789 q 481 740 431 789 q 531 604 531 692 l 531 206 q 474 53 531 107 q 325 0 418 0 l 101 0 l 101 994 z "},"c":{"ha":514,"x_min":88,"x_max":460,"o":"m 88 600 q 314 792 88 792 q 457 774 394 792 l 457 700 q 313 718 396 718 q 198 689 229 718 q 167 599 167 660 l 167 185 q 198 95 167 124 q 315 67 229 67 q 460 88 400 67 l 460 13 q 314 -7 388 -7 q 88 183 88 -7 l 88 600 z "},"d":{"ha":617,"x_min":88,"x_max":517,"o":"m 436 711 l 311 711 q 167 583 167 711 l 167 197 q 292 68 167 68 q 436 121 383 68 l 436 711 m 436 994 l 517 994 l 517 0 l 438 0 l 438 44 q 283 -4 378 -4 q 138 47 188 -4 q 88 196 88 99 l 88 583 q 144 732 88 679 q 294 785 201 785 l 436 785 l 436 994 z "},"e":{"ha":607,"x_min":88,"x_max":526,"o":"m 88 196 l 88 585 q 142 740 88 681 q 308 799 197 799 q 472 740 418 799 q 526 585 526 681 l 526 349 l 167 349 l 167 197 q 209 99 167 132 q 335 67 251 67 q 503 92 419 67 l 503 14 q 344 -7 431 -7 q 88 196 88 -7 m 167 418 l 449 418 l 449 583 q 308 728 449 728 q 167 583 167 728 l 167 418 z "},"f":{"ha":374,"x_min":51,"x_max":374,"o":"m 131 839 q 177 974 131 926 q 314 1021 224 1021 q 374 1015 351 1021 l 374 944 q 317 950 351 950 q 211 840 211 950 l 211 785 l 364 785 l 364 715 l 211 715 l 211 0 l 131 0 l 131 715 l 51 715 l 51 785 l 131 785 l 131 839 z "},"g":{"ha":618,"x_min":60,"x_max":585,"o":"m 585 758 l 539 758 q 471 735 497 758 q 517 599 517 685 l 517 489 q 460 342 517 394 q 292 289 404 289 q 206 208 206 289 q 228 156 206 172 q 303 139 250 139 l 385 139 q 572 -19 572 139 l 572 -36 q 326 -207 572 -207 l 271 -207 q 60 -167 135 -207 l 60 -87 q 269 -136 144 -136 l 324 -136 q 493 -36 493 -136 l 493 -22 q 472 47 493 24 q 383 69 450 69 l 300 69 q 176 100 219 69 q 133 188 133 131 l 133 210 q 201 300 133 279 q 65 489 65 336 l 65 599 q 122 746 65 693 q 283 799 178 799 q 443 760 388 799 q 564 839 468 839 l 585 839 l 585 758 m 438 489 l 438 599 q 403 696 438 664 q 291 728 368 728 q 180 696 214 728 q 146 599 146 664 l 146 489 q 180 392 146 424 q 291 360 214 360 q 403 392 368 360 q 438 489 438 424 z "},"h":{"ha":624,"x_min":101,"x_max":529,"o":"m 101 994 l 179 994 l 179 750 q 346 788 263 788 q 479 740 429 788 q 529 604 529 692 l 529 0 l 450 0 l 450 600 q 338 714 450 714 q 181 675 264 714 l 181 0 l 101 0 l 101 994 z "},"i":{"ha":282,"x_min":90,"x_max":192,"o":"m 141 885 q 116 885 141 885 q 90 941 90 885 q 141 997 90 997 q 192 941 192 997 q 141 885 192 885 m 101 783 l 181 783 l 181 0 l 101 0 l 101 783 z "},"j":{"ha":282,"x_min":-35,"x_max":192,"o":"m 141 885 q 116 885 141 885 q 90 941 90 885 q 141 997 90 997 q 192 941 192 997 q 141 885 192 885 m 101 783 l 181 783 l 181 -22 q 135 -160 181 -112 q 3 -208 90 -208 q -35 -206 -10 -208 l -35 -133 q 1 -136 -12 -136 q 78 -110 54 -136 q 101 -22 101 -83 l 101 783 z "},"k":{"ha":551,"x_min":101,"x_max":525,"o":"m 101 994 l 181 994 l 181 0 l 101 0 l 101 994 m 426 785 l 514 785 l 331 407 l 525 0 l 436 0 l 242 404 l 426 785 z "},"l":{"ha":282,"x_min":101,"x_max":181,"o":"m 101 994 l 181 994 l 181 0 l 101 0 l 101 994 z "},"m":{"ha":972,"x_min":101,"x_max":878,"o":"m 489 729 q 682 788 588 788 q 827 740 776 788 q 878 604 878 692 l 878 0 l 799 0 l 799 600 q 685 714 799 714 q 521 663 603 714 q 529 600 529 640 l 529 0 l 450 0 l 450 600 q 336 714 450 714 q 181 674 265 714 l 181 0 l 101 0 l 101 785 l 179 785 l 179 749 q 342 788 272 788 q 489 729 438 788 z "},"n":{"ha":624,"x_min":101,"x_max":529,"o":"m 179 749 q 350 788 272 788 q 478 740 428 788 q 529 604 529 692 l 529 0 l 450 0 l 450 600 q 336 714 450 714 q 181 674 265 714 l 181 0 l 101 0 l 101 785 l 179 785 l 179 749 z "},"o":{"ha":613,"x_min":88,"x_max":525,"o":"m 446 585 q 306 728 446 728 q 167 585 167 728 l 167 200 q 306 57 167 57 q 446 200 446 57 l 446 585 m 88 585 q 142 740 88 681 q 306 799 196 799 q 471 740 417 799 q 525 585 525 682 l 525 200 q 471 44 525 103 q 306 -14 417 -14 q 142 45 196 -14 q 88 200 88 104 l 88 585 z "},"p":{"ha":618,"x_min":101,"x_max":531,"o":"m 450 600 q 336 714 450 714 q 181 674 265 714 l 181 72 l 308 72 q 450 211 450 72 l 450 600 m 179 747 q 351 788 272 788 q 480 740 429 788 q 531 604 531 692 l 531 208 q 475 56 531 111 q 326 0 419 0 l 181 0 l 181 -207 l 101 -207 l 101 785 l 179 785 l 179 747 z "},"q":{"ha":617,"x_min":88,"x_max":517,"o":"m 436 711 l 315 711 q 167 575 167 711 l 167 199 q 292 68 167 68 q 436 121 383 68 l 436 711 m 299 785 l 517 785 l 517 -207 l 438 -207 l 438 42 q 285 -4 378 -4 q 88 199 88 -4 l 88 576 q 145 729 88 674 q 299 785 203 785 z "},"r":{"ha":383,"x_min":101,"x_max":376,"o":"m 376 789 l 376 711 l 328 711 q 307 710 317 711 q 290 708 297 708 q 273 702 283 707 q 258 695 263 697 q 240 685 253 693 q 203 659 219 671 q 181 643 188 647 l 181 0 l 101 0 l 101 785 l 179 785 l 179 724 q 270 779 240 769 q 340 789 300 789 l 376 789 z "},"s":{"ha":496,"x_min":40,"x_max":454,"o":"m 40 604 q 94 745 40 699 q 269 792 147 792 q 421 768 347 792 l 421 693 q 263 718 346 718 q 151 692 181 718 q 121 603 121 665 l 121 564 q 140 488 121 514 q 207 442 158 463 l 326 386 q 422 318 390 357 q 454 218 454 279 l 454 182 q 211 -7 454 -7 q 47 17 121 -7 l 47 92 q 211 67 122 67 q 338 95 300 67 q 375 182 375 124 l 375 213 q 356 277 375 254 q 283 324 338 300 l 160 381 q 40 556 40 432 l 40 604 z "},"t":{"ha":397,"x_min":7,"x_max":376,"o":"m 176 929 l 176 785 l 361 785 l 361 714 l 176 714 l 176 167 q 202 90 176 113 q 283 67 228 67 q 376 82 339 67 l 376 8 q 261 -4 335 -4 q 142 39 188 -4 q 96 164 96 82 l 96 714 l 7 714 l 7 785 l 99 785 l 121 929 l 176 929 z "},"u":{"ha":624,"x_min":94,"x_max":524,"o":"m 443 785 l 524 785 l 524 0 l 446 0 l 446 38 q 293 -4 363 -4 q 144 47 194 -4 q 94 196 94 99 l 94 785 l 175 785 l 175 200 q 299 67 175 67 q 429 104 367 67 q 443 114 436 108 l 443 785 z "},"v":{"ha":524,"x_min":26,"x_max":497,"o":"m 415 785 l 497 785 l 322 0 l 201 0 l 26 785 l 108 785 l 190 406 l 263 54 q 415 785 406 739 z "},"w":{"ha":825,"x_min":26,"x_max":799,"o":"m 413 679 q 397 571 413 678 q 292 0 385 496 l 172 0 l 26 785 l 108 785 l 232 72 l 365 785 l 460 785 l 592 72 l 717 785 l 799 785 l 653 0 l 533 0 q 413 679 413 640 z "},"x":{"ha":492,"x_min":14,"x_max":479,"o":"m 396 785 l 479 785 l 286 392 l 479 0 l 396 0 l 246 311 l 96 0 l 14 0 l 204 392 l 14 785 l 96 785 l 246 474 l 396 785 z "},"y":{"ha":525,"x_min":26,"x_max":499,"o":"m 415 785 l 499 785 l 278 -207 l 201 -207 l 244 0 l 201 0 l 26 785 l 110 785 l 199 369 l 261 54 q 415 785 301 260 z "},"z":{"ha":435,"x_min":28,"x_max":407,"o":"m 36 785 l 407 785 l 407 718 l 106 71 l 406 71 l 406 0 l 28 0 l 28 68 l 324 714 l 36 714 l 36 785 z "},"{":{"ha":474,"x_min":83,"x_max":401,"o":"m 265 904 l 265 614 q 240 497 265 536 q 147 449 214 457 q 240 402 214 442 q 265 285 265 363 l 265 -7 q 388 -106 265 -106 l 401 -106 l 401 -174 l 386 -174 q 244 -129 294 -174 q 193 -6 193 -85 l 193 314 q 165 388 193 361 q 86 415 138 415 l 83 415 l 83 482 l 86 482 q 165 510 138 482 q 193 583 193 538 l 193 903 q 244 1026 193 982 q 386 1071 294 1071 l 401 1071 l 401 1003 l 388 1003 q 265 904 265 1003 z "},"|":{"ha":285,"x_min":110,"x_max":175,"o":"m 110 1099 l 175 1099 l 175 -200 l 110 -200 l 110 1099 z "},"}":{"ha":474,"x_min":71,"x_max":390,"o":"m 388 482 l 390 482 l 390 415 l 388 415 q 307 388 335 415 q 279 314 279 361 l 279 -6 q 229 -129 279 -85 q 88 -174 179 -174 l 71 -174 l 71 -106 l 85 -106 q 208 -7 208 -106 l 208 285 q 233 402 208 363 q 326 449 258 442 q 233 497 258 457 q 208 614 208 536 l 208 904 q 85 1003 208 1003 l 71 1003 l 71 1071 l 88 1071 q 229 1026 179 1071 q 279 903 279 982 l 279 583 q 307 510 279 538 q 388 482 335 482 z "},"~":{"ha":547,"x_min":32,"x_max":515,"o":"m 515 504 q 453 399 515 426 q 324 407 392 372 l 214 458 q 124 471 160 486 q 97 399 88 456 l 35 399 q 32 432 32 414 q 94 535 32 508 q 224 528 156 563 l 333 476 q 425 463 390 447 q 450 538 460 479 l 511 538 q 515 504 515 521 z "}," ":{"ha":264,"x_min":0,"x_max":0,"o":""},"¡":{"ha":325,"x_min":110,"x_max":213,"o":"m 206 -143 l 118 -143 l 128 557 l 196 557 l 206 -143 m 161 681 q 135 681 161 681 q 110 736 110 681 q 161 792 110 792 q 213 736 213 792 q 161 681 213 681 z "},"¢":{"ha":560,"x_min":100,"x_max":472,"o":"m 361 -110 l 289 -110 l 289 -6 q 100 183 100 8 l 100 600 q 288 790 100 775 l 288 907 l 360 907 l 360 790 q 469 774 422 789 l 469 700 q 325 718 408 718 q 210 689 242 718 q 179 599 179 660 l 179 185 q 210 95 179 124 q 327 67 242 67 q 472 88 413 67 l 472 13 q 361 -6 422 -1 l 361 -110 z "},"£":{"ha":624,"x_min":61,"x_max":575,"o":"m 575 75 l 575 0 l 61 0 l 61 75 l 67 75 q 76 76 71 75 q 90 79 82 78 q 107 85 99 81 q 124 95 115 89 q 140 112 133 101 q 153 136 147 122 q 167 208 167 164 l 167 446 l 82 446 l 82 514 l 167 514 l 167 722 q 393 929 167 929 q 567 901 481 929 l 567 822 q 392 854 476 854 q 277 820 308 854 q 246 721 246 786 l 246 514 l 492 514 l 492 446 l 246 446 l 246 214 q 182 75 246 103 l 575 75 z "},"¤":{"ha":639,"x_min":68,"x_max":571,"o":"m 528 515 l 528 413 q 510 310 528 351 l 571 251 l 518 197 l 464 249 q 319 211 411 211 q 176 250 226 211 l 122 197 l 68 251 l 129 311 q 113 413 113 354 l 113 515 q 129 617 113 572 l 68 676 l 122 731 l 176 678 q 319 717 226 717 q 464 679 411 717 l 518 731 l 571 676 l 510 618 q 528 515 528 576 m 190 514 l 190 414 q 217 313 190 344 q 319 281 244 281 q 422 313 394 281 q 449 414 449 344 l 449 514 q 422 615 449 583 q 319 647 394 647 q 217 615 244 647 q 190 514 190 583 z "},"¥":{"ha":636,"x_min":56,"x_max":604,"o":"m 603 567 l 603 503 l 447 503 l 388 354 l 603 354 l 603 292 l 368 292 l 368 0 l 293 0 l 293 292 l 56 292 l 56 354 l 272 354 l 213 503 l 56 503 l 56 567 l 188 567 l 56 900 l 133 900 l 332 388 l 526 900 l 604 900 l 472 567 l 603 567 z "},"¦":{"ha":285,"x_min":110,"x_max":175,"o":"m 110 322 l 175 322 l 175 -200 l 110 -200 l 110 322 m 110 1099 l 175 1099 l 175 576 l 110 576 l 110 1099 z "},"§":{"ha":497,"x_min":42,"x_max":467,"o":"m 132 361 l 132 344 q 151 270 132 294 q 219 224 169 246 l 339 168 q 435 99 403 138 q 467 0 467 60 l 467 -19 q 224 -207 467 -207 q 60 -186 125 -207 l 60 -111 q 220 -133 126 -133 q 350 -106 314 -133 q 386 -22 386 -78 q 368 57 386 33 q 296 106 350 81 l 172 161 q 53 336 53 213 l 53 361 l 132 361 m 42 740 q 95 883 42 836 q 252 929 149 929 q 422 908 356 929 l 422 832 q 270 856 358 856 q 151 827 182 856 q 121 737 121 799 q 139 651 121 675 q 208 606 157 628 l 328 550 q 423 482 390 521 q 456 383 456 443 l 456 358 l 376 358 l 376 376 q 358 441 376 418 q 285 489 339 464 l 161 544 q 42 719 42 596 l 42 740 z "},"¨":{"ha":486,"x_min":104,"x_max":381,"o":"m 381 919 q 381 895 381 919 q 332 871 381 871 q 283 919 283 871 q 332 967 283 967 q 381 919 381 967 m 201 919 q 201 895 201 919 q 153 871 201 871 q 104 919 104 871 q 153 967 104 967 q 201 919 201 967 z "},"©":{"ha":949,"x_min":68,"x_max":881,"o":"m 810 440 q 803 574 810 522 q 776 678 797 626 q 719 762 756 731 q 623 812 683 793 q 476 831 563 831 q 328 811 390 831 q 231 760 267 792 q 174 678 194 729 q 139 474 139 592 q 151 292 139 356 q 199 175 164 229 q 476 67 268 67 q 750 178 681 67 q 810 440 810 275 m 314 522 q 356 653 314 608 q 494 697 397 697 q 597 688 549 697 l 597 618 q 507 632 556 632 q 435 624 458 632 q 400 600 411 617 q 385 522 385 572 l 385 375 q 397 301 385 322 q 485 265 421 265 q 599 279 550 265 l 599 208 q 494 199 531 199 q 356 244 397 199 q 314 374 314 289 l 314 522 m 68 447 q 86 628 68 551 q 148 769 104 706 q 274 865 192 832 q 476 897 356 897 q 679 865 597 897 q 804 770 761 833 q 864 631 847 707 q 881 450 881 554 q 861 269 881 346 q 797 129 842 192 q 478 0 706 0 q 159 117 250 0 q 68 447 68 233 z "},"ª":{"ha":471,"x_min":47,"x_max":407,"o":"m 108 603 l 108 553 q 131 476 108 500 q 206 453 154 453 q 346 507 307 453 l 346 715 l 214 694 q 108 603 108 676 m 236 1035 q 407 892 407 1035 l 407 401 l 346 401 l 346 450 q 215 400 306 400 q 85 438 124 400 q 47 553 47 476 l 47 604 q 88 701 47 668 q 203 750 128 735 l 346 774 l 346 897 q 319 957 343 938 q 223 976 294 976 q 71 949 151 976 l 71 1008 q 236 1035 150 1035 z "},"«":{"ha":604,"x_min":85,"x_max":572,"o":"m 253 701 l 336 701 l 167 447 l 336 193 l 253 193 l 85 447 l 253 701 m 488 701 l 572 701 l 403 447 l 572 193 l 488 193 l 319 447 l 488 701 z "},"¬":{"ha":614,"x_min":101,"x_max":514,"o":"m 101 490 l 514 490 l 514 283 l 432 283 l 432 419 l 101 419 l 101 490 z "},"­":{"ha":297,"x_min":56,"x_max":249,"o":"m 56 482 l 249 482 l 249 417 l 56 417 l 56 482 z "},"®":{"ha":688,"x_min":92,"x_max":629,"o":"m 92 718 q 92 793 92 718 q 151 937 92 868 q 361 1006 210 1006 q 571 938 513 1006 q 629 719 629 869 q 571 501 629 568 q 360 433 513 433 q 149 501 207 433 q 92 718 92 568 m 150 719 q 150 651 150 719 q 189 534 150 583 q 359 485 228 485 q 531 534 490 485 q 571 719 571 583 q 530 905 571 854 q 359 956 489 956 q 190 906 229 956 q 150 719 150 856 m 260 897 l 357 897 q 476 790 476 897 q 428 690 476 715 l 492 544 l 431 544 l 376 678 q 356 676 369 676 l 317 676 l 317 544 l 260 544 l 260 897 m 317 724 l 351 724 q 409 738 392 724 q 426 790 426 751 q 411 838 426 828 q 360 849 396 849 l 317 849 l 317 724 z "},"¯":{"ha":486,"x_min":94,"x_max":392,"o":"m 94 950 l 392 950 l 392 892 l 94 892 l 94 950 z "},"°":{"ha":499,"x_min":75,"x_max":432,"o":"m 253 768 q 287 768 253 768 q 344 801 321 768 q 368 897 368 835 q 344 992 368 958 q 253 1025 321 1025 q 163 992 186 1025 q 139 897 139 958 q 163 801 139 835 q 253 768 186 768 m 253 707 q 164 707 253 707 q 75 899 75 707 q 253 1090 75 1090 q 432 899 432 1090 q 253 707 432 707 z "},"±":{"ha":593,"x_min":56,"x_max":538,"o":"m 333 482 l 538 482 l 538 417 l 333 417 l 333 214 l 261 214 l 261 417 l 56 417 l 56 482 l 261 482 l 261 685 l 333 685 l 333 482 m 538 133 l 538 68 l 57 68 l 56 133 l 538 133 z "},"²":{"ha":404,"x_min":39,"x_max":367,"o":"m 193 1035 q 363 892 363 1035 l 363 865 q 344 772 363 808 q 276 703 325 736 l 190 644 q 114 581 128 601 q 100 510 100 560 l 100 460 l 367 460 l 367 401 l 39 401 l 39 508 q 63 611 39 575 q 156 692 88 647 l 246 750 q 291 799 281 774 q 301 867 301 825 l 301 892 q 278 956 301 936 q 181 976 254 976 q 57 963 108 976 l 57 1022 q 193 1035 126 1035 z "},"³":{"ha":428,"x_min":46,"x_max":358,"o":"m 186 1035 q 358 899 354 1035 l 358 842 q 294 722 358 749 q 358 606 358 697 l 358 539 q 185 396 358 396 q 46 411 104 396 l 46 471 q 180 454 113 454 q 272 475 247 454 q 297 539 297 496 l 297 606 q 278 669 297 647 q 200 693 258 692 l 140 693 l 140 750 l 200 750 q 278 774 258 750 q 297 842 297 799 l 297 892 q 273 956 297 935 q 192 976 249 976 q 61 965 135 976 l 61 1025 q 186 1035 117 1035 z "},"´":{"ha":486,"x_min":176,"x_max":310,"o":"m 228 994 l 310 994 l 232 847 l 176 847 l 228 994 z "},"µ":{"ha":631,"x_min":100,"x_max":529,"o":"m 450 119 l 450 785 l 529 785 l 529 0 l 451 0 l 451 38 q 390 11 439 25 q 288 -3 342 -3 q 181 18 235 -3 l 181 -210 l 100 -210 l 100 785 l 181 785 l 181 99 q 192 90 181 97 q 301 69 228 69 q 450 119 375 69 z "},"¶":{"ha":547,"x_min":90,"x_max":443,"o":"m 313 929 l 443 929 l 443 1 l 364 1 l 364 511 l 313 511 q 147 568 203 511 q 90 720 90 625 q 147 872 90 815 q 313 929 203 929 z "},"·":{"ha":282,"x_min":93,"x_max":193,"o":"m 143 428 q 118 428 143 428 q 93 478 93 428 q 143 528 93 528 q 193 478 193 528 q 143 428 193 428 z "},"¸":{"ha":486,"x_min":147,"x_max":338,"o":"m 242 -56 q 311 -82 285 -58 q 338 -151 338 -106 q 303 -224 338 -197 q 222 -250 269 -250 q 147 -240 175 -250 l 147 -190 q 208 -201 172 -201 q 285 -148 285 -201 q 207 -94 285 -94 l 188 -94 l 208 8 l 256 8 l 242 -56 z "},"¹":{"ha":313,"x_min":35,"x_max":235,"o":"m 235 1029 l 235 401 l 174 401 l 174 969 l 35 860 l 35 933 l 158 1029 l 235 1029 z "},"º":{"ha":469,"x_min":67,"x_max":407,"o":"m 346 899 q 319 958 343 939 q 235 976 294 976 q 152 957 176 976 q 128 899 128 938 l 128 539 q 151 474 128 494 q 237 454 175 454 q 322 474 299 454 q 346 539 346 494 l 346 899 m 67 892 q 237 1035 67 1035 q 407 892 407 1035 l 407 539 q 237 396 407 396 q 67 539 67 396 l 67 892 z "},"»":{"ha":604,"x_min":31,"x_max":518,"o":"m 31 701 l 114 701 l 282 447 l 114 193 l 31 193 l 200 447 l 31 701 m 265 701 l 350 701 l 518 447 l 350 193 l 265 193 l 435 447 l 265 701 z "},"¼":{"ha":1083,"x_min":56,"x_max":1001,"o":"m 667 928 l 731 928 l 283 0 l 219 0 l 667 928 m 872 197 l 872 581 l 671 197 l 872 197 m 931 628 l 931 197 l 1001 197 l 1001 142 l 931 142 l 931 0 l 872 0 l 872 142 l 611 142 l 611 199 l 838 628 l 931 628 m 256 928 l 256 300 l 194 300 l 194 868 l 56 758 l 56 832 l 181 928 l 256 928 z "},"½":{"ha":1068,"x_min":56,"x_max":983,"o":"m 667 928 l 731 928 l 283 0 l 219 0 l 667 928 m 256 928 l 256 300 l 194 300 l 194 868 l 56 758 l 56 832 l 179 928 l 256 928 m 810 633 q 979 490 979 633 l 979 464 q 960 371 979 407 q 893 301 942 335 l 807 243 q 731 179 744 200 q 717 108 717 158 l 717 58 l 983 58 l 983 0 l 656 0 l 656 107 q 680 210 656 174 q 772 290 704 246 l 863 349 q 908 398 897 372 q 918 465 918 424 l 918 490 q 894 555 918 535 q 798 575 871 575 q 674 561 725 575 l 674 621 q 810 633 742 633 z "},"¾":{"ha":1142,"x_min":56,"x_max":1060,"o":"m 196 935 q 368 799 364 935 l 368 742 q 304 622 368 649 q 368 506 368 597 l 368 439 q 194 296 368 296 q 56 311 114 296 l 56 371 q 192 354 129 354 q 281 375 256 354 q 306 439 306 396 l 306 506 q 287 569 306 547 q 210 593 268 592 l 149 593 l 149 651 l 210 651 q 287 675 268 651 q 306 742 306 699 l 306 792 q 281 856 306 835 q 192 876 257 876 q 71 865 126 876 l 71 925 q 196 935 126 935 m 751 928 l 815 928 l 368 0 l 304 0 l 751 928 m 932 197 l 932 581 l 731 197 l 932 197 m 990 628 l 990 197 l 1060 197 l 1060 142 l 990 142 l 990 0 l 932 0 l 932 142 l 669 142 l 669 199 l 896 628 l 990 628 z "},"¿":{"ha":515,"x_min":50,"x_max":447,"o":"m 303 792 q 328 792 303 792 q 354 736 354 792 q 303 681 354 681 q 251 736 251 681 q 303 792 251 792 m 289 -157 q 50 33 50 -157 l 50 172 q 261 385 50 379 l 268 557 l 338 557 l 343 314 l 267 314 q 129 172 129 314 l 129 35 q 163 -53 129 -25 q 286 -81 197 -81 q 447 -60 375 -81 l 447 -139 q 289 -157 378 -157 z "},"À":{"ha":596,"x_min":26,"x_max":569,"o":"m 488 0 l 428 267 l 168 267 l 108 0 l 26 0 l 240 928 l 356 928 l 569 0 l 488 0 m 185 339 l 411 339 l 297 842 l 185 339 m 317 986 l 261 986 l 183 1133 l 265 1133 l 317 986 z "},"Á":{"ha":596,"x_min":26,"x_max":569,"o":"m 488 0 l 428 267 l 168 267 l 108 0 l 26 0 l 240 928 l 356 928 l 569 0 l 488 0 m 185 339 l 411 339 l 297 842 l 185 339 m 406 1133 l 328 986 l 272 986 l 324 1133 l 406 1133 z "},"Â":{"ha":596,"x_min":26,"x_max":569,"o":"m 488 0 l 428 267 l 168 267 l 108 0 l 26 0 l 240 928 l 356 928 l 569 0 l 488 0 m 185 339 l 411 339 l 297 842 l 185 339 m 300 1078 l 251 986 l 197 986 l 265 1133 l 335 1133 l 403 986 l 349 986 l 300 1078 z "},"Ã":{"ha":596,"x_min":26,"x_max":569,"o":"m 488 0 l 428 267 l 168 267 l 108 0 l 26 0 l 240 928 l 356 928 l 569 0 l 488 0 m 185 339 l 411 339 l 297 842 l 185 339 m 204 1017 l 204 1000 l 140 1000 l 140 1021 q 163 1090 140 1064 q 224 1117 185 1117 q 313 1088 264 1117 q 379 1060 363 1060 q 408 1103 408 1060 l 408 1119 l 472 1119 l 472 1099 q 386 1003 472 1003 q 305 1031 353 1003 q 235 1060 257 1060 q 204 1017 204 1060 z "},"Ä":{"ha":596,"x_min":26,"x_max":569,"o":"m 488 0 l 428 267 l 168 267 l 108 0 l 26 0 l 240 928 l 356 928 l 569 0 l 488 0 m 185 339 l 411 339 l 297 842 l 185 339 m 256 1058 q 256 1034 256 1058 q 207 1010 256 1010 q 158 1058 158 1010 q 207 1106 158 1106 q 256 1058 256 1106 m 435 1058 q 435 1034 435 1058 q 386 1010 435 1010 q 338 1058 338 1010 q 386 1106 338 1106 q 435 1058 435 1106 z "},"Å":{"ha":596,"x_min":26,"x_max":569,"o":"m 488 0 l 428 267 l 168 267 l 108 0 l 26 0 l 240 928 l 356 928 l 569 0 l 488 0 m 185 339 l 411 339 l 297 842 l 185 339 m 399 1060 q 399 1038 399 1060 q 372 988 399 1017 q 298 960 344 960 q 224 989 251 960 q 196 1060 196 1018 q 223 1131 196 1103 q 297 1158 250 1158 q 372 1131 344 1158 q 399 1060 399 1103 m 347 1060 q 297 1110 347 1110 q 247 1060 247 1110 q 260 1022 247 1036 q 297 1008 274 1008 q 334 1022 321 1008 q 347 1060 347 1036 z "},"Æ":{"ha":900,"x_min":13,"x_max":882,"o":"m 882 857 l 571 857 l 571 503 l 842 503 l 842 432 l 571 432 l 571 71 l 882 71 l 882 0 l 492 0 l 492 267 l 219 267 l 99 0 l 13 0 l 443 928 l 882 928 l 882 857 m 492 339 l 492 867 l 253 339 l 492 339 z "},"Ç":{"ha":543,"x_min":88,"x_max":489,"o":"m 319 -56 q 389 -82 363 -58 q 415 -151 415 -106 q 381 -224 415 -197 q 300 -250 347 -250 q 225 -240 253 -250 l 225 -190 q 286 -201 250 -201 q 363 -148 363 -201 q 285 -94 363 -94 l 265 -94 l 283 -6 q 88 185 88 13 l 88 743 q 328 935 88 935 q 486 913 408 935 l 486 838 q 323 861 407 861 q 203 831 239 861 q 167 742 167 801 l 167 186 q 203 97 167 126 q 324 67 239 67 q 489 90 410 67 l 489 15 q 331 -7 419 -7 l 319 -56 z "},"È":{"ha":546,"x_min":101,"x_max":492,"o":"m 192 1133 l 274 1133 l 325 986 l 269 986 l 192 1133 m 101 928 l 492 928 l 492 857 l 181 857 l 181 503 l 453 503 l 453 432 l 181 432 l 181 71 l 492 71 l 492 0 l 101 0 l 101 928 z "},"É":{"ha":546,"x_min":101,"x_max":492,"o":"m 101 928 l 492 928 l 492 857 l 181 857 l 181 503 l 453 503 l 453 432 l 181 432 l 181 71 l 492 71 l 492 0 l 101 0 l 101 928 m 324 1133 l 406 1133 l 328 986 l 272 986 l 324 1133 z "},"Ê":{"ha":546,"x_min":101,"x_max":492,"o":"m 492 857 l 181 857 l 181 503 l 453 503 l 453 432 l 181 432 l 181 71 l 492 71 l 492 0 l 101 0 l 101 928 l 492 928 l 492 857 m 289 1078 l 240 986 l 186 986 l 254 1133 l 324 1133 l 392 986 l 338 986 l 289 1078 z "},"Ë":{"ha":546,"x_min":101,"x_max":492,"o":"m 101 928 l 492 928 l 492 857 l 181 857 l 181 503 l 453 503 l 453 432 l 181 432 l 181 71 l 492 71 l 492 0 l 101 0 l 101 928 m 438 1058 q 438 1034 438 1058 q 389 1010 438 1010 q 340 1058 340 1010 q 389 1106 340 1106 q 438 1058 438 1106 m 258 1058 q 258 1034 258 1058 q 210 1010 258 1010 q 161 1058 161 1010 q 210 1106 161 1106 q 258 1058 258 1106 z "},"Ì":{"ha":546,"x_min":101,"x_max":492,"o":"m 194 1133 l 276 1133 l 328 986 l 272 986 l 194 1133 m 101 928 l 492 928 l 492 857 l 181 857 l 181 503 l 453 503 l 453 432 l 181 432 l 181 71 l 492 71 l 492 0 l 101 0 l 101 928 z "},"Í":{"ha":546,"x_min":101,"x_max":492,"o":"m 101 928 l 492 928 l 492 857 l 181 857 l 181 503 l 453 503 l 453 432 l 181 432 l 181 71 l 492 71 l 492 0 l 101 0 l 101 928 m 324 1133 l 406 1133 l 328 986 l 272 986 l 324 1133 z "},"Î":{"ha":282,"x_min":46,"x_max":251,"o":"m 183 1133 l 251 986 l 197 986 l 149 1078 l 100 986 l 46 986 l 114 1133 l 183 1133 m 101 0 l 101 928 l 181 928 l 181 0 l 101 0 z "},"Ï":{"ha":282,"x_min":1,"x_max":278,"o":"m 278 1058 q 278 1034 278 1058 q 229 1010 278 1010 q 181 1058 181 1010 q 229 1106 181 1106 q 278 1058 278 1106 m 99 1058 q 99 1034 99 1058 q 50 1010 99 1010 q 1 1058 1 1010 q 50 1106 1 1106 q 99 1058 99 1106 m 101 928 l 181 928 l 181 0 l 101 0 l 101 928 z "},"Ð":{"ha":640,"x_min":-3,"x_max":554,"o":"m 103 928 l 332 928 q 498 871 442 928 q 554 719 554 814 l 554 210 q 499 57 554 114 q 333 0 443 0 l 103 0 l 103 419 l -3 419 l -3 490 l 103 490 l 103 928 m 474 211 l 474 718 q 331 857 474 857 l 182 857 l 182 490 l 344 490 l 344 419 l 182 419 l 182 71 l 331 71 q 474 211 474 71 z "},"Ñ":{"ha":686,"x_min":101,"x_max":585,"o":"m 457 1119 l 521 1119 l 521 1099 q 435 1003 521 1003 q 353 1031 401 1003 q 283 1060 306 1060 q 253 1017 253 1060 l 253 1000 l 189 1000 l 189 1021 q 211 1090 189 1064 q 273 1117 233 1117 q 362 1088 313 1117 q 428 1060 411 1060 q 457 1103 457 1060 l 457 1119 m 511 132 q 506 422 511 178 l 506 928 l 585 928 l 585 0 l 485 0 l 174 794 q 179 504 174 749 l 179 0 l 101 0 l 101 928 l 200 928 q 511 132 472 236 z "},"Ò":{"ha":626,"x_min":88,"x_max":539,"o":"m 197 1133 l 279 1133 l 331 986 l 275 986 l 197 1133 m 460 725 q 313 869 460 869 q 167 725 167 869 l 167 203 q 313 58 167 58 q 460 203 460 58 l 460 725 m 88 726 q 144 883 88 824 q 314 942 201 942 q 483 883 426 942 q 539 726 539 824 l 539 201 q 483 45 539 104 q 314 -14 426 -14 q 144 45 201 -14 q 88 201 88 104 l 88 726 z "},"Ó":{"ha":626,"x_min":88,"x_max":539,"o":"m 460 725 q 313 869 460 869 q 167 725 167 869 l 167 203 q 313 58 167 58 q 460 203 460 58 l 460 725 m 88 726 q 144 883 88 824 q 314 942 201 942 q 483 883 426 942 q 539 726 539 824 l 539 201 q 483 45 539 104 q 314 -14 426 -14 q 144 45 201 -14 q 88 201 88 104 l 88 726 m 336 1133 l 418 1133 l 340 986 l 285 986 l 336 1133 z "},"Ô":{"ha":626,"x_min":88,"x_max":539,"o":"m 88 201 l 88 726 q 144 883 88 824 q 314 942 201 942 q 483 883 426 942 q 539 726 539 824 l 539 201 q 483 45 539 104 q 314 -14 426 -14 q 144 45 201 -14 q 88 201 88 104 m 460 203 l 460 725 q 313 869 460 869 q 167 725 167 869 l 167 203 q 313 58 167 58 q 460 203 460 58 m 313 1078 l 264 986 l 210 986 l 278 1133 l 347 1133 l 415 986 l 361 986 l 313 1078 z "},"Õ":{"ha":626,"x_min":88,"x_max":539,"o":"m 417 1119 l 481 1119 l 481 1099 q 394 1003 481 1003 q 313 1031 361 1003 q 243 1060 265 1060 q 213 1017 213 1060 l 213 1000 l 149 1000 l 149 1021 q 171 1090 149 1064 q 233 1117 193 1117 q 322 1088 272 1117 q 388 1060 371 1060 q 417 1103 417 1060 l 417 1119 m 460 725 q 313 869 460 869 q 167 725 167 869 l 167 203 q 313 58 167 58 q 460 203 460 58 l 460 725 m 88 726 q 144 883 88 824 q 314 942 201 942 q 483 883 426 942 q 539 726 539 824 l 539 201 q 483 45 539 104 q 314 -14 426 -14 q 144 45 201 -14 q 88 201 88 104 l 88 726 z "},"Ö":{"ha":626,"x_min":88,"x_max":539,"o":"m 460 725 q 313 869 460 869 q 167 725 167 869 l 167 203 q 313 58 167 58 q 460 203 460 58 l 460 725 m 88 726 q 144 883 88 824 q 314 942 201 942 q 483 883 426 942 q 539 726 539 824 l 539 201 q 483 45 539 104 q 314 -14 426 -14 q 144 45 201 -14 q 88 201 88 104 l 88 726 m 451 1058 q 451 1034 451 1058 q 403 1010 451 1010 q 354 1058 354 1010 q 403 1106 354 1106 q 451 1058 451 1106 m 272 1058 q 272 1034 272 1058 q 224 1010 272 1010 q 175 1058 175 1010 q 224 1106 175 1106 q 272 1058 272 1106 z "},"×":{"ha":492,"x_min":39,"x_max":453,"o":"m 453 610 l 292 449 l 453 288 l 407 242 l 246 403 l 85 242 l 39 288 l 200 449 l 39 610 l 85 656 l 246 494 l 407 656 l 453 610 z "},"Ø":{"ha":626,"x_min":86,"x_max":540,"o":"m 539 726 l 539 201 q 483 45 539 104 q 324 -14 426 -14 q 164 28 221 -14 l 153 0 l 86 0 l 118 78 q 88 201 88 129 l 88 726 q 144 883 88 824 q 303 942 201 942 q 463 900 406 942 l 474 928 l 540 928 l 508 850 q 539 726 539 799 m 167 725 l 167 193 l 431 825 q 314 869 393 869 q 167 725 167 869 m 460 203 l 460 735 l 196 103 q 314 58 233 58 q 460 203 460 58 z "},"Ù":{"ha":640,"x_min":94,"x_max":546,"o":"m 214 1133 l 296 1133 l 347 986 l 292 986 l 214 1133 m 465 928 l 546 928 l 546 201 q 489 45 546 104 q 319 -14 432 -14 q 151 45 207 -14 q 94 201 94 104 l 94 928 l 174 928 l 174 203 q 319 58 174 58 q 465 203 465 58 l 465 928 z "},"Ú":{"ha":640,"x_min":94,"x_max":546,"o":"m 465 928 l 546 928 l 546 201 q 489 45 546 104 q 319 -14 432 -14 q 151 45 207 -14 q 94 201 94 104 l 94 928 l 174 928 l 174 203 q 319 58 174 58 q 465 203 465 58 l 465 928 m 344 1133 l 426 1133 l 349 986 l 293 986 l 344 1133 z "},"Û":{"ha":640,"x_min":94,"x_max":546,"o":"m 465 928 l 546 928 l 546 201 q 489 45 546 104 q 319 -14 432 -14 q 151 45 207 -14 q 94 201 94 104 l 94 928 l 174 928 l 174 203 q 319 58 174 58 q 465 203 465 58 l 465 928 m 319 1078 l 271 986 l 217 986 l 285 1133 l 354 1133 l 422 986 l 368 986 l 319 1078 z "},"Ü":{"ha":640,"x_min":94,"x_max":546,"o":"m 465 928 l 546 928 l 546 201 q 489 45 546 104 q 319 -14 432 -14 q 151 45 207 -14 q 94 201 94 104 l 94 928 l 174 928 l 174 203 q 319 58 174 58 q 465 203 465 58 l 465 928 m 457 1058 q 457 1034 457 1058 q 408 1010 457 1010 q 360 1058 360 1010 q 408 1106 360 1106 q 457 1058 457 1106 m 278 1058 q 278 1034 278 1058 q 229 1010 278 1010 q 181 1058 181 1010 q 229 1106 181 1106 q 278 1058 278 1106 z "},"Ý":{"ha":551,"x_min":7,"x_max":544,"o":"m 296 1133 l 378 1133 l 300 986 l 244 986 l 296 1133 m 315 0 l 236 0 l 236 318 l 7 928 l 89 928 q 235 536 208 614 q 278 417 263 458 q 463 928 310 517 l 544 928 l 315 318 l 315 0 z "},"Þ":{"ha":590,"x_min":115,"x_max":549,"o":"m 194 756 l 326 756 q 493 699 438 756 q 549 546 549 642 l 549 382 q 493 229 549 286 q 326 172 438 172 l 194 172 l 194 0 l 115 0 l 115 928 l 194 928 l 194 756 m 469 383 l 469 544 q 325 683 469 683 l 194 683 l 194 246 l 325 246 q 469 383 469 246 z "},"ß":{"ha":738,"x_min":101,"x_max":707,"o":"m 101 769 q 351 992 101 992 q 521 938 458 992 q 583 789 583 883 q 563 699 583 740 q 519 636 543 658 q 454 529 454 575 l 454 515 q 476 456 454 482 q 570 392 497 429 q 675 317 643 354 q 707 221 707 279 l 707 186 q 647 44 707 96 q 482 -7 586 -7 q 304 17 378 -7 l 304 94 q 464 68 376 68 q 628 188 628 68 l 628 215 q 609 281 628 257 q 516 344 590 306 q 408 417 442 382 q 375 510 375 451 l 375 526 q 439 656 375 599 q 483 713 463 678 q 503 789 503 747 q 351 919 503 919 q 222 883 263 919 q 181 768 181 846 l 181 0 l 101 0 l 101 769 z "},"à":{"ha":588,"x_min":47,"x_max":493,"o":"m 181 994 l 263 994 l 314 847 l 258 847 l 181 994 m 125 224 l 125 181 q 153 92 125 121 q 250 63 182 63 q 415 124 346 63 l 415 397 l 242 349 q 150 301 175 329 q 125 224 125 272 m 263 792 q 493 599 493 792 l 493 0 l 415 0 l 415 56 q 372 25 392 36 q 240 -6 325 -6 q 47 182 47 -6 l 47 226 q 214 414 47 367 l 415 471 l 415 599 q 383 688 415 660 q 258 717 350 717 q 83 689 167 717 l 83 767 q 263 792 161 792 z "},"á":{"ha":588,"x_min":47,"x_max":493,"o":"m 310 994 l 392 994 l 314 847 l 258 847 l 310 994 m 125 224 l 125 181 q 153 92 125 121 q 250 63 182 63 q 415 124 346 63 l 415 397 l 242 349 q 150 301 175 329 q 125 224 125 272 m 263 792 q 493 599 493 792 l 493 0 l 415 0 l 415 56 q 372 25 392 36 q 240 -6 325 -6 q 47 182 47 -6 l 47 226 q 214 414 47 367 l 415 471 l 415 599 q 383 688 415 660 q 258 717 350 717 q 83 689 167 717 l 83 767 q 263 792 161 792 z "},"â":{"ha":588,"x_min":47,"x_max":493,"o":"m 263 792 q 493 599 493 792 l 493 0 l 415 0 l 415 56 q 372 25 392 36 q 240 -6 325 -6 q 47 182 47 -6 l 47 226 q 214 414 47 367 l 415 471 l 415 599 q 383 688 415 660 q 258 717 350 717 q 83 689 167 717 l 83 767 q 263 792 161 792 m 125 224 l 125 181 q 153 92 125 121 q 250 63 182 63 q 415 124 346 63 l 415 397 l 242 349 q 150 301 175 329 q 125 224 125 272 m 299 939 l 250 847 l 196 847 l 264 994 l 333 994 l 401 847 l 347 847 l 299 939 z "},"ã":{"ha":588,"x_min":47,"x_max":493,"o":"m 396 981 l 460 981 l 460 960 q 374 864 460 864 q 292 892 340 864 q 222 921 244 921 q 192 878 192 921 l 192 861 l 128 861 l 128 882 q 150 951 128 925 q 212 978 172 978 q 301 949 251 978 q 367 921 350 921 q 396 964 396 921 l 396 981 m 125 224 l 125 181 q 153 92 125 121 q 250 63 182 63 q 415 124 346 63 l 415 397 l 242 349 q 150 301 175 329 q 125 224 125 272 m 263 792 q 493 599 493 792 l 493 0 l 415 0 l 415 56 q 372 25 392 36 q 240 -6 325 -6 q 47 182 47 -6 l 47 226 q 214 414 47 367 l 415 471 l 415 599 q 383 688 415 660 q 258 717 350 717 q 83 689 167 717 l 83 767 q 263 792 161 792 z "},"ä":{"ha":588,"x_min":47,"x_max":493,"o":"m 429 919 q 429 895 429 919 q 381 871 429 871 q 332 919 332 871 q 381 967 332 967 q 429 919 429 967 m 250 919 q 250 895 250 919 q 201 871 250 871 q 153 919 153 871 q 201 967 153 967 q 250 919 250 967 m 125 224 l 125 181 q 153 92 125 121 q 250 63 182 63 q 415 124 346 63 l 415 397 l 242 349 q 150 301 175 329 q 125 224 125 272 m 263 792 q 493 599 493 792 l 493 0 l 415 0 l 415 56 q 372 25 392 36 q 240 -6 325 -6 q 47 182 47 -6 l 47 226 q 214 414 47 367 l 415 471 l 415 599 q 383 688 415 660 q 258 717 350 717 q 83 689 167 717 l 83 767 q 263 792 161 792 z "},"å":{"ha":588,"x_min":47,"x_max":493,"o":"m 340 921 q 290 971 340 971 q 240 921 240 971 q 253 883 240 897 q 290 869 267 869 q 327 883 314 869 q 340 921 340 897 m 291 821 q 268 821 291 821 q 217 850 244 821 q 189 922 189 879 q 216 992 189 964 q 290 1019 243 1019 q 365 992 338 1019 q 392 921 392 964 q 365 849 392 878 q 291 821 338 821 m 125 224 l 125 181 q 153 92 125 121 q 250 63 182 63 q 415 124 346 63 l 415 397 l 242 349 q 150 301 175 329 q 125 224 125 272 m 263 792 q 493 599 493 792 l 493 0 l 415 0 l 415 56 q 372 25 392 36 q 240 -6 325 -6 q 47 182 47 -6 l 47 226 q 214 414 47 367 l 415 471 l 415 599 q 383 688 415 660 q 258 717 350 717 q 83 689 167 717 l 83 767 q 263 792 161 792 z "},"æ":{"ha":901,"x_min":47,"x_max":858,"o":"m 781 583 q 639 728 781 728 q 494 583 494 728 l 494 418 l 781 418 l 781 583 m 125 224 l 125 181 q 154 92 125 121 q 250 63 183 63 q 415 117 354 63 l 415 397 l 242 349 q 150 301 175 329 q 125 224 125 272 m 458 718 q 635 799 519 799 q 804 740 750 799 q 858 585 858 681 l 858 349 l 494 349 l 494 197 q 678 67 494 67 q 835 92 751 67 l 835 14 q 676 -7 761 -7 q 461 64 522 -7 q 243 -6 381 -6 q 47 182 47 -6 l 47 226 q 214 414 47 367 l 415 471 l 415 600 q 383 688 415 660 q 258 717 350 717 q 83 689 167 717 l 83 767 q 263 792 161 792 q 458 718 404 792 z "},"ç":{"ha":514,"x_min":88,"x_max":460,"o":"m 314 -7 l 311 -7 l 300 -56 q 369 -82 343 -58 q 396 -151 396 -106 q 362 -224 396 -197 q 281 -250 328 -250 q 206 -240 233 -250 l 206 -190 q 267 -201 231 -201 q 343 -148 343 -201 q 265 -94 343 -94 l 246 -94 l 264 -4 q 88 183 88 14 l 88 600 q 314 792 88 792 q 457 774 394 792 l 457 700 q 313 718 396 718 q 198 689 229 718 q 167 599 167 660 l 167 185 q 198 95 167 124 q 315 67 229 67 q 460 88 400 67 l 460 13 q 314 -7 388 -7 z "},"è":{"ha":607,"x_min":88,"x_max":526,"o":"m 88 196 l 88 585 q 142 740 88 681 q 308 799 197 799 q 472 740 418 799 q 526 585 526 681 l 526 349 l 167 349 l 167 197 q 209 99 167 132 q 335 67 251 67 q 503 92 419 67 l 503 14 q 344 -7 431 -7 q 88 196 88 -7 m 167 418 l 449 418 l 449 583 q 308 728 449 728 q 167 583 167 728 l 167 418 m 346 847 l 290 847 l 213 994 l 294 994 l 346 847 z "},"é":{"ha":607,"x_min":88,"x_max":526,"o":"m 88 196 l 88 585 q 142 740 88 681 q 308 799 197 799 q 472 740 418 799 q 526 585 526 681 l 526 349 l 167 349 l 167 197 q 209 99 167 132 q 335 67 251 67 q 503 92 419 67 l 503 14 q 344 -7 431 -7 q 88 196 88 -7 m 167 418 l 449 418 l 449 583 q 308 728 449 728 q 167 583 167 728 l 167 418 m 422 994 l 344 847 l 289 847 l 340 994 l 422 994 z "},"ê":{"ha":607,"x_min":88,"x_max":526,"o":"m 88 196 l 88 585 q 142 740 88 681 q 308 799 197 799 q 472 740 418 799 q 526 585 526 681 l 526 349 l 167 349 l 167 197 q 209 99 167 132 q 335 67 251 67 q 503 92 419 67 l 503 14 q 344 -7 431 -7 q 88 196 88 -7 m 167 418 l 449 418 l 449 583 q 308 728 449 728 q 167 583 167 728 l 167 418 m 318 939 l 269 847 l 215 847 l 283 994 l 353 994 l 421 847 l 367 847 l 318 939 z "},"ë":{"ha":607,"x_min":88,"x_max":526,"o":"m 88 196 l 88 585 q 142 740 88 681 q 308 799 197 799 q 472 740 418 799 q 526 585 526 681 l 526 349 l 167 349 l 167 197 q 209 99 167 132 q 335 67 251 67 q 503 92 419 67 l 503 14 q 344 -7 431 -7 q 88 196 88 -7 m 167 418 l 449 418 l 449 583 q 308 728 449 728 q 167 583 167 728 l 167 418 m 271 919 q 271 895 271 919 q 222 871 271 871 q 174 919 174 871 q 222 967 174 967 q 271 919 271 967 m 450 919 q 450 895 450 919 q 401 871 450 871 q 353 919 353 871 q 401 967 353 967 q 450 919 450 967 z "},"ì":{"ha":282,"x_min":35,"x_max":181,"o":"m 35 994 l 117 994 l 168 847 l 113 847 l 35 994 m 101 783 l 181 783 l 181 0 l 101 0 l 101 783 z "},"í":{"ha":282,"x_min":101,"x_max":247,"o":"m 165 994 l 247 994 l 169 847 l 114 847 l 165 994 m 101 783 l 181 783 l 181 0 l 101 0 l 101 783 z "},"î":{"ha":282,"x_min":40,"x_max":246,"o":"m 178 994 l 246 847 l 192 847 l 143 939 l 94 847 l 40 847 l 108 994 l 178 994 m 101 0 l 101 783 l 181 783 l 181 0 l 101 0 z "},"ï":{"ha":282,"x_min":3,"x_max":279,"o":"m 279 919 q 279 895 279 919 q 231 871 279 871 q 182 919 182 871 q 231 967 182 967 q 279 919 279 967 m 100 919 q 100 895 100 919 q 51 871 100 871 q 3 919 3 871 q 51 967 3 967 q 100 919 100 967 m 101 783 l 181 783 l 181 0 l 101 0 l 101 783 z "},"ð":{"ha":629,"x_min":94,"x_max":532,"o":"m 532 425 l 532 200 q 478 44 532 103 q 313 -14 424 -14 q 149 45 203 -14 q 94 200 94 104 l 94 400 q 147 553 94 496 q 308 611 199 611 q 433 571 388 611 q 350 774 410 669 l 199 694 l 199 760 l 318 822 q 229 928 281 879 l 336 928 q 390 860 356 908 l 531 932 l 531 868 l 421 811 q 532 425 532 619 m 453 201 l 453 489 q 313 542 403 542 q 174 399 174 542 l 174 201 q 313 58 174 58 q 453 201 453 58 z "},"ñ":{"ha":624,"x_min":101,"x_max":529,"o":"m 421 981 l 485 981 l 485 960 q 399 864 485 864 q 317 892 365 864 q 247 921 269 921 q 217 878 217 921 l 217 861 l 153 861 l 153 882 q 175 951 153 925 q 237 978 197 978 q 326 949 276 978 q 392 921 375 921 q 421 964 421 921 l 421 981 m 179 749 q 350 788 272 788 q 478 740 428 788 q 529 604 529 692 l 529 0 l 450 0 l 450 600 q 336 714 450 714 q 181 674 265 714 l 181 0 l 101 0 l 101 785 l 179 785 l 179 749 z "},"ò":{"ha":613,"x_min":88,"x_max":525,"o":"m 204 994 l 286 994 l 338 847 l 282 847 l 204 994 m 446 585 q 306 728 446 728 q 167 585 167 728 l 167 200 q 306 57 167 57 q 446 200 446 57 l 446 585 m 88 585 q 142 740 88 681 q 306 799 196 799 q 471 740 417 799 q 525 585 525 682 l 525 200 q 471 44 525 103 q 306 -14 417 -14 q 142 45 196 -14 q 88 200 88 104 l 88 585 z "},"ó":{"ha":613,"x_min":88,"x_max":525,"o":"m 446 585 q 306 728 446 728 q 167 585 167 728 l 167 200 q 306 57 167 57 q 446 200 446 57 l 446 585 m 88 585 q 142 740 88 681 q 306 799 196 799 q 471 740 417 799 q 525 585 525 682 l 525 200 q 471 44 525 103 q 306 -14 417 -14 q 142 45 196 -14 q 88 200 88 104 l 88 585 m 336 994 l 418 994 l 340 847 l 285 847 l 336 994 z "},"ô":{"ha":613,"x_min":88,"x_max":525,"o":"m 88 200 l 88 585 q 142 740 88 681 q 306 799 196 799 q 471 740 417 799 q 525 585 525 682 l 525 200 q 471 44 525 103 q 306 -14 417 -14 q 142 45 196 -14 q 88 200 88 104 m 446 200 l 446 585 q 306 728 446 728 q 167 585 167 728 l 167 200 q 306 57 167 57 q 446 200 446 57 m 311 939 l 263 847 l 208 847 l 276 994 l 346 994 l 414 847 l 360 847 l 311 939 z "},"õ":{"ha":613,"x_min":88,"x_max":525,"o":"m 415 981 l 479 981 l 479 960 q 393 864 479 864 q 312 892 360 864 q 242 921 264 921 q 211 878 211 921 l 211 861 l 147 861 l 147 882 q 169 951 147 925 q 231 978 192 978 q 320 949 271 978 q 386 921 369 921 q 415 964 415 921 l 415 981 m 446 585 q 306 728 446 728 q 167 585 167 728 l 167 200 q 306 57 167 57 q 446 200 446 57 l 446 585 m 88 585 q 142 740 88 681 q 306 799 196 799 q 471 740 417 799 q 525 585 525 682 l 525 200 q 471 44 525 103 q 306 -14 417 -14 q 142 45 196 -14 q 88 200 88 104 l 88 585 z "},"ö":{"ha":613,"x_min":88,"x_max":525,"o":"m 446 585 q 306 728 446 728 q 167 585 167 728 l 167 200 q 306 57 167 57 q 446 200 446 57 l 446 585 m 88 585 q 142 740 88 681 q 306 799 196 799 q 471 740 417 799 q 525 585 525 682 l 525 200 q 471 44 525 103 q 306 -14 417 -14 q 142 45 196 -14 q 88 200 88 104 l 88 585 m 454 919 q 454 895 454 919 q 406 871 454 871 q 357 919 357 871 q 406 967 357 967 q 454 919 454 967 m 275 919 q 275 895 275 919 q 226 871 275 871 q 178 919 178 871 q 226 967 178 967 q 275 919 275 967 z "},"÷":{"ha":593,"x_min":56,"x_max":538,"o":"m 301 633 q 275 633 301 633 q 250 683 250 633 q 301 733 250 733 q 351 683 351 733 q 301 633 351 633 m 301 157 q 275 157 301 157 q 250 207 250 157 q 301 257 250 257 q 351 207 351 257 q 301 157 351 157 m 56 479 l 538 479 l 538 414 l 56 414 l 56 479 z "},"ø":{"ha":613,"x_min":88,"x_max":528,"o":"m 525 585 l 525 200 q 471 44 525 103 q 319 -14 417 -14 q 171 21 222 -14 l 161 0 l 97 0 l 126 63 q 88 200 88 118 l 88 585 q 142 740 88 681 q 297 799 196 799 q 451 757 397 799 l 464 785 l 528 785 l 493 711 q 525 585 525 661 m 167 585 l 167 200 q 171 157 167 175 l 417 685 q 306 728 385 728 q 167 585 167 728 m 446 200 l 446 585 q 444 607 446 600 l 203 90 q 306 57 239 57 q 446 200 446 57 z "},"ù":{"ha":624,"x_min":94,"x_max":524,"o":"m 200 994 l 282 994 l 333 847 l 278 847 l 200 994 m 443 785 l 524 785 l 524 0 l 446 0 l 446 38 q 293 -4 363 -4 q 144 47 194 -4 q 94 196 94 99 l 94 785 l 175 785 l 175 200 q 299 67 175 67 q 429 104 367 67 q 443 114 436 108 l 443 785 z "},"ú":{"ha":624,"x_min":94,"x_max":524,"o":"m 443 785 l 524 785 l 524 0 l 446 0 l 446 38 q 293 -4 363 -4 q 144 47 194 -4 q 94 196 94 99 l 94 785 l 175 785 l 175 200 q 299 67 175 67 q 429 104 367 67 q 443 114 436 108 l 443 785 m 332 994 l 414 994 l 336 847 l 281 847 l 332 994 z "},"û":{"ha":624,"x_min":94,"x_max":524,"o":"m 443 785 l 524 785 l 524 0 l 446 0 l 446 38 q 293 -4 363 -4 q 144 47 194 -4 q 94 196 94 99 l 94 785 l 175 785 l 175 200 q 299 67 175 67 q 429 104 367 67 q 443 114 436 108 l 443 785 m 311 939 l 263 847 l 208 847 l 276 994 l 346 994 l 414 847 l 360 847 l 311 939 z "},"ü":{"ha":624,"x_min":94,"x_max":524,"o":"m 443 785 l 524 785 l 524 0 l 446 0 l 446 38 q 293 -4 363 -4 q 144 47 194 -4 q 94 196 94 99 l 94 785 l 175 785 l 175 200 q 299 67 175 67 q 429 104 367 67 q 443 114 436 108 l 443 785 m 450 919 q 450 895 450 919 q 401 871 450 871 q 353 919 353 871 q 401 967 353 967 q 450 919 450 967 m 271 919 q 271 895 271 919 q 222 871 271 871 q 174 919 174 871 q 222 967 174 967 q 271 919 271 967 z "},"ý":{"ha":525,"x_min":26,"x_max":499,"o":"m 285 994 l 367 994 l 289 847 l 233 847 l 285 994 m 415 785 l 499 785 l 278 -207 l 201 -207 l 244 0 l 201 0 l 26 785 l 110 785 l 199 369 l 261 54 q 415 785 301 260 z "},"þ":{"ha":631,"x_min":101,"x_max":531,"o":"m 450 600 q 336 714 450 714 q 181 675 263 714 l 181 72 l 308 72 q 450 210 450 72 l 450 600 m 101 994 l 179 994 l 179 749 q 353 788 276 788 q 480 740 429 788 q 531 604 531 692 l 531 208 q 475 56 531 111 q 326 0 419 0 l 181 0 l 181 -246 l 101 -246 l 101 994 z "},"ÿ":{"ha":525,"x_min":26,"x_max":499,"o":"m 415 785 l 499 785 l 278 -207 l 201 -207 l 244 0 l 201 0 l 26 785 l 110 785 l 199 369 l 261 54 q 415 785 301 260 m 397 919 q 397 895 397 919 q 349 871 397 871 q 300 919 300 871 q 349 967 300 967 q 397 919 397 967 m 218 919 q 218 895 218 919 q 169 871 218 871 q 121 919 121 871 q 169 967 121 967 q 218 919 218 967 z "},"Ā":{"ha":596,"x_min":26,"x_max":569,"o":"m 488 0 l 428 267 l 168 267 l 108 0 l 26 0 l 240 928 l 356 928 l 569 0 l 488 0 m 185 339 l 411 339 l 297 842 l 185 339 m 444 1089 l 444 1031 l 147 1031 l 147 1089 l 444 1089 z "},"ā":{"ha":588,"x_min":47,"x_max":493,"o":"m 136 950 l 433 950 l 433 892 l 136 892 l 136 950 m 125 224 l 125 181 q 153 92 125 121 q 250 63 182 63 q 415 124 346 63 l 415 397 l 242 349 q 150 301 175 329 q 125 224 125 272 m 263 792 q 493 599 493 792 l 493 0 l 415 0 l 415 56 q 372 25 392 36 q 240 -6 325 -6 q 47 182 47 -6 l 47 226 q 214 414 47 367 l 415 471 l 415 599 q 383 688 415 660 q 258 717 350 717 q 83 689 167 717 l 83 767 q 263 792 161 792 z "},"Ă":{"ha":596,"x_min":26,"x_max":569,"o":"m 488 0 l 428 267 l 168 267 l 108 0 l 26 0 l 240 928 l 356 928 l 569 0 l 488 0 m 185 339 l 411 339 l 297 842 l 185 339 m 406 1028 q 386 1007 406 1028 q 297 986 367 986 q 189 1028 228 986 q 147 1133 150 1069 l 211 1133 q 235 1068 213 1092 q 297 1044 257 1044 q 360 1068 338 1044 q 383 1133 382 1092 l 447 1133 q 406 1028 444 1069 z "},"ă":{"ha":588,"x_min":47,"x_max":493,"o":"m 403 889 q 383 868 403 889 q 294 847 364 847 q 186 889 225 847 q 144 994 147 931 l 208 994 q 232 929 210 953 q 294 906 254 906 q 357 929 335 906 q 381 994 379 953 l 444 994 q 403 889 442 931 m 125 224 l 125 181 q 153 92 125 121 q 250 63 182 63 q 415 124 346 63 l 415 397 l 242 349 q 150 301 175 329 q 125 224 125 272 m 263 792 q 493 599 493 792 l 493 0 l 415 0 l 415 56 q 372 25 392 36 q 240 -6 325 -6 q 47 182 47 -6 l 47 226 q 214 414 47 367 l 415 471 l 415 599 q 383 688 415 660 q 258 717 350 717 q 83 689 167 717 l 83 767 q 263 792 161 792 z "},"Ą":{"ha":596,"x_min":26,"x_max":569,"o":"m 497 -128 q 550 -178 497 -178 l 567 -178 l 567 -239 l 549 -239 q 439 -147 439 -239 q 521 0 439 -61 l 488 0 l 428 267 l 168 267 l 108 0 l 26 0 l 240 928 l 356 928 l 569 0 l 567 0 q 497 -128 497 -54 m 185 339 l 411 339 l 297 842 l 185 339 z "},"ą":{"ha":588,"x_min":47,"x_max":493,"o":"m 263 792 q 493 599 493 792 l 493 0 l 492 0 q 422 -128 422 -54 q 475 -178 422 -178 l 492 -178 l 492 -239 l 474 -239 q 364 -147 364 -239 q 446 0 364 -61 l 415 0 l 415 56 q 372 25 392 36 q 240 -6 325 -6 q 47 182 47 -6 l 47 226 q 214 414 47 367 l 415 471 l 415 599 q 383 688 415 660 q 258 717 350 717 q 83 689 167 717 l 83 767 q 263 792 161 792 m 125 224 l 125 181 q 153 92 125 121 q 250 63 182 63 q 415 124 346 63 l 415 397 l 242 349 q 150 301 175 329 q 125 224 125 272 z "},"Ć":{"ha":543,"x_min":88,"x_max":489,"o":"m 88 743 q 328 935 88 935 q 486 913 408 935 l 486 838 q 323 861 407 861 q 203 831 239 861 q 167 742 167 801 l 167 186 q 203 97 167 126 q 324 67 239 67 q 489 90 410 67 l 489 15 q 328 -7 419 -7 q 88 185 88 -7 l 88 743 m 332 1133 l 414 1133 l 336 986 l 281 986 l 332 1133 z "},"ć":{"ha":514,"x_min":88,"x_max":460,"o":"m 88 600 q 314 792 88 792 q 457 774 394 792 l 457 700 q 313 718 396 718 q 198 689 229 718 q 167 599 167 660 l 167 185 q 198 95 167 124 q 315 67 229 67 q 460 88 400 67 l 460 13 q 314 -7 388 -7 q 88 183 88 -7 l 88 600 m 336 994 l 418 994 l 340 847 l 285 847 l 336 994 z "},"Č":{"ha":543,"x_min":88,"x_max":489,"o":"m 167 742 l 167 186 q 203 97 167 126 q 324 67 239 67 q 489 90 410 67 l 489 15 q 328 -7 419 -7 q 88 185 88 -7 l 88 743 q 328 935 88 935 q 486 913 408 935 l 486 838 q 323 861 407 861 q 203 831 239 861 q 167 742 167 801 m 276 986 l 208 1133 l 263 1133 l 311 1042 l 360 1133 l 414 1133 l 346 986 l 276 986 z "},"č":{"ha":514,"x_min":88,"x_max":460,"o":"m 167 599 l 167 185 q 198 95 167 124 q 315 67 229 67 q 460 88 400 67 l 460 13 q 314 -7 388 -7 q 88 183 88 -7 l 88 600 q 314 792 88 792 q 457 774 394 792 l 457 700 q 313 718 396 718 q 198 689 229 718 q 167 599 167 660 m 269 847 l 201 994 l 256 994 l 304 903 l 353 994 l 407 994 l 339 847 l 269 847 z "},"Ď":{"ha":640,"x_min":101,"x_max":553,"o":"m 101 928 l 331 928 q 497 871 440 928 q 553 719 553 814 l 553 210 q 497 57 553 114 q 332 0 442 0 l 101 0 l 101 928 m 472 211 l 472 718 q 329 857 472 857 l 181 857 l 181 71 l 329 71 q 472 211 472 71 m 276 986 l 208 1133 l 263 1133 l 311 1042 l 360 1133 l 414 1133 l 346 986 l 276 986 z "},"ď":{"ha":621,"x_min":88,"x_max":681,"o":"m 644 992 q 681 959 681 992 q 618 831 681 926 l 572 831 l 610 992 l 644 992 m 436 711 l 311 711 q 167 583 167 711 l 167 197 q 292 68 167 68 q 436 121 383 68 l 436 711 m 436 994 l 517 994 l 517 0 l 438 0 l 438 44 q 283 -4 378 -4 q 138 47 188 -4 q 88 196 88 99 l 88 583 q 144 732 88 679 q 294 785 201 785 l 436 785 l 436 994 z "},"Đ":{"ha":640,"x_min":18,"x_max":554,"o":"m 103 928 l 332 928 q 498 871 442 928 q 554 719 554 814 l 554 210 q 499 57 554 114 q 333 0 443 0 l 103 0 l 103 429 l 18 429 l 18 500 l 103 500 l 103 928 m 474 211 l 474 718 q 331 857 474 857 l 182 857 l 182 500 l 333 500 l 333 429 l 182 429 l 182 71 l 331 71 q 474 211 474 71 z "},"đ":{"ha":618,"x_min":88,"x_max":572,"o":"m 572 929 l 572 869 l 517 869 l 517 0 l 438 0 l 438 44 q 283 -4 378 -4 q 138 47 188 -4 q 88 196 88 99 l 88 583 q 144 732 88 679 q 294 785 201 785 l 436 785 l 436 869 l 265 869 l 265 929 l 436 929 l 436 994 l 517 994 l 517 929 l 572 929 m 436 711 l 311 711 q 167 583 167 711 l 167 197 q 292 68 167 68 q 436 121 383 68 l 436 711 z "},"Ē":{"ha":546,"x_min":101,"x_max":492,"o":"m 150 1089 l 447 1089 l 447 1031 l 150 1031 l 150 1089 m 101 928 l 492 928 l 492 857 l 181 857 l 181 503 l 453 503 l 453 432 l 181 432 l 181 71 l 492 71 l 492 0 l 101 0 l 101 928 z "},"ē":{"ha":607,"x_min":88,"x_max":526,"o":"m 88 196 l 88 585 q 142 740 88 681 q 308 799 197 799 q 472 740 418 799 q 526 585 526 681 l 526 349 l 167 349 l 167 197 q 209 99 167 132 q 335 67 251 67 q 503 92 419 67 l 503 14 q 344 -7 431 -7 q 88 196 88 -7 m 167 418 l 449 418 l 449 583 q 308 728 449 728 q 167 583 167 728 l 167 418 m 457 950 l 457 892 l 160 892 l 160 950 l 457 950 z "},"Ė":{"ha":546,"x_min":101,"x_max":492,"o":"m 304 1046 q 280 1046 304 1046 q 256 1094 256 1046 q 304 1143 256 1143 q 353 1094 353 1143 q 304 1046 353 1046 m 101 928 l 492 928 l 492 857 l 181 857 l 181 503 l 453 503 l 453 432 l 181 432 l 181 71 l 492 71 l 492 0 l 101 0 l 101 928 z "},"ė":{"ha":607,"x_min":88,"x_max":526,"o":"m 88 196 l 88 585 q 142 740 88 681 q 308 799 197 799 q 472 740 418 799 q 526 585 526 681 l 526 349 l 167 349 l 167 197 q 209 99 167 132 q 335 67 251 67 q 503 92 419 67 l 503 14 q 344 -7 431 -7 q 88 196 88 -7 m 167 418 l 449 418 l 449 583 q 308 728 449 728 q 167 583 167 728 l 167 418 m 360 956 q 360 931 360 956 q 311 907 360 907 q 263 956 263 907 q 311 1004 263 1004 q 360 956 360 1004 z "},"Ę":{"ha":546,"x_min":101,"x_max":492,"o":"m 492 857 l 181 857 l 181 503 l 453 503 l 453 432 l 181 432 l 181 71 l 492 71 l 492 0 l 490 0 q 421 -128 421 -54 q 474 -178 421 -178 l 490 -178 l 490 -239 l 472 -239 q 363 -147 363 -239 q 444 0 363 -61 l 101 0 l 101 928 l 492 928 l 492 857 z "},"ę":{"ha":607,"x_min":88,"x_max":526,"o":"m 88 196 l 88 585 q 142 740 88 681 q 308 799 197 799 q 472 740 418 799 q 526 585 526 681 l 526 349 l 167 349 l 167 197 q 209 99 167 132 q 335 67 251 67 q 503 92 419 67 l 503 14 l 500 14 q 432 -114 432 -40 q 485 -164 432 -164 l 501 -164 l 501 -225 l 483 -225 q 374 -133 374 -225 q 439 0 374 -61 q 344 -7 393 -7 q 88 196 88 -7 m 167 418 l 449 418 l 449 583 q 308 728 449 728 q 167 583 167 728 l 167 418 z "},"Ě":{"ha":546,"x_min":101,"x_max":492,"o":"m 492 857 l 181 857 l 181 503 l 453 503 l 453 432 l 181 432 l 181 71 l 492 71 l 492 0 l 101 0 l 101 928 l 492 928 l 492 857 m 265 986 l 197 1133 l 251 1133 l 300 1042 l 349 1133 l 403 1133 l 335 986 l 265 986 z "},"ě":{"ha":607,"x_min":88,"x_max":526,"o":"m 88 196 l 88 585 q 142 740 88 681 q 308 799 197 799 q 472 740 418 799 q 526 585 526 681 l 526 349 l 167 349 l 167 197 q 209 99 167 132 q 335 67 251 67 q 503 92 419 67 l 503 14 q 344 -7 431 -7 q 88 196 88 -7 m 167 418 l 449 418 l 449 583 q 308 728 449 728 q 167 583 167 728 l 167 418 m 278 847 l 210 994 l 264 994 l 313 903 l 361 994 l 415 994 l 347 847 l 278 847 z "},"Ğ":{"ha":618,"x_min":88,"x_max":525,"o":"m 421 1028 q 401 1007 421 1028 q 313 986 382 986 q 204 1028 243 986 q 163 1133 165 1069 l 226 1133 q 250 1068 228 1092 q 313 1044 272 1044 q 375 1068 353 1044 q 399 1133 397 1092 l 463 1133 q 421 1028 460 1069 m 88 736 q 335 935 88 935 q 499 913 421 935 l 499 835 q 331 861 417 861 q 206 829 244 861 q 167 733 167 797 l 167 186 q 307 65 167 65 q 446 97 400 65 l 446 449 l 525 449 l 525 47 q 319 -7 431 -7 q 148 38 208 -7 q 88 185 88 83 l 88 736 z "},"ğ":{"ha":618,"x_min":60,"x_max":585,"o":"m 585 758 l 539 758 q 471 735 497 758 q 517 599 517 685 l 517 489 q 460 342 517 394 q 292 289 404 289 q 206 208 206 289 q 228 156 206 172 q 303 139 250 139 l 385 139 q 572 -19 572 139 l 572 -36 q 326 -207 572 -207 l 271 -207 q 60 -167 135 -207 l 60 -87 q 269 -136 144 -136 l 324 -136 q 493 -36 493 -136 l 493 -22 q 472 47 493 24 q 383 69 450 69 l 300 69 q 176 100 219 69 q 133 188 133 131 l 133 210 q 201 300 133 279 q 65 489 65 336 l 65 599 q 122 746 65 693 q 283 799 178 799 q 443 760 388 799 q 564 839 468 839 l 585 839 l 585 758 m 438 489 l 438 599 q 403 696 438 664 q 291 728 368 728 q 180 696 214 728 q 146 599 146 664 l 146 489 q 180 392 146 424 q 291 360 214 360 q 403 392 368 360 q 438 489 438 424 m 404 889 q 385 868 404 889 q 296 847 365 847 q 188 889 226 847 q 146 994 149 931 l 210 994 q 233 929 211 953 q 296 906 256 906 q 358 929 336 906 q 382 994 381 953 l 446 994 q 404 889 443 931 z "},"Ģ":{"ha":618,"x_min":88,"x_max":525,"o":"m 331 -85 q 365 -121 365 -85 q 303 -246 365 -157 l 258 -246 l 296 -85 l 331 -85 m 88 736 q 335 935 88 935 q 499 913 421 935 l 499 835 q 331 861 417 861 q 206 829 244 861 q 167 733 167 797 l 167 186 q 307 65 167 65 q 446 97 400 65 l 446 449 l 525 449 l 525 47 q 319 -7 431 -7 q 148 38 208 -7 q 88 185 88 83 l 88 736 z "},"ģ":{"ha":618,"x_min":60,"x_max":585,"o":"m 585 758 l 539 758 q 471 735 497 758 q 517 599 517 685 l 517 489 q 460 342 517 394 q 292 289 404 289 q 206 208 206 289 q 228 156 206 172 q 303 139 250 139 l 385 139 q 572 -19 572 139 l 572 -36 q 326 -207 572 -207 l 271 -207 q 60 -167 135 -207 l 60 -87 q 269 -136 144 -136 l 324 -136 q 493 -36 493 -136 l 493 -22 q 472 47 493 24 q 383 69 450 69 l 300 69 q 176 100 219 69 q 133 188 133 131 l 133 210 q 201 300 133 279 q 65 489 65 336 l 65 599 q 122 746 65 693 q 283 799 178 799 q 443 760 388 799 q 564 839 468 839 l 585 839 l 585 758 m 438 489 l 438 599 q 403 696 438 664 q 291 728 368 728 q 180 696 214 728 q 146 599 146 664 l 146 489 q 180 392 146 424 q 291 360 214 360 q 403 392 368 360 q 438 489 438 424 m 292 847 q 256 880 256 847 q 318 1008 256 913 l 363 1008 l 326 847 l 292 847 z "},"Ī":{"ha":282,"x_min":-6,"x_max":292,"o":"m -6 1089 l 292 1089 l 292 1031 l -6 1031 l -6 1089 m 101 928 l 181 928 l 181 0 l 101 0 l 101 928 z "},"ī":{"ha":282,"x_min":-7,"x_max":290,"o":"m -7 950 l 290 950 l 290 892 l -7 892 l -7 950 m 101 783 l 181 783 l 181 0 l 101 0 l 101 783 z "},"Į":{"ha":282,"x_min":53,"x_max":181,"o":"m 181 928 l 181 0 q 111 -128 111 -54 q 164 -178 111 -178 l 181 -178 l 181 -239 l 163 -239 q 53 -147 53 -239 q 135 0 53 -61 l 101 0 l 101 928 l 181 928 z "},"į":{"ha":282,"x_min":53,"x_max":192,"o":"m 101 0 l 101 783 l 181 783 l 181 0 q 111 -128 111 -54 q 164 -178 111 -178 l 181 -178 l 181 -239 l 163 -239 q 53 -147 53 -239 q 135 0 53 -61 l 101 0 m 192 941 q 192 913 192 941 q 141 885 192 885 q 90 941 90 885 q 141 997 90 997 q 192 941 192 997 z "},"İ":{"ha":282,"x_min":89,"x_max":186,"o":"m 138 1046 q 113 1046 138 1046 q 89 1094 89 1046 q 138 1143 89 1143 q 186 1094 186 1143 q 138 1046 186 1046 m 101 928 l 181 928 l 181 0 l 101 0 l 101 928 z "},"ı":{"ha":282,"x_min":101,"x_max":181,"o":"m 101 783 l 181 783 l 181 0 l 101 0 l 101 783 z "},"Ķ":{"ha":589,"x_min":101,"x_max":563,"o":"m 318 -85 q 354 -117 354 -85 q 292 -246 354 -150 l 247 -246 l 283 -85 l 318 -85 m 101 928 l 181 928 l 181 0 l 101 0 l 101 928 m 465 928 l 553 928 l 353 464 l 563 0 l 474 0 l 267 461 l 465 928 z "},"ķ":{"ha":551,"x_min":101,"x_max":525,"o":"m 294 -85 q 331 -121 331 -85 q 268 -246 331 -157 l 224 -246 l 261 -85 l 294 -85 m 101 994 l 181 994 l 181 0 l 101 0 l 101 994 m 426 785 l 514 785 l 331 407 l 525 0 l 436 0 l 242 404 l 426 785 z "},"Ĺ":{"ha":476,"x_min":101,"x_max":469,"o":"m 101 928 l 181 928 l 181 71 l 469 71 l 469 0 l 101 0 l 101 928 m 161 1133 l 243 1133 l 165 986 l 110 986 l 161 1133 z "},"ĺ":{"ha":282,"x_min":101,"x_max":244,"o":"m 101 994 l 181 994 l 181 0 l 101 0 l 101 994 m 163 1203 l 244 1203 l 167 1056 l 111 1056 l 163 1203 z "},"Ļ":{"ha":476,"x_min":101,"x_max":469,"o":"m 288 -85 q 322 -121 322 -85 q 260 -246 322 -157 l 215 -246 l 253 -85 l 288 -85 m 101 928 l 181 928 l 181 71 l 469 71 l 469 0 l 101 0 l 101 928 z "},"ļ":{"ha":282,"x_min":72,"x_max":181,"o":"m 144 -85 q 181 -117 181 -85 q 118 -246 181 -150 l 72 -246 l 110 -85 l 144 -85 m 101 994 l 181 994 l 181 0 l 101 0 l 101 994 z "},"Ľ":{"ha":476,"x_min":39,"x_max":469,"o":"m 181 71 l 469 71 l 469 0 l 101 0 l 101 928 l 181 928 l 181 71 m 107 986 l 39 1133 l 93 1133 l 142 1042 l 190 1133 l 244 1133 l 176 986 l 107 986 z "},"ľ":{"ha":282,"x_min":101,"x_max":346,"o":"m 311 992 q 346 956 346 992 q 283 831 346 919 l 239 831 l 276 992 l 311 992 m 101 994 l 181 994 l 181 0 l 101 0 l 101 994 z "},"Ł":{"ha":476,"x_min":25,"x_max":471,"o":"m 182 71 l 471 71 l 471 0 l 103 0 l 103 392 l 25 350 l 25 418 l 103 460 l 103 928 l 182 928 l 182 503 l 319 578 l 319 510 l 182 435 l 182 71 z "},"ł":{"ha":282,"x_min":22,"x_max":261,"o":"m 181 0 l 101 0 l 101 621 l 22 574 l 22 642 l 101 689 l 101 994 l 181 994 l 181 736 l 261 785 l 261 717 l 181 668 l 181 0 z "},"Ń":{"ha":686,"x_min":101,"x_max":585,"o":"m 511 132 q 506 422 511 178 l 506 928 l 585 928 l 585 0 l 485 0 l 174 794 q 179 504 174 749 l 179 0 l 101 0 l 101 928 l 200 928 q 511 132 472 236 m 372 1133 l 454 1133 l 376 986 l 321 986 l 372 1133 z "},"ń":{"ha":624,"x_min":101,"x_max":529,"o":"m 179 749 q 350 788 272 788 q 478 740 428 788 q 529 604 529 692 l 529 0 l 450 0 l 450 600 q 336 714 450 714 q 181 674 265 714 l 181 0 l 101 0 l 101 785 l 179 785 l 179 749 m 340 994 l 422 994 l 344 847 l 289 847 l 340 994 z "},"Ņ":{"ha":686,"x_min":101,"x_max":585,"o":"m 329 -85 q 364 -121 364 -85 q 301 -246 364 -157 l 257 -246 l 294 -85 l 329 -85 m 511 132 q 506 422 511 178 l 506 928 l 585 928 l 585 0 l 485 0 l 174 794 q 179 504 174 749 l 179 0 l 101 0 l 101 928 l 200 928 q 511 132 472 236 z "},"ņ":{"ha":624,"x_min":101,"x_max":529,"o":"m 306 -85 q 342 -117 342 -85 q 279 -246 342 -150 l 233 -246 l 271 -85 l 306 -85 m 179 749 q 350 788 272 788 q 478 740 428 788 q 529 604 529 692 l 529 0 l 450 0 l 450 600 q 336 714 450 714 q 181 674 265 714 l 181 0 l 101 0 l 101 785 l 179 785 l 179 749 z "},"Ň":{"ha":686,"x_min":101,"x_max":585,"o":"m 511 132 q 506 422 511 178 l 506 928 l 585 928 l 585 0 l 485 0 l 174 794 q 179 504 174 749 l 179 0 l 101 0 l 101 928 l 200 928 q 511 132 472 236 m 313 986 l 244 1133 l 299 1133 l 347 1042 l 396 1133 l 450 1133 l 382 986 l 313 986 z "},"ň":{"ha":624,"x_min":101,"x_max":529,"o":"m 179 785 l 179 749 q 350 788 272 788 q 478 740 428 788 q 529 604 529 692 l 529 0 l 450 0 l 450 600 q 336 714 450 714 q 181 674 265 714 l 181 0 l 101 0 l 101 785 l 179 785 m 275 847 l 207 994 l 261 994 l 310 903 l 358 994 l 413 994 l 344 847 l 275 847 z "},"Ō":{"ha":626,"x_min":88,"x_max":539,"o":"m 460 725 q 313 869 460 869 q 167 725 167 869 l 167 203 q 313 58 167 58 q 460 203 460 58 l 460 725 m 88 726 q 144 883 88 824 q 314 942 201 942 q 483 883 426 942 q 539 726 539 824 l 539 201 q 483 45 539 104 q 314 -14 426 -14 q 144 45 201 -14 q 88 201 88 104 l 88 726 m 167 1089 l 464 1089 l 464 1031 l 167 1031 l 167 1089 z "},"ō":{"ha":613,"x_min":88,"x_max":525,"o":"m 446 585 q 306 728 446 728 q 167 585 167 728 l 167 200 q 306 57 167 57 q 446 200 446 57 l 446 585 m 88 585 q 142 740 88 681 q 306 799 196 799 q 471 740 417 799 q 525 585 525 682 l 525 200 q 471 44 525 103 q 306 -14 417 -14 q 142 45 196 -14 q 88 200 88 104 l 88 585 m 156 950 l 453 950 l 453 892 l 156 892 l 156 950 z "},"Ő":{"ha":626,"x_min":88,"x_max":539,"o":"m 460 725 q 313 869 460 869 q 167 725 167 869 l 167 203 q 313 58 167 58 q 460 203 460 58 l 460 725 m 88 726 q 144 883 88 824 q 314 942 201 942 q 483 883 426 942 q 539 726 539 824 l 539 201 q 483 45 539 104 q 314 -14 426 -14 q 144 45 201 -14 q 88 201 88 104 l 88 726 m 282 1133 l 361 1133 l 282 986 l 229 986 l 282 1133 m 393 1133 l 472 1133 l 393 986 l 340 986 l 393 1133 z "},"ő":{"ha":613,"x_min":88,"x_max":525,"o":"m 446 585 q 306 728 446 728 q 167 585 167 728 l 167 200 q 306 57 167 57 q 446 200 446 57 l 446 585 m 88 585 q 142 740 88 681 q 306 799 196 799 q 471 740 417 799 q 525 585 525 682 l 525 200 q 471 44 525 103 q 306 -14 417 -14 q 142 45 196 -14 q 88 200 88 104 l 88 585 m 283 994 l 363 994 l 283 847 l 231 847 l 283 994 m 394 994 l 474 994 l 394 847 l 342 847 l 394 994 z "},"Œ":{"ha":921,"x_min":115,"x_max":879,"o":"m 879 857 l 568 857 l 568 503 l 840 503 l 840 432 l 568 432 l 568 71 l 879 71 l 879 0 l 336 0 q 170 57 225 0 q 115 210 115 114 l 115 719 q 172 871 115 814 q 338 928 228 928 l 879 928 l 879 857 m 339 71 l 489 71 l 489 857 l 339 857 q 194 718 194 857 l 194 211 q 339 71 194 71 z "},"œ":{"ha":983,"x_min":100,"x_max":897,"o":"m 100 200 l 100 585 q 154 740 100 682 q 326 799 208 799 q 499 722 443 799 q 672 799 554 799 q 843 740 789 799 q 897 585 897 681 l 897 349 l 538 349 l 538 197 q 580 99 538 132 q 706 67 622 67 q 874 92 790 67 l 874 14 q 715 -7 800 -7 q 500 65 561 -7 q 327 -14 446 -14 q 154 44 208 -14 q 100 200 100 103 m 458 200 l 458 585 q 319 728 458 728 q 179 585 179 728 l 179 200 q 319 57 179 57 q 458 200 458 57 m 538 418 l 819 418 l 819 583 q 678 728 819 728 q 538 583 538 728 l 538 418 z "},"Ŕ":{"ha":628,"x_min":101,"x_max":563,"o":"m 338 379 l 181 379 l 181 0 l 101 0 l 101 928 l 314 928 q 480 871 424 928 q 536 719 536 814 l 536 589 q 417 396 536 440 l 563 0 l 475 0 l 338 379 m 181 453 l 311 453 q 456 589 456 453 l 456 718 q 311 857 456 857 l 181 857 l 181 453 m 422 1133 l 344 986 l 289 986 l 340 1133 l 422 1133 z "},"ŕ":{"ha":383,"x_min":101,"x_max":376,"o":"m 376 789 l 376 711 l 328 711 q 307 710 317 711 q 290 708 297 708 q 273 702 283 707 q 258 695 263 697 q 240 685 253 693 q 203 659 219 671 q 181 643 188 647 l 181 0 l 101 0 l 101 785 l 179 785 l 179 724 q 270 779 240 769 q 340 789 300 789 l 376 789 m 263 994 l 344 994 l 267 847 l 211 847 l 263 994 z "},"Ŗ":{"ha":628,"x_min":101,"x_max":563,"o":"m 338 379 l 181 379 l 181 0 l 101 0 l 101 928 l 314 928 q 480 871 424 928 q 536 719 536 814 l 536 589 q 417 396 536 440 l 563 0 l 475 0 l 338 379 m 181 453 l 311 453 q 456 589 456 453 l 456 718 q 311 857 456 857 l 181 857 l 181 453 m 314 -85 q 349 -121 349 -85 q 286 -246 349 -157 l 242 -246 l 279 -85 l 314 -85 z "},"ŗ":{"ha":383,"x_min":72,"x_max":376,"o":"m 144 -85 q 181 -117 181 -85 q 118 -246 181 -150 l 72 -246 l 110 -85 l 144 -85 m 376 789 l 376 711 l 328 711 q 307 710 317 711 q 290 708 297 708 q 273 702 283 707 q 258 695 263 697 q 240 685 253 693 q 203 659 219 671 q 181 643 188 647 l 181 0 l 101 0 l 101 785 l 179 785 l 179 724 q 270 779 240 769 q 340 789 300 789 l 376 789 z "},"Ř":{"ha":628,"x_min":101,"x_max":563,"o":"m 338 379 l 181 379 l 181 0 l 101 0 l 101 928 l 314 928 q 480 871 424 928 q 536 719 536 814 l 536 589 q 417 396 536 440 l 563 0 l 475 0 l 338 379 m 181 453 l 311 453 q 456 589 456 453 l 456 718 q 311 857 456 857 l 181 857 l 181 453 m 275 986 l 207 1133 l 261 1133 l 310 1042 l 358 1133 l 413 1133 l 344 986 l 275 986 z "},"ř":{"ha":383,"x_min":101,"x_max":376,"o":"m 376 789 l 376 711 l 328 711 q 307 710 317 711 q 290 708 297 708 q 273 702 283 707 q 258 695 263 697 q 240 685 253 693 q 203 659 219 671 q 181 643 188 647 l 181 0 l 101 0 l 101 785 l 179 785 l 179 724 q 270 779 240 769 q 340 789 300 789 l 376 789 m 207 847 l 139 994 l 193 994 l 242 903 l 290 994 l 344 994 l 276 847 l 207 847 z "},"Ś":{"ha":526,"x_min":40,"x_max":479,"o":"m 40 746 q 99 885 40 835 q 267 935 158 935 q 446 914 375 935 l 446 836 q 272 861 381 861 q 121 746 121 861 l 121 671 q 140 592 121 622 q 204 536 160 561 l 367 446 q 479 263 479 385 l 479 189 q 417 44 479 96 q 236 -7 354 -7 q 47 19 118 -7 l 47 97 q 228 67 126 67 q 399 192 399 67 l 399 256 q 382 332 399 304 q 319 383 365 360 l 158 472 q 40 664 40 536 l 40 746 m 286 1133 l 368 1133 l 290 986 l 235 986 l 286 1133 z "},"ś":{"ha":496,"x_min":40,"x_max":454,"o":"m 40 604 q 94 745 40 699 q 269 792 147 792 q 421 768 347 792 l 421 693 q 263 718 346 718 q 151 692 181 718 q 121 603 121 665 l 121 564 q 140 488 121 514 q 207 442 158 463 l 326 386 q 422 318 390 357 q 454 218 454 279 l 454 182 q 211 -7 454 -7 q 47 17 121 -7 l 47 92 q 211 67 122 67 q 338 95 300 67 q 375 182 375 124 l 375 213 q 356 277 375 254 q 283 324 338 300 l 160 381 q 40 556 40 432 l 40 604 m 279 994 l 361 994 l 283 847 l 228 847 l 279 994 z "},"Ş":{"ha":526,"x_min":40,"x_max":479,"o":"m 249 -85 q 285 -117 285 -85 q 222 -246 285 -150 l 178 -246 l 215 -85 l 249 -85 m 40 746 q 99 885 40 835 q 267 935 158 935 q 446 914 375 935 l 446 836 q 272 861 381 861 q 121 746 121 861 l 121 671 q 140 592 121 622 q 204 536 160 561 l 367 446 q 479 263 479 385 l 479 189 q 417 44 479 96 q 236 -7 354 -7 q 47 19 118 -7 l 47 97 q 228 67 126 67 q 399 192 399 67 l 399 256 q 382 332 399 304 q 319 383 365 360 l 158 472 q 40 664 40 536 l 40 746 z "},"ş":{"ha":496,"x_min":40,"x_max":454,"o":"m 242 -85 q 278 -117 278 -85 q 215 -246 278 -150 l 169 -246 l 207 -85 l 242 -85 m 40 604 q 94 745 40 699 q 269 792 147 792 q 421 768 347 792 l 421 693 q 263 718 346 718 q 151 692 181 718 q 121 603 121 665 l 121 564 q 140 488 121 514 q 207 442 158 463 l 326 386 q 422 318 390 357 q 454 218 454 279 l 454 182 q 211 -7 454 -7 q 47 17 121 -7 l 47 92 q 211 67 122 67 q 338 95 300 67 q 375 182 375 124 l 375 213 q 356 277 375 254 q 283 324 338 300 l 160 381 q 40 556 40 432 l 40 604 z "},"Š":{"ha":526,"x_min":40,"x_max":479,"o":"m 479 263 l 479 189 q 417 44 479 96 q 236 -7 354 -7 q 47 19 118 -7 l 47 97 q 228 67 126 67 q 399 192 399 67 l 399 256 q 382 332 399 304 q 319 383 365 360 l 158 472 q 40 664 40 536 l 40 746 q 99 885 40 835 q 267 935 158 935 q 446 914 375 935 l 446 836 q 272 861 381 861 q 121 746 121 861 l 121 671 q 140 592 121 622 q 204 536 160 561 l 367 446 q 479 263 479 385 m 239 986 l 171 1133 l 225 1133 l 274 1042 l 322 1133 l 376 1133 l 308 986 l 239 986 z "},"š":{"ha":496,"x_min":40,"x_max":454,"o":"m 454 218 l 454 182 q 211 -7 454 -7 q 47 17 121 -7 l 47 92 q 211 67 122 67 q 338 95 300 67 q 375 182 375 124 l 375 213 q 356 277 375 254 q 283 324 338 300 l 160 381 q 40 556 40 432 l 40 604 q 94 745 40 699 q 269 792 147 792 q 421 768 347 792 l 421 693 q 263 718 346 718 q 151 692 181 718 q 121 603 121 665 l 121 564 q 140 488 121 514 q 207 442 158 463 l 326 386 q 422 318 390 357 q 454 218 454 279 m 214 847 l 146 994 l 200 994 l 249 903 l 297 994 l 351 994 l 283 847 l 214 847 z "},"Ţ":{"ha":472,"x_min":14,"x_max":458,"o":"m 458 928 l 458 857 l 276 857 l 276 0 l 196 0 l 196 857 l 14 857 l 14 928 l 458 928 m 240 -85 q 276 -117 276 -85 q 214 -246 276 -150 l 169 -246 l 207 -85 l 240 -85 z "},"ţ":{"ha":397,"x_min":7,"x_max":376,"o":"m 242 -85 q 278 -117 278 -85 q 215 -246 278 -150 l 169 -246 l 207 -85 l 242 -85 m 176 929 l 176 785 l 361 785 l 361 714 l 176 714 l 176 167 q 202 90 176 113 q 283 67 228 67 q 376 82 339 67 l 376 8 q 261 -4 335 -4 q 142 39 188 -4 q 96 164 96 82 l 96 714 l 7 714 l 7 785 l 99 785 l 121 929 l 176 929 z "},"Ť":{"ha":472,"x_min":14,"x_max":458,"o":"m 458 928 l 458 857 l 276 857 l 276 0 l 196 0 l 196 857 l 14 857 l 14 928 l 458 928 m 200 986 l 132 1133 l 186 1133 l 235 1042 l 283 1133 l 338 1133 l 269 986 l 200 986 z "},"ť":{"ha":397,"x_min":7,"x_max":410,"o":"m 176 929 l 176 785 l 361 785 l 361 714 l 176 714 l 176 167 q 202 90 176 113 q 283 67 228 67 q 376 82 339 67 l 376 8 q 261 -4 335 -4 q 142 39 188 -4 q 96 164 96 82 l 96 714 l 7 714 l 7 785 l 99 785 l 121 929 l 176 929 m 378 1063 q 410 1033 410 1063 q 342 854 410 1000 l 306 854 l 347 1063 l 378 1063 z "},"Ū":{"ha":640,"x_min":94,"x_max":546,"o":"m 171 1089 l 468 1089 l 468 1031 l 171 1031 l 171 1089 m 465 928 l 546 928 l 546 201 q 489 45 546 104 q 319 -14 432 -14 q 151 45 207 -14 q 94 201 94 104 l 94 928 l 174 928 l 174 203 q 319 58 174 58 q 465 203 465 58 l 465 928 z "},"ū":{"ha":624,"x_min":94,"x_max":524,"o":"m 157 950 l 454 950 l 454 892 l 157 892 l 157 950 m 443 785 l 524 785 l 524 0 l 446 0 l 446 38 q 293 -4 363 -4 q 144 47 194 -4 q 94 196 94 99 l 94 785 l 175 785 l 175 200 q 299 67 175 67 q 429 104 367 67 q 443 114 436 108 l 443 785 z "},"Ů":{"ha":640,"x_min":94,"x_max":546,"o":"m 465 928 l 546 928 l 546 201 q 489 45 546 104 q 319 -14 432 -14 q 151 45 207 -14 q 94 201 94 104 l 94 928 l 174 928 l 174 203 q 319 58 174 58 q 465 203 465 58 l 465 928 m 374 1060 q 324 1110 374 1110 q 274 1060 274 1110 q 287 1022 274 1036 q 324 1008 300 1008 q 360 1022 347 1008 q 374 1060 374 1036 m 324 960 q 301 960 324 960 q 250 989 278 960 q 222 1060 222 1018 q 249 1131 222 1103 q 324 1158 276 1158 q 398 1131 371 1158 q 425 1060 425 1103 q 398 988 425 1017 q 324 960 371 960 z "},"ů":{"ha":624,"x_min":94,"x_max":524,"o":"m 443 785 l 524 785 l 524 0 l 446 0 l 446 38 q 293 -4 363 -4 q 144 47 194 -4 q 94 196 94 99 l 94 785 l 175 785 l 175 200 q 299 67 175 67 q 429 104 367 67 q 443 114 436 108 l 443 785 m 363 921 q 313 971 363 971 q 263 921 263 971 q 276 883 263 897 q 313 869 289 869 q 349 883 336 869 q 363 921 363 897 m 313 821 q 290 821 313 821 q 239 850 267 821 q 211 922 211 879 q 238 992 211 964 q 313 1019 265 1019 q 387 992 360 1019 q 414 921 414 964 q 387 849 414 878 q 313 821 360 821 z "},"Ű":{"ha":640,"x_min":94,"x_max":546,"o":"m 278 1133 l 357 1133 l 278 986 l 225 986 l 278 1133 m 389 1133 l 468 1133 l 389 986 l 336 986 l 389 1133 m 465 928 l 546 928 l 546 201 q 489 45 546 104 q 319 -14 432 -14 q 151 45 207 -14 q 94 201 94 104 l 94 928 l 174 928 l 174 203 q 319 58 174 58 q 465 203 465 58 l 465 928 z "},"ű":{"ha":624,"x_min":94,"x_max":524,"o":"m 274 994 l 353 994 l 274 847 l 221 847 l 274 994 m 385 994 l 464 994 l 385 847 l 332 847 l 385 994 m 443 785 l 524 785 l 524 0 l 446 0 l 446 38 q 293 -4 363 -4 q 144 47 194 -4 q 94 196 94 99 l 94 785 l 175 785 l 175 200 q 299 67 175 67 q 429 104 367 67 q 443 114 436 108 l 443 785 z "},"Ų":{"ha":640,"x_min":94,"x_max":546,"o":"m 465 928 l 546 928 l 546 201 q 438 10 546 60 q 374 -114 374 -43 q 426 -164 374 -164 l 443 -164 l 443 -225 l 425 -225 q 315 -133 315 -225 q 369 -10 315 -67 q 319 -14 347 -14 q 151 45 207 -14 q 94 201 94 104 l 94 928 l 174 928 l 174 203 q 319 58 174 58 q 465 203 465 58 l 465 928 z "},"ų":{"ha":624,"x_min":94,"x_max":524,"o":"m 443 785 l 524 785 l 524 0 l 522 0 q 453 -128 453 -54 q 506 -178 453 -178 l 522 -178 l 522 -239 l 504 -239 q 394 -147 394 -239 q 476 0 394 -61 l 446 0 l 446 38 q 293 -4 363 -4 q 144 47 194 -4 q 94 196 94 99 l 94 785 l 175 785 l 175 200 q 299 67 175 67 q 429 104 367 67 q 443 114 436 108 l 443 785 z "},"Ÿ":{"ha":551,"x_min":7,"x_max":544,"o":"m 315 0 l 236 0 l 236 318 l 7 928 l 89 928 q 235 536 208 614 q 278 417 263 458 q 463 928 310 517 l 544 928 l 315 318 l 315 0 m 406 1058 q 406 1034 406 1058 q 357 1010 406 1010 q 308 1058 308 1010 q 357 1106 308 1106 q 406 1058 406 1106 m 226 1058 q 226 1034 226 1058 q 178 1010 226 1010 q 129 1058 129 1010 q 178 1106 129 1106 q 226 1058 226 1106 z "},"Ź":{"ha":521,"x_min":40,"x_max":481,"o":"m 49 928 l 481 928 l 481 857 l 125 71 l 472 71 l 472 0 l 40 0 l 40 71 l 394 857 l 49 857 l 49 928 m 282 1133 l 364 1133 l 286 986 l 231 986 l 282 1133 z "},"ź":{"ha":435,"x_min":28,"x_max":407,"o":"m 36 785 l 407 785 l 407 718 l 106 71 l 406 71 l 406 0 l 28 0 l 28 68 l 324 714 l 36 714 l 36 785 m 242 994 l 324 994 l 246 847 l 190 847 l 242 994 z "},"Ż":{"ha":521,"x_min":40,"x_max":481,"o":"m 257 1046 q 233 1046 257 1046 q 208 1094 208 1046 q 257 1143 208 1143 q 306 1094 306 1143 q 257 1046 306 1046 m 49 928 l 481 928 l 481 857 l 125 71 l 472 71 l 472 0 l 40 0 l 40 71 l 394 857 l 49 857 l 49 928 z "},"ż":{"ha":435,"x_min":28,"x_max":407,"o":"m 232 907 q 208 907 232 907 q 183 956 183 907 q 232 1004 183 1004 q 281 956 281 1004 q 232 907 281 907 m 36 785 l 407 785 l 407 718 l 106 71 l 406 71 l 406 0 l 28 0 l 28 68 l 324 714 l 36 714 l 36 785 z "},"Ž":{"ha":521,"x_min":40,"x_max":481,"o":"m 481 928 l 481 857 l 125 71 l 472 71 l 472 0 l 40 0 l 40 71 l 394 857 l 49 857 l 49 928 l 481 928 m 232 986 l 164 1133 l 218 1133 l 267 1042 l 315 1133 l 369 1133 l 301 986 l 232 986 z "},"ž":{"ha":435,"x_min":28,"x_max":407,"o":"m 407 785 l 407 718 l 106 71 l 406 71 l 406 0 l 28 0 l 28 68 l 324 714 l 36 714 l 36 785 l 407 785 m 194 847 l 126 994 l 181 994 l 229 903 l 278 994 l 332 994 l 264 847 l 194 847 z "},"ƒ":{"ha":404,"x_min":-42,"x_max":421,"o":"m -42 67 l -14 65 q 58 90 35 65 q 92 175 82 115 l 163 593 l 53 593 l 53 663 l 174 663 l 200 815 q 256 951 215 907 q 383 996 297 996 q 421 994 408 996 l 421 925 q 374 926 410 926 q 281 815 301 926 l 254 663 l 360 663 l 360 593 l 243 593 l 172 175 q 116 39 157 83 q -11 -6 75 -6 l -42 -4 l -42 67 z "},"Ș":{"ha":526,"x_min":40,"x_max":479,"o":"m 251 -85 q 288 -117 288 -85 q 225 -246 288 -150 l 179 -246 l 217 -85 l 251 -85 m 40 746 q 99 885 40 835 q 267 935 158 935 q 446 914 375 935 l 446 836 q 272 861 381 861 q 121 746 121 861 l 121 671 q 140 592 121 622 q 204 536 160 561 l 367 446 q 479 263 479 385 l 479 189 q 417 44 479 96 q 236 -7 354 -7 q 47 19 118 -7 l 47 97 q 228 67 126 67 q 399 192 399 67 l 399 256 q 382 332 399 304 q 319 383 365 360 l 158 472 q 40 664 40 536 l 40 746 z "},"ș":{"ha":496,"x_min":40,"x_max":454,"o":"m 254 -85 q 290 -117 290 -85 q 228 -246 290 -150 l 182 -246 l 219 -85 l 254 -85 m 40 604 q 94 745 40 699 q 269 792 147 792 q 421 768 347 792 l 421 693 q 263 718 346 718 q 151 692 181 718 q 121 603 121 665 l 121 564 q 140 488 121 514 q 207 442 158 463 l 326 386 q 422 318 390 357 q 454 218 454 279 l 454 182 q 211 -7 454 -7 q 47 17 121 -7 l 47 92 q 211 67 122 67 q 338 95 300 67 q 375 182 375 124 l 375 213 q 356 277 375 254 q 283 324 338 300 l 160 381 q 40 556 40 432 l 40 604 z "},"Ț":{"ha":472,"x_min":14,"x_max":458,"o":"m 458 928 l 458 857 l 276 857 l 276 0 l 196 0 l 196 857 l 14 857 l 14 928 l 458 928 m 235 -85 q 271 -119 271 -85 q 207 -246 271 -154 l 163 -246 l 200 -85 l 235 -85 z "},"ț":{"ha":397,"x_min":7,"x_max":376,"o":"m 246 -85 q 282 -119 282 -85 q 218 -246 282 -154 l 174 -246 l 211 -85 l 246 -85 m 176 929 l 176 785 l 361 785 l 361 714 l 176 714 l 176 167 q 202 90 176 113 q 283 67 228 67 q 376 82 339 67 l 376 8 q 261 -4 335 -4 q 142 39 188 -4 q 96 164 96 82 l 96 714 l 7 714 l 7 785 l 99 785 l 121 929 l 176 929 z "},"ˆ":{"ha":486,"x_min":140,"x_max":346,"o":"m 346 847 l 292 847 l 243 939 l 194 847 l 140 847 l 208 994 l 278 994 l 346 847 z "},"ˇ":{"ha":486,"x_min":140,"x_max":346,"o":"m 292 994 l 346 994 l 278 847 l 208 847 l 140 994 l 194 994 l 243 903 l 292 994 z "},"ˉ":{"ha":486,"x_min":94,"x_max":392,"o":"m 94 950 l 392 950 l 392 892 l 94 892 l 94 950 z "},"˘":{"ha":486,"x_min":93,"x_max":393,"o":"m 351 889 q 332 868 351 889 q 243 847 313 847 q 135 889 174 847 q 93 994 96 931 l 157 994 q 181 929 158 953 q 243 906 203 906 q 306 929 283 906 q 329 994 328 953 l 393 994 q 351 889 390 931 z "},"˙":{"ha":486,"x_min":192,"x_max":289,"o":"m 240 907 q 216 907 240 907 q 192 956 192 907 q 240 1004 192 1004 q 289 956 289 1004 q 240 907 289 907 z "},"˚":{"ha":486,"x_min":142,"x_max":344,"o":"m 293 921 q 243 971 293 971 q 193 921 193 971 q 206 883 193 897 q 243 869 219 869 q 280 883 267 869 q 293 921 293 897 m 244 821 q 220 821 244 821 q 169 850 197 821 q 142 922 142 879 q 169 992 142 964 q 243 1019 196 1019 q 317 992 290 1019 q 344 921 344 964 q 317 849 344 878 q 244 821 290 821 z "},"˛":{"ha":486,"x_min":179,"x_max":307,"o":"m 238 -128 q 290 -178 238 -178 l 307 -178 l 307 -239 l 289 -239 q 179 -147 179 -239 q 261 0 179 -61 l 307 0 q 238 -128 238 -54 z "},"˜":{"ha":486,"x_min":76,"x_max":408,"o":"m 344 981 l 408 981 l 408 960 q 322 864 408 864 q 241 892 289 864 q 171 921 193 921 q 140 878 140 921 l 140 861 l 76 861 l 76 882 q 99 951 76 925 q 160 978 121 978 q 249 949 200 978 q 315 921 299 921 q 344 964 344 921 l 344 981 z "},"˝":{"ha":486,"x_min":121,"x_max":364,"o":"m 174 994 l 253 994 l 174 847 l 121 847 l 174 994 m 285 994 l 364 994 l 285 847 l 232 847 l 285 994 z "},"π":{"ha":624,"x_min":100,"x_max":626,"o":"m 626 785 l 626 714 l 529 714 l 529 0 l 450 0 l 450 714 l 181 714 l 181 0 l 101 0 l 100 785 l 626 785 z "},"ँ":{"ha":0,"x_min":-354,"x_max":67,"o":"m -1 1147 l 67 1147 l 67 1144 q 15 1023 67 1058 q -144 988 -37 988 q -303 1023 -251 988 q -354 1144 -354 1058 l -354 1147 l -286 1147 q -254 1072 -286 1092 q -144 1051 -222 1051 q -34 1072 -67 1051 q -1 1147 -1 1092 m -144 1139 q -168 1139 -144 1139 q -193 1189 -193 1139 q -144 1239 -193 1239 q -94 1189 -94 1239 q -144 1139 -94 1139 z "},"ं":{"ha":0,"x_min":-194,"x_max":-94,"o":"m -144 1010 q -169 1010 -144 1010 q -194 1060 -194 1010 q -144 1110 -194 1110 q -94 1060 -94 1110 q -144 1010 -94 1010 z "},"ः":{"ha":268,"x_min":60,"x_max":160,"o":"m 110 0 q 85 0 110 0 q 60 50 60 0 q 110 100 60 100 q 160 50 160 100 q 110 0 160 0 m 110 476 q 85 476 110 476 q 60 526 60 476 q 110 576 60 576 q 160 526 160 576 q 110 476 160 476 z "},"अ":{"ha":769,"x_min":50,"x_max":800,"o":"m 590 897 l 800 897 l 800 833 l 663 833 l 663 0 l 590 0 l 590 296 l 417 296 l 417 228 q 363 95 417 143 q 219 47 308 47 q 50 68 129 47 l 50 138 q 207 115 129 115 q 344 228 344 115 l 344 335 q 320 418 344 389 q 222 449 296 447 l 138 449 l 138 517 l 222 517 q 320 547 296 518 q 344 631 344 576 l 344 724 q 207 838 344 838 q 64 811 138 838 l 64 883 q 219 904 129 904 q 363 857 308 904 q 417 725 417 810 l 417 631 q 342 483 417 510 q 415 360 410 456 l 590 360 l 590 897 z "},"आ":{"ha":1094,"x_min":89,"x_max":1125,"o":"m 1125 897 l 1125 833 l 988 833 l 988 0 l 915 0 l 915 833 l 701 833 l 701 0 l 629 0 l 629 296 l 456 296 l 456 228 q 401 95 456 143 q 258 47 347 47 q 89 68 168 47 l 89 138 q 246 115 168 115 q 383 228 383 115 l 383 335 q 359 418 383 389 q 261 449 335 447 l 176 449 l 176 517 l 261 517 q 359 547 335 518 q 383 631 383 576 l 383 724 q 246 838 383 838 q 103 811 176 838 l 103 883 q 258 904 168 904 q 401 857 347 904 q 456 725 456 810 l 456 631 q 381 483 456 510 q 454 360 449 456 l 629 360 l 629 897 l 1125 897 z "},"इ":{"ha":549,"x_min":-31,"x_max":578,"o":"m 143 238 l 143 122 q 274 111 193 111 q 415 210 415 111 l 415 267 q 388 340 415 315 q 289 365 360 365 l 258 365 q 61 529 61 365 l 61 538 q 258 700 61 700 l 375 700 l 375 833 l -31 833 l -31 897 l 578 897 l 578 833 l 447 833 l 447 633 l 258 633 q 160 610 188 633 q 133 538 133 586 l 133 529 q 161 456 133 481 q 258 431 189 431 l 289 431 q 488 267 488 431 l 488 210 q 436 85 488 125 q 291 44 385 44 q 143 57 197 44 l 143 -87 l 74 -87 l 74 238 l 143 238 z "},"ई":{"ha":549,"x_min":-31,"x_max":578,"o":"m 447 633 l 258 633 q 160 610 188 633 q 133 538 133 586 l 133 529 q 161 456 133 481 q 258 431 189 431 l 289 431 q 488 267 488 431 l 488 210 q 436 85 488 125 q 291 44 385 44 q 143 57 197 44 l 143 -87 l 74 -87 l 74 238 l 143 238 l 143 122 q 274 111 193 111 q 415 210 415 111 l 415 267 q 388 340 415 315 q 289 365 360 365 l 258 365 q 61 529 61 365 l 61 538 q 258 700 61 700 l 375 700 l 375 833 l -31 833 l -31 897 l 367 897 q 317 1065 317 989 q 367 1181 317 1142 q 494 1221 418 1221 q 557 1215 521 1221 l 557 1151 q 506 1156 532 1156 q 390 1056 390 1156 q 440 897 390 1000 l 578 897 l 578 833 l 447 833 l 447 633 z "},"उ":{"ha":554,"x_min":-31,"x_max":585,"o":"m 381 733 q 361 833 381 792 l -31 833 l -31 897 l 585 897 l 585 833 l 438 833 q 453 735 453 806 l 453 615 q 379 468 453 490 q 453 322 453 444 l 453 175 q 214 -4 453 -4 q 68 18 143 -4 l 68 90 q 214 63 147 63 q 381 176 381 63 l 381 321 q 356 404 381 375 q 258 435 332 433 l 174 435 l 174 503 l 260 503 q 357 533 333 504 q 381 615 381 563 l 381 733 z "},"ऊ":{"ha":778,"x_min":-31,"x_max":808,"o":"m 381 733 q 361 833 381 792 l -31 833 l -31 897 l 808 897 l 808 833 l 438 833 q 453 735 453 806 l 453 615 q 383 469 453 493 q 529 483 464 483 q 675 435 625 483 q 725 306 725 388 l 725 165 q 681 43 725 88 q 553 -1 638 -1 l 526 -1 l 526 67 l 536 67 q 627 92 601 67 q 653 165 653 117 l 653 303 q 526 415 653 415 l 436 415 q 453 322 453 381 l 453 175 q 214 -4 453 -4 q 68 18 143 -4 l 68 90 q 214 63 147 63 q 381 176 381 63 l 381 321 q 356 404 381 375 q 258 435 332 433 l 174 435 l 174 503 l 260 503 q 357 533 333 504 q 381 615 381 563 l 381 733 z "},"ऋ":{"ha":924,"x_min":-31,"x_max":954,"o":"m 954 833 l 507 833 l 507 594 q 640 581 575 581 q 781 690 781 581 l 781 703 l 850 703 l 850 331 l 793 331 q 710 300 736 331 q 683 199 683 269 q 721 101 683 129 q 807 72 758 72 q 892 81 856 72 l 892 15 q 813 7 854 7 q 668 54 725 7 q 611 196 611 101 q 781 390 611 388 l 781 560 q 639 513 740 513 q 507 525 574 513 l 507 0 l 435 0 l 435 146 q 442 382 435 361 l 436 382 q 343 275 431 364 l 150 76 l 58 76 l 58 82 l 435 469 l 435 604 q 294 624 372 624 q 136 501 136 624 l 136 421 l 64 421 l 64 503 q 122 643 64 594 q 292 692 181 692 q 435 671 368 692 l 435 833 l -31 833 l -31 897 l 954 897 l 954 833 z "},"ऌ":{"ha":851,"x_min":-31,"x_max":881,"o":"m 744 833 l 744 94 q 678 96 740 96 q 592 70 615 96 q 568 -18 568 44 q 596 -101 568 -81 q 665 -122 624 -122 q 750 -111 706 -122 l 750 -182 q 739 -185 749 -182 q 676 -193 710 -193 q 496 -16 496 -193 q 667 161 496 161 l 672 161 l 672 575 q 565 596 624 596 q 446 493 446 596 l 446 288 l 372 288 l 372 493 q 260 596 372 596 q 170 567 194 596 q 146 489 146 539 l 146 207 q 178 102 146 139 q 294 65 210 65 q 371 72 325 65 l 371 7 q 293 0 336 0 q 74 207 74 0 l 74 489 q 119 617 74 571 q 264 663 165 663 q 408 601 363 663 q 564 663 454 663 q 672 642 624 663 l 672 833 l -31 833 l -31 897 l 881 897 l 881 833 l 744 833 z "},"ऍ":{"ha":589,"x_min":-31,"x_max":619,"o":"m 478 21 q 310 -7 414 -7 q 153 37 206 -7 q 100 163 100 81 l 100 833 l -31 833 l -31 897 l 619 897 l 619 833 l 499 833 l 499 550 q 458 429 499 475 q 333 383 418 383 q 300 385 311 383 l 300 451 q 326 450 308 450 q 426 550 426 450 l 426 833 l 174 833 l 174 164 q 310 61 174 61 q 478 88 399 61 l 478 21 m 447 1163 l 515 1163 l 515 1161 q 463 1040 515 1075 q 304 1004 411 1004 q 146 1040 197 1004 q 94 1161 94 1075 l 94 1163 l 163 1163 q 194 1088 163 1108 q 304 1068 226 1068 q 415 1088 382 1068 q 447 1163 447 1108 z "},"ऎ":{"ha":589,"x_min":-31,"x_max":619,"o":"m 497 897 l 619 897 l 619 833 l 499 833 l 499 550 q 458 429 499 475 q 333 383 418 383 q 300 385 311 383 l 300 451 q 326 450 308 450 q 426 550 426 450 l 426 833 l 174 833 l 174 164 q 310 61 174 61 q 478 88 399 61 l 478 21 q 310 -7 414 -7 q 153 37 206 -7 q 100 163 100 81 l 100 833 l -31 833 l -31 897 l 429 897 q 398 992 429 960 q 272 1025 367 1025 q 126 1073 176 1025 q 76 1215 76 1121 l 146 1215 q 176 1121 146 1153 q 288 1089 207 1089 q 497 897 497 1089 z "},"ए":{"ha":589,"x_min":-31,"x_max":619,"o":"m 317 -7 q 100 172 100 -7 l 100 833 l -31 833 l -31 897 l 619 897 l 619 833 l 499 833 l 499 550 q 458 429 499 475 q 333 383 418 383 q 300 385 311 383 l 300 451 q 326 450 308 450 q 426 550 426 450 l 426 833 l 174 833 l 174 171 q 206 89 174 117 q 321 61 239 61 q 485 88 403 61 l 485 21 q 317 -7 421 -7 z "},"ऐ":{"ha":589,"x_min":-31,"x_max":619,"o":"m 619 897 l 619 833 l 499 833 l 499 550 q 458 429 499 475 q 333 383 418 383 q 300 385 311 383 l 300 451 q 326 450 308 450 q 426 550 426 450 l 426 833 l 174 833 l 174 164 q 310 61 174 61 q 478 88 399 61 l 478 21 q 310 -7 414 -7 q 153 37 206 -7 q 100 163 100 81 l 100 833 l -31 833 l -31 897 l 421 897 l 193 1215 l 275 1215 l 496 897 l 619 897 z "},"ऑ":{"ha":1096,"x_min":89,"x_max":1125,"o":"m 1125 897 l 1125 833 l 989 833 l 989 0 l 915 0 l 915 833 l 701 833 l 701 0 l 629 0 l 629 296 l 456 296 l 456 228 q 401 95 456 143 q 258 47 347 47 q 89 68 168 47 l 89 138 q 246 115 168 115 q 383 228 383 115 l 383 335 q 359 418 383 389 q 261 449 335 447 l 176 449 l 176 517 l 261 517 q 359 547 335 518 q 383 631 383 576 l 383 724 q 246 838 383 838 q 103 811 176 838 l 103 883 q 258 904 168 904 q 401 857 347 904 q 456 725 456 810 l 456 631 q 381 483 456 510 q 454 360 449 456 l 629 360 l 629 897 l 1125 897 m 1022 1154 l 1022 1151 q 972 1029 1022 1064 q 813 994 921 994 q 653 1029 704 994 q 601 1151 601 1064 l 601 1154 l 669 1154 q 701 1078 669 1099 q 812 1058 733 1058 q 922 1078 890 1058 q 954 1154 954 1099 l 1022 1154 z "},"ऒ":{"ha":1096,"x_min":89,"x_max":1125,"o":"m 985 897 l 1125 897 l 1125 833 l 988 833 l 988 0 l 915 0 l 915 833 l 701 833 l 701 0 l 629 0 l 629 296 l 456 296 l 456 228 q 401 95 456 143 q 258 47 347 47 q 89 68 168 47 l 89 138 q 246 115 168 115 q 383 228 383 115 l 383 335 q 359 418 383 389 q 261 449 335 447 l 176 449 l 176 517 l 261 517 q 359 547 335 518 q 383 631 383 576 l 383 724 q 246 838 383 838 q 103 811 176 838 l 103 883 q 258 904 168 904 q 401 857 347 904 q 456 725 456 810 l 456 631 q 381 483 456 510 q 454 360 449 456 l 629 360 l 629 897 l 917 897 q 886 992 917 960 q 760 1025 856 1025 q 615 1073 665 1025 q 565 1215 565 1121 l 633 1215 q 665 1121 633 1153 q 776 1089 696 1089 q 985 897 985 1089 z "},"ओ":{"ha":1096,"x_min":89,"x_max":1125,"o":"m 1125 897 l 1125 833 l 988 833 l 988 0 l 915 0 l 915 833 l 701 833 l 701 0 l 629 0 l 629 296 l 456 296 l 456 228 q 401 95 456 143 q 258 47 347 47 q 89 68 168 47 l 89 138 q 246 115 168 115 q 383 228 383 115 l 383 335 q 359 418 383 389 q 261 449 335 447 l 176 449 l 176 517 l 261 517 q 359 547 335 518 q 383 631 383 576 l 383 724 q 246 838 383 838 q 103 811 176 838 l 103 883 q 258 904 168 904 q 401 857 347 904 q 456 725 456 810 l 456 631 q 381 483 456 510 q 454 360 449 456 l 629 360 l 629 897 l 910 897 l 783 1096 q 692 1150 749 1150 q 656 1149 665 1150 l 656 1213 q 708 1215 675 1215 q 838 1131 781 1215 l 986 897 l 1125 897 z "},"औ":{"ha":1096,"x_min":89,"x_max":1125,"o":"m 1125 897 l 1125 833 l 988 833 l 988 0 l 915 0 l 915 833 l 701 833 l 701 0 l 629 0 l 629 296 l 456 296 l 456 228 q 401 95 456 143 q 258 47 347 47 q 89 68 168 47 l 89 138 q 246 115 168 115 q 383 228 383 115 l 383 335 q 359 418 383 389 q 261 449 335 447 l 176 449 l 176 517 l 261 517 q 359 547 335 518 q 383 631 383 576 l 383 724 q 246 838 383 838 q 103 811 176 838 l 103 883 q 258 904 168 904 q 401 857 347 904 q 456 725 456 810 l 456 631 q 381 483 456 510 q 454 360 449 456 l 629 360 l 629 897 l 789 897 l 660 1096 q 569 1150 625 1150 q 533 1149 543 1150 l 533 1213 q 586 1215 553 1215 q 714 1129 658 1215 l 864 897 l 917 897 l 860 1083 q 836 1135 850 1119 q 801 1150 822 1150 q 760 1147 779 1150 l 760 1213 q 799 1215 782 1215 q 919 1117 890 1215 l 985 897 l 1125 897 z "},"क":{"ha":797,"x_min":-31,"x_max":826,"o":"m 532 174 l 558 172 q 657 274 657 174 l 657 535 q 535 635 657 635 q 439 621 481 635 l 439 0 l 367 0 l 367 113 q 260 99 300 99 q 116 142 165 99 q 67 265 67 185 l 67 533 q 116 657 67 614 q 260 700 165 700 q 301 696 285 700 l 301 631 q 261 633 279 633 q 139 533 139 633 l 139 265 q 261 165 139 165 q 367 179 322 165 l 367 833 l -31 833 l -31 897 l 826 897 l 826 833 l 439 833 l 439 686 q 538 701 481 701 q 681 658 632 701 q 729 535 729 615 l 729 272 q 689 151 729 197 q 564 106 649 106 q 532 107 542 106 l 532 174 z "},"ख":{"ha":1000,"x_min":-31,"x_max":1029,"o":"m 365 732 q 347 833 365 785 l -31 833 l -31 897 l 1029 897 l 1029 833 l 893 833 l 893 0 l 821 0 l 821 196 q 706 182 765 182 q 522 349 522 182 l 522 532 q 706 699 522 699 q 821 686 756 699 l 821 833 l 419 833 q 436 732 436 800 l 436 563 q 238 367 436 367 q 139 376 185 367 l 139 242 q 382 63 139 63 q 578 86 489 63 l 578 15 q 382 -6 476 -6 q 68 242 68 -6 l 68 613 l 139 613 l 139 443 q 236 433 200 433 q 335 467 306 433 q 365 564 365 500 l 365 732 m 821 619 q 703 632 764 632 q 617 607 642 632 q 593 532 593 582 l 593 349 q 617 274 593 299 q 714 249 642 249 q 821 263 786 249 l 821 619 z "},"ग":{"ha":663,"x_min":-31,"x_max":693,"o":"m 693 897 l 693 833 l 556 833 l 556 0 l 483 0 l 483 833 l 257 833 l 257 440 q 215 319 257 365 q 90 272 174 272 q 44 276 61 272 l 44 343 q 83 340 67 340 q 185 440 185 340 l 185 833 l -31 833 l -31 897 l 693 897 z "},"घ":{"ha":681,"x_min":-31,"x_max":711,"o":"m 501 833 l 186 833 q 175 732 175 796 l 175 628 q 200 553 175 578 q 296 528 225 529 l 342 528 l 342 461 l 294 461 q 194 435 222 461 q 167 360 167 410 l 167 292 q 212 187 167 218 q 344 156 257 156 q 501 175 432 156 l 501 833 m 101 732 q 113 833 101 792 l -31 833 l -31 897 l 711 897 l 711 833 l 574 833 l 574 0 l 501 0 l 501 110 q 343 89 418 89 q 160 138 228 89 q 93 290 93 186 l 93 361 q 181 493 93 471 q 101 628 101 521 l 101 732 z "},"ङ":{"ha":597,"x_min":-31,"x_max":628,"o":"m 603 501 q 603 475 603 501 q 553 450 603 450 q 503 501 503 450 q 553 551 503 551 q 603 501 603 551 m 494 235 l 494 165 q 268 -7 494 -7 q 78 14 168 -7 l 78 81 q 268 60 161 60 q 422 165 422 60 l 422 233 q 394 307 422 282 q 296 332 367 332 l 272 332 q 74 496 74 332 l 74 539 q 272 701 74 701 l 382 701 l 382 833 l -31 833 l -31 897 l 628 897 l 628 833 l 454 833 l 454 635 l 272 635 q 175 610 203 635 q 147 538 147 586 l 147 497 q 175 424 147 449 q 272 399 203 399 l 296 399 q 494 235 494 399 z "},"च":{"ha":636,"x_min":-31,"x_max":665,"o":"m 129 475 q 143 601 129 549 l 17 601 l 17 667 l 376 667 l 376 603 l 215 603 q 201 475 201 558 l 201 264 q 231 181 201 208 q 329 154 261 154 q 456 175 397 154 l 456 833 l -31 833 l -31 897 l 665 897 l 665 833 l 528 833 l 528 0 l 456 0 l 456 108 q 329 88 400 88 q 129 263 129 88 l 129 475 z "},"छ":{"ha":693,"x_min":-31,"x_max":722,"o":"m 539 517 q 517 594 539 569 q 445 619 496 619 q 353 608 394 619 l 353 674 q 439 686 390 686 l 439 833 l 182 833 q 168 732 168 796 l 168 549 q 193 474 168 499 q 289 449 218 450 l 357 449 l 357 382 l 289 382 q 189 356 218 382 q 160 281 160 331 l 160 232 q 199 128 160 156 q 350 101 238 101 q 501 129 463 101 q 539 233 539 157 l 539 517 m 96 732 q 110 833 96 792 l -31 833 l -31 897 l 722 897 l 722 833 l 506 833 l 506 676 q 611 519 611 653 l 611 233 q 551 80 611 125 q 350 35 492 35 q 148 80 208 35 q 88 231 88 125 l 88 282 q 174 414 88 392 q 96 549 96 440 l 96 732 z "},"ज":{"ha":756,"x_min":-31,"x_max":786,"o":"m 303 500 q 292 601 303 557 l 136 601 l 136 667 l 576 667 l 576 833 l -31 833 l -31 897 l 786 897 l 786 833 l 649 833 l 649 0 l 576 0 l 576 603 l 365 603 q 376 501 376 568 l 376 238 q 324 105 376 151 q 184 58 272 58 q 42 74 96 58 l 42 143 q 171 125 106 125 q 303 239 303 125 l 303 500 z "},"झ":{"ha":824,"x_min":-31,"x_max":853,"o":"m 643 431 l 643 833 l 458 833 l 458 635 l 268 635 q 170 611 197 635 q 143 539 143 588 l 143 529 q 169 456 143 481 q 265 431 196 432 l 643 431 m 274 365 l 267 365 q 71 529 71 365 l 71 539 q 268 701 71 701 l 386 701 l 386 833 l -31 833 l -31 897 l 853 897 l 853 833 l 715 833 l 715 0 l 643 0 l 643 367 l 425 367 q 468 265 468 340 l 468 199 q 420 74 468 115 q 265 32 372 32 q 143 44 194 32 l 143 -79 l 75 -79 l 75 215 l 143 215 l 143 113 q 263 99 194 99 q 396 200 396 99 l 396 265 q 369 340 396 314 q 274 365 342 365 z "},"ञ":{"ha":790,"x_min":-31,"x_max":819,"o":"m 343 251 l 343 526 q 315 610 343 581 q 220 640 288 640 q 90 617 153 640 l 90 685 q 218 707 142 707 q 415 528 415 707 l 415 419 l 611 419 l 611 833 l -31 833 l -31 897 l 819 897 l 819 833 l 683 833 l 683 0 l 611 0 l 611 356 l 415 356 l 415 250 q 217 69 415 69 q 78 93 143 69 l 78 161 q 217 138 149 138 q 315 167 286 138 q 343 251 343 197 z "},"ट":{"ha":539,"x_min":-31,"x_max":568,"o":"m 153 529 l 153 185 q 307 61 153 61 q 468 86 386 61 l 468 18 q 298 -6 394 -6 q 141 44 201 -6 q 81 185 81 94 l 81 531 q 281 699 81 699 l 371 699 l 371 833 l -31 833 l -31 897 l 568 897 l 568 833 l 443 833 l 443 632 l 282 632 q 153 529 153 632 z "},"ठ":{"ha":558,"x_min":-31,"x_max":589,"o":"m 406 167 l 406 532 q 279 639 406 639 q 153 532 153 639 l 153 167 q 279 60 153 60 q 406 167 406 60 m 478 533 l 478 167 q 428 39 478 85 q 279 -7 378 -7 q 131 39 181 -7 q 81 167 81 85 l 81 533 q 242 704 81 688 l 242 833 l -31 833 l -31 897 l 589 897 l 589 833 l 315 833 l 315 704 q 478 533 478 688 z "},"ड":{"ha":568,"x_min":-31,"x_max":597,"o":"m 494 221 l 494 165 q 268 -7 494 -7 q 81 13 167 -7 l 81 83 q 268 60 163 60 q 422 165 422 60 l 422 221 q 394 294 422 269 q 296 319 367 319 l 272 319 q 74 483 74 319 l 74 539 q 272 701 74 701 l 382 701 l 382 833 l -31 833 l -31 897 l 597 897 l 597 833 l 454 833 l 454 635 l 272 635 q 175 610 203 635 q 147 538 147 586 l 147 485 q 175 411 147 436 q 272 386 203 386 l 296 386 q 494 221 494 386 z "},"ढ":{"ha":560,"x_min":-31,"x_max":589,"o":"m 328 344 q 267 335 306 344 l 267 400 q 331 411 292 411 q 447 369 401 411 q 492 246 492 326 l 492 174 q 286 -7 492 -7 q 131 40 182 -7 q 81 174 81 88 l 81 532 q 279 700 81 700 l 372 700 l 372 833 l -31 833 l -31 897 l 589 897 l 589 833 l 444 833 l 444 632 l 279 632 q 181 606 208 632 q 153 532 153 581 l 153 175 q 182 91 153 121 q 286 61 211 61 q 390 91 361 61 q 419 175 419 121 l 419 246 q 328 344 419 344 z "},"ण":{"ha":839,"x_min":-31,"x_max":868,"o":"m 389 833 l 150 833 l 150 343 q 175 264 150 292 q 269 236 200 236 q 363 264 338 236 q 389 343 389 292 l 389 833 m 461 343 q 269 168 461 168 q 76 343 76 168 l 76 833 l -31 833 l -31 897 l 868 897 l 868 833 l 732 833 l 732 0 l 660 0 l 660 833 l 461 833 l 461 343 z "},"त":{"ha":597,"x_min":-31,"x_max":626,"o":"m 76 525 q 129 654 76 608 q 282 700 182 700 q 417 681 347 700 l 417 833 l -31 833 l -31 897 l 626 897 l 626 833 l 490 833 l 490 0 l 417 0 l 417 614 q 283 633 342 633 q 150 525 150 633 l 150 165 q 178 90 150 115 q 276 67 206 65 l 276 -1 l 250 -1 q 120 42 164 -1 q 76 164 76 86 l 76 525 z "},"थ":{"ha":750,"x_min":68,"x_max":779,"o":"m 571 897 l 779 897 l 779 833 l 643 833 l 643 0 l 571 0 l 571 146 q 347 122 483 122 q 140 184 211 122 q 68 379 68 246 l 68 513 l 181 513 q 317 540 276 513 q 358 650 358 568 l 358 726 q 342 812 358 786 q 265 838 325 838 q 186 811 206 838 q 167 728 167 785 l 174 657 l 101 657 q 94 726 94 697 q 134 860 94 817 q 264 904 174 904 q 390 860 354 904 q 426 726 426 817 l 426 649 q 367 492 426 538 q 183 446 308 446 l 140 446 l 140 379 q 191 232 140 275 q 357 189 242 189 q 571 214 472 189 l 571 897 z "},"द":{"ha":556,"x_min":-31,"x_max":585,"o":"m 64 283 l 64 532 q 263 699 64 699 l 375 699 l 375 833 l -31 833 l -31 897 l 585 897 l 585 833 l 447 833 l 447 632 l 263 632 q 164 606 192 632 q 136 532 136 581 l 136 283 q 278 172 136 172 q 401 186 342 172 l 401 322 l 469 322 l 469 -12 l 401 -12 l 401 118 q 259 106 343 106 q 119 152 175 106 q 64 283 64 199 z "},"ध":{"ha":681,"x_min":-31,"x_max":711,"o":"m 101 732 q 114 833 101 786 l -31 833 l -31 897 l 333 897 l 333 833 l 188 833 q 175 732 175 796 l 175 635 q 200 560 175 585 q 296 535 225 536 l 342 535 l 342 467 l 294 467 q 194 441 222 467 q 167 367 167 415 l 167 289 q 211 186 167 217 q 340 156 256 156 q 501 175 424 156 l 501 897 l 711 897 l 711 833 l 574 833 l 574 0 l 501 0 l 501 108 q 330 88 432 88 q 160 137 228 88 q 93 288 93 186 l 93 367 q 181 500 93 476 q 101 635 101 528 l 101 732 z "},"न":{"ha":786,"x_min":-31,"x_max":817,"o":"m 329 597 l 243 597 q 162 574 185 597 q 139 504 139 551 l 139 247 q 163 176 139 200 q 244 153 186 153 q 324 176 301 153 q 347 247 347 200 l 347 494 q 339 574 347 550 q 329 597 331 597 m 607 597 l 401 597 q 418 496 418 563 l 418 247 q 242 86 418 86 q 67 247 67 86 l 67 504 q 243 663 67 663 l 607 663 l 607 833 l -31 833 l -31 897 l 817 897 l 817 833 l 679 833 l 679 0 l 607 0 l 607 597 z "},"ऩ":{"ha":797,"x_min":-31,"x_max":828,"o":"m 35 -58 q 10 -58 35 -58 q -15 -8 -15 -58 q 35 42 -15 42 q 85 -8 85 42 q 35 -58 85 -58 m 358 494 q 339 597 358 550 l 254 597 q 173 574 196 597 q 150 504 150 551 l 150 247 q 174 176 150 200 q 255 153 197 153 q 335 176 313 153 q 358 247 358 200 l 358 494 m 618 597 l 411 597 q 429 496 429 563 l 429 247 q 253 86 429 86 q 78 247 78 86 l 78 504 q 254 663 78 663 l 618 663 l 618 833 l -31 833 l -31 897 l 828 897 l 828 833 l 690 833 l 690 0 l 618 0 l 618 597 z "},"प":{"ha":586,"x_min":-31,"x_max":615,"o":"m 407 833 l 150 833 l 150 353 q 283 247 150 247 q 407 267 354 247 l 407 833 m 407 0 l 407 200 q 267 181 353 181 q 129 226 182 181 q 76 353 76 271 l 76 833 l -31 833 l -31 897 l 615 897 l 615 833 l 479 833 l 479 0 l 407 0 z "},"फ":{"ha":825,"x_min":-31,"x_max":856,"o":"m 389 833 l 150 833 l 150 342 q 285 235 150 235 q 389 249 340 235 l 389 833 m 389 0 l 389 183 q 282 168 332 168 q 130 213 182 168 q 78 340 78 258 l 78 833 l -31 833 l -31 897 l 856 897 l 856 833 l 458 833 l 458 678 q 568 694 511 694 q 710 649 661 694 q 758 528 758 604 l 758 257 q 714 136 758 181 q 585 92 669 92 l 560 93 l 560 160 q 657 184 629 158 q 685 258 685 210 l 685 526 q 659 601 685 576 q 567 626 633 626 q 458 611 510 626 l 458 0 l 389 0 z "},"ब":{"ha":572,"x_min":-31,"x_max":601,"o":"m -31 897 l 601 897 l 601 833 l 465 833 l 465 0 l 397 0 l 397 119 q 262 100 349 100 q 121 145 175 100 q 67 274 67 190 l 67 529 q 120 657 67 613 q 261 701 174 701 q 397 682 349 701 l 397 833 l -31 833 l -31 897 m 276 636 q 140 546 150 636 l 397 346 l 397 617 q 276 636 349 636 m 139 274 q 276 167 139 167 q 397 185 353 167 l 397 276 l 139 476 l 139 274 z "},"भ":{"ha":801,"x_min":68,"x_max":831,"o":"m 358 542 l 358 736 q 337 812 358 788 q 253 836 315 836 q 170 811 192 836 q 149 736 149 786 l 154 661 l 81 661 q 75 738 75 703 q 253 904 75 904 q 431 738 431 904 l 431 542 l 622 542 l 622 897 l 831 897 l 831 833 l 694 833 l 694 0 l 622 0 l 622 478 l 431 478 l 431 246 q 388 126 431 165 q 249 86 344 86 q 111 126 154 86 q 68 246 68 165 l 68 383 q 111 503 68 464 q 249 542 154 542 l 358 542 m 358 247 l 358 478 l 249 478 q 162 456 183 478 q 140 383 140 433 l 140 247 q 162 175 140 197 q 249 153 183 153 q 337 175 315 153 q 358 247 358 197 z "},"म":{"ha":779,"x_min":-31,"x_max":810,"o":"m 600 0 l 600 531 l 410 531 l 410 247 q 367 126 410 165 q 228 86 324 86 q 90 126 133 86 q 47 247 47 165 l 47 436 q 90 556 47 518 q 229 594 133 594 l 338 594 l 338 833 l -31 833 l -31 897 l 810 897 l 810 833 l 672 833 l 672 0 l 600 0 m 410 594 l 600 594 l 600 833 l 410 833 l 410 594 m 338 247 l 338 531 l 229 531 q 142 508 164 531 q 119 436 119 485 l 119 247 q 142 176 119 199 q 229 153 164 153 q 316 175 294 153 q 338 247 338 197 z "},"य":{"ha":686,"x_min":-31,"x_max":715,"o":"m 264 732 q 253 833 264 789 l -31 833 l -31 897 l 715 897 l 715 833 l 579 833 l 579 0 l 506 0 l 506 135 q 346 118 429 118 q 81 353 81 118 l 81 531 l 108 531 q 231 551 199 531 q 264 633 264 572 l 264 732 m 336 732 l 336 631 q 153 468 336 468 l 153 356 q 199 227 153 268 q 338 186 246 186 q 506 201 429 186 l 506 833 l 325 833 q 336 732 336 800 z "},"र":{"ha":572,"x_min":-31,"x_max":603,"o":"m 413 732 q 401 833 413 789 l -31 833 l -31 897 l 603 897 l 603 833 l 474 833 q 485 732 485 800 l 485 533 q 435 406 485 451 q 289 361 386 361 q 160 382 226 361 l 160 189 q 319 60 160 60 q 492 83 388 60 l 492 15 q 309 -7 407 -7 q 149 42 211 -7 q 88 189 88 92 l 88 625 l 160 625 l 160 449 q 286 428 232 428 q 413 535 413 428 l 413 732 z "},"ऱ":{"ha":574,"x_min":-31,"x_max":603,"o":"m 413 732 q 401 833 413 789 l -31 833 l -31 897 l 603 897 l 603 833 l 475 833 q 486 732 486 800 l 486 533 q 437 406 486 451 q 289 361 388 361 q 161 382 228 361 l 161 189 q 321 60 161 60 q 493 83 385 60 l 493 15 q 310 -7 408 -7 q 151 42 213 -7 q 89 189 89 92 l 89 625 l 161 625 l 161 449 q 294 428 233 428 q 413 535 413 428 l 413 732 m 74 -76 q 74 -101 74 -76 q 24 -126 74 -126 q -26 -76 -26 -126 q 24 -25 -26 -25 q 74 -76 74 -25 z "},"ल":{"ha":851,"x_min":-31,"x_max":882,"o":"m 74 207 l 74 489 q 120 617 74 571 q 266 663 167 663 q 408 601 365 663 q 564 663 454 663 q 672 642 621 663 l 672 833 l -31 833 l -31 897 l 882 897 l 882 833 l 744 833 l 744 0 l 672 0 l 672 575 q 565 596 626 596 q 446 493 446 596 l 446 286 l 374 286 l 374 493 q 260 596 374 596 q 172 568 196 596 q 147 489 147 540 l 147 207 q 179 102 147 139 q 296 65 211 65 q 375 72 331 65 l 375 7 q 294 0 338 0 q 74 207 74 0 z "},"ळ":{"ha":817,"x_min":-31,"x_max":846,"o":"m 443 501 l 443 165 q 561 56 443 56 q 649 85 626 56 q 672 165 672 114 l 672 501 q 649 583 672 554 q 561 611 625 611 q 443 501 443 611 m 144 501 l 144 165 q 168 85 144 114 q 256 56 192 56 q 374 165 374 56 l 374 501 q 257 611 374 611 q 169 583 193 611 q 144 501 144 554 m 742 503 l 742 165 q 563 -7 742 -7 q 408 67 444 -7 q 256 -7 372 -7 q 74 165 74 -7 l 74 503 q 257 675 74 675 q 408 600 371 675 q 522 671 439 661 l 522 833 l -31 833 l -31 897 l 846 897 l 846 833 l 594 833 l 594 672 q 742 503 742 657 z "},"ऴ":{"ha":817,"x_min":-31,"x_max":846,"o":"m 408 -193 q 383 -193 408 -193 q 358 -143 358 -193 q 408 -93 358 -93 q 458 -143 458 -93 q 408 -193 458 -193 m 443 501 l 443 165 q 561 56 443 56 q 649 85 626 56 q 672 165 672 114 l 672 501 q 649 583 672 554 q 561 611 625 611 q 443 501 443 611 m 144 501 l 144 165 q 168 85 144 114 q 256 56 192 56 q 374 165 374 56 l 374 501 q 257 611 374 611 q 169 583 193 611 q 144 501 144 554 m 742 503 l 742 165 q 563 -7 742 -7 q 408 67 444 -7 q 256 -7 372 -7 q 74 165 74 -7 l 74 503 q 257 675 74 675 q 408 600 371 675 q 522 671 439 661 l 522 833 l -31 833 l -31 897 l 846 897 l 846 833 l 594 833 l 594 672 q 742 503 742 657 z "},"व":{"ha":586,"x_min":-31,"x_max":617,"o":"m 275 635 q 140 524 140 635 l 140 278 q 275 167 140 167 q 407 186 364 167 l 407 617 q 275 635 367 635 m 407 833 l -31 833 l -31 897 l 617 897 l 617 833 l 479 833 l 479 0 l 407 0 l 407 119 q 265 100 358 100 q 120 147 172 100 q 68 278 68 193 l 68 525 q 121 654 68 607 q 267 701 174 701 q 407 683 361 701 l 407 833 z "},"श":{"ha":821,"x_min":94,"x_max":851,"o":"m 97 690 l 94 731 q 144 858 94 813 q 293 904 194 904 q 442 858 392 904 q 492 731 492 813 l 492 531 q 442 403 492 449 q 310 358 393 358 q 167 379 226 358 l 167 192 q 210 94 167 128 q 330 61 254 61 q 489 85 406 61 l 489 17 q 319 -6 415 -6 q 159 46 224 -6 q 94 190 94 97 l 94 561 l 167 561 l 167 446 q 293 425 232 425 q 418 532 418 425 l 418 731 q 292 836 418 836 q 167 729 167 836 l 169 689 q 171 678 169 685 l 99 678 q 97 690 97 685 m 642 897 l 851 897 l 851 833 l 714 833 l 714 0 l 642 0 l 642 897 z "},"ष":{"ha":599,"x_min":-31,"x_max":629,"o":"m -31 897 l 629 897 l 629 833 l 492 833 l 492 0 l 422 0 l 422 182 q 274 160 361 160 q 131 206 186 160 q 76 332 76 251 l 76 833 l -31 833 l -31 897 m 422 833 l 150 833 l 150 710 l 422 453 l 422 833 m 150 332 q 184 255 150 283 q 285 226 218 226 q 422 250 351 226 l 422 374 l 150 629 l 150 332 z "},"स":{"ha":825,"x_min":-31,"x_max":854,"o":"m 385 732 q 374 833 385 789 l -31 833 l -31 897 l 854 897 l 854 833 l 718 833 l 718 0 l 646 0 l 646 408 l 413 408 q 261 358 363 358 q 160 372 211 358 l 160 189 q 319 60 160 60 q 490 83 386 60 l 490 15 q 308 -7 406 -7 q 149 42 211 -7 q 88 189 88 92 l 88 625 l 160 625 l 160 439 q 260 425 208 425 q 385 532 385 425 l 385 732 m 646 472 l 646 833 l 446 833 q 457 732 457 800 l 457 532 q 450 472 457 503 l 646 472 z "},"ह":{"ha":576,"x_min":-31,"x_max":606,"o":"m 69 178 l 69 263 q 147 392 69 358 q 74 521 74 425 l 74 539 q 267 700 74 700 l 397 700 l 397 833 l -31 833 l -31 897 l 606 897 l 606 833 l 469 833 l 469 633 l 267 633 q 172 610 197 633 q 146 538 146 586 l 146 521 q 173 449 146 472 q 271 425 200 425 l 331 425 q 463 385 421 425 q 504 265 504 346 l 504 222 l 433 222 l 433 264 q 414 337 433 314 q 329 360 394 360 l 275 360 q 172 335 203 360 q 142 263 142 311 l 142 178 q 314 60 142 60 q 483 81 415 60 l 483 15 q 311 -7 428 -7 q 132 42 194 -7 q 69 178 69 90 z "},"़":{"ha":0,"x_min":-333,"x_max":-233,"o":"m -283 -168 q -308 -168 -283 -168 q -333 -118 -333 -168 q -283 -68 -333 -68 q -233 -118 -233 -68 q -283 -168 -233 -168 z "},"ऽ":{"ha":583,"x_min":81,"x_max":529,"o":"m 529 281 l 529 181 q 310 -7 529 -7 l 304 -7 q 85 181 85 -7 l 85 276 l 157 276 l 157 181 q 188 92 157 124 q 306 61 218 61 l 308 61 q 426 92 396 61 q 457 181 457 124 l 457 281 q 442 355 457 325 q 383 408 426 385 l 194 510 q 81 699 81 571 l 81 736 q 125 857 81 817 q 275 897 169 897 l 497 897 l 497 829 l 276 829 q 176 806 200 829 q 153 736 153 783 l 153 700 q 168 626 153 656 q 226 574 183 596 l 415 471 q 504 392 479 438 q 529 281 529 347 z "},"ा":{"ha":286,"x_min":-31,"x_max":317,"o":"m 107 833 l -31 833 l -31 897 l 317 897 l 317 833 l 179 833 l 179 0 l 107 0 l 107 833 z "},"ि":{"ha":286,"x_min":-31,"x_max":765,"o":"m 107 897 l 107 958 q 187 1156 107 1097 q 414 1215 267 1215 q 591 1195 503 1215 q 722 1154 679 1175 l 765 1133 l 765 1067 q 604 1122 711 1096 q 414 1149 497 1149 q 235 1101 290 1149 q 181 958 181 1054 l 181 897 l 317 897 l 317 833 l 179 833 l 179 0 l 107 0 l 107 833 l -31 833 l -31 897 l 107 897 z "},"ी":{"ha":286,"x_min":-167,"x_max":317,"o":"m 107 897 l 107 1054 q 85 1126 107 1103 q 6 1149 64 1149 q -73 1126 -51 1149 q -94 1054 -94 1103 l -94 992 l -167 992 l -167 1056 q 6 1217 -167 1217 q 179 1056 179 1217 l 179 897 l 317 897 l 317 833 l 179 833 l 179 0 l 107 0 l 107 833 l -31 833 l -31 897 l 107 897 z "},"ु":{"ha":0,"x_min":-518,"x_max":51,"o":"m -218 -231 l -112 -231 q -36 -210 -53 -231 q -19 -146 -19 -190 q -39 -81 -19 -101 q -103 -60 -58 -60 q -254 -79 -182 -60 l -254 -14 q -110 6 -193 6 q 13 -31 -26 6 q 51 -145 51 -67 q 15 -260 51 -224 q -110 -296 -22 -296 l -219 -296 q -378 -229 -312 -296 l -518 -87 l -418 -87 l -329 -179 q -218 -231 -276 -231 z "},"ू":{"ha":0,"x_min":-329,"x_max":238,"o":"m -258 -145 q -258 -168 -258 -145 q -240 -211 -258 -190 q -165 -232 -222 -232 q -44 -211 -107 -232 l -44 -276 q -181 -297 -107 -297 q -292 -261 -254 -297 q -329 -146 -329 -225 q -292 -31 -329 -67 q -167 6 -254 6 l -125 6 q -17 -15 -57 6 q 60 -78 24 -35 l 238 -294 l 146 -294 l 18 -139 q -48 -76 -21 -93 q -126 -60 -75 -60 l -164 -60 q -241 -80 -224 -60 q -258 -145 -258 -100 z "},"ृ":{"ha":0,"x_min":-390,"x_max":-104,"o":"m -214 51 q -111 39 -171 51 l -111 -26 q -199 -14 -158 -14 q -257 -17 -240 -14 q -289 -31 -274 -19 q -321 -119 -321 -50 q -294 -211 -321 -189 q -228 -233 -267 -233 q -104 -221 -157 -233 l -104 -286 q -226 -299 -151 -299 q -345 -258 -300 -299 q -390 -121 -390 -217 q -346 13 -390 -25 q -214 51 -301 51 z "},"ॄ":{"ha":0,"x_min":-390,"x_max":-93,"o":"m -221 51 q -111 39 -174 51 l -111 -25 q -216 -12 -161 -12 q -294 -36 -271 -12 q -318 -112 -318 -60 l -318 -117 q -294 -186 -317 -168 q -222 -204 -271 -204 l -135 -204 l -135 -271 l -212 -271 q -294 -294 -271 -271 q -318 -368 -318 -317 l -318 -374 q -295 -444 -318 -426 q -204 -462 -272 -462 q -93 -454 -136 -462 l -93 -518 q -222 -526 -136 -526 q -390 -369 -390 -526 q -336 -239 -390 -278 q -390 -112 -390 -201 q -221 51 -390 51 z "},"ॅ":{"ha":0,"x_min":-354,"x_max":67,"o":"m -1 1147 l 67 1147 l 67 1144 q 15 1023 67 1058 q -144 988 -37 988 q -303 1023 -251 988 q -354 1144 -354 1058 l -354 1147 l -286 1147 q -254 1072 -286 1092 q -144 1051 -222 1051 q -34 1072 -67 1051 q -1 1147 -1 1092 z "},"ॆ":{"ha":0,"x_min":-528,"x_max":-107,"o":"m -175 897 q -206 992 -175 960 q -333 1025 -237 1025 q -478 1073 -428 1025 q -528 1215 -528 1121 l -458 1215 q -428 1121 -458 1153 q -317 1089 -397 1089 q -107 897 -107 1089 l -175 897 z "},"े":{"ha":0,"x_min":-439,"x_max":-107,"o":"m -439 1213 q -383 1215 -417 1215 q -257 1131 -311 1215 l -107 897 l -183 897 l -311 1096 q -403 1150 -344 1150 q -439 1149 -429 1150 l -439 1213 z "},"ै":{"ha":0,"x_min":-560,"x_max":-107,"o":"m -293 1215 q -174 1117 -201 1215 l -107 897 l -175 897 l -232 1083 q -256 1135 -242 1119 q -291 1150 -269 1150 q -332 1147 -312 1150 l -332 1213 q -293 1215 -312 1215 m -560 1213 q -506 1215 -537 1215 q -378 1129 -433 1215 l -228 897 l -303 897 l -432 1096 q -524 1150 -467 1150 q -560 1149 -549 1150 l -560 1213 z "},"ॉ":{"ha":286,"x_min":-67,"x_max":356,"o":"m 286 1154 l 356 1154 l 356 1151 q 304 1029 356 1064 q 145 994 253 994 q -15 1029 38 994 q -67 1151 -67 1064 l -67 1154 l 3 1154 q 35 1078 3 1099 q 144 1058 67 1058 q 254 1078 222 1058 q 286 1154 286 1099 m 107 833 l -31 833 l -31 897 l 317 897 l 317 833 l 179 833 l 179 0 l 107 0 l 107 833 z "},"ॊ":{"ha":286,"x_min":-243,"x_max":317,"o":"m 107 833 l -31 833 l -31 897 l 108 897 q 78 992 108 960 q -48 1025 47 1025 q -193 1073 -143 1025 q -243 1215 -243 1121 l -175 1215 q -144 1121 -175 1153 q -32 1089 -112 1089 q 176 897 176 1089 l 317 897 l 317 833 l 179 833 l 179 0 l 107 0 l 107 833 z "},"ो":{"ha":286,"x_min":-153,"x_max":317,"o":"m 317 897 l 317 833 l 179 833 l 179 0 l 107 0 l 107 833 l -31 833 l -31 897 l 101 897 l -25 1096 q -117 1150 -60 1150 q -153 1149 -143 1150 l -153 1213 q -100 1215 -133 1215 q 29 1131 -28 1215 l 178 897 l 317 897 z "},"ौ":{"ha":286,"x_min":-275,"x_max":317,"o":"m 317 897 l 317 833 l 179 833 l 179 0 l 107 0 l 107 833 l -79 833 l -79 897 l -19 897 l -149 1096 q -239 1150 -183 1150 q -275 1149 -265 1150 l -275 1213 q -222 1215 -256 1215 q -94 1129 -150 1215 l 56 897 l 108 897 l 51 1083 q 28 1135 42 1119 q -8 1150 14 1150 q -49 1147 -29 1150 l -49 1213 q -10 1215 -26 1215 q 111 1117 82 1215 l 176 897 l 317 897 z "},"्":{"ha":0,"x_min":-175,"x_max":35,"o":"m 35 -283 l -47 -283 l -175 -81 l -107 -81 l 35 -283 z "},"ॐ":{"ha":1060,"x_min":67,"x_max":999,"o":"m 608 332 l 608 731 q 657 858 608 813 q 804 904 706 904 q 999 731 999 904 l 999 200 q 941 46 999 99 q 751 -7 883 -7 q 640 3 694 -7 l 640 72 q 751 63 697 63 q 890 97 854 63 q 926 201 926 132 l 926 731 q 900 808 926 781 q 804 836 874 836 q 708 808 735 836 q 681 731 681 781 l 681 296 q 646 268 681 268 l 435 268 l 435 172 q 380 40 433 88 q 237 -7 326 -7 q 67 14 147 -7 l 67 83 q 225 60 153 60 q 363 174 363 60 l 363 308 q 338 392 363 363 q 239 422 313 421 l 156 422 l 156 490 l 239 490 q 338 521 313 492 q 363 604 363 550 l 363 724 q 225 838 363 838 q 82 811 156 838 l 82 883 q 237 904 147 904 q 381 857 326 904 q 435 725 435 810 l 435 604 q 360 457 435 483 q 433 332 428 429 l 608 332 m 738 1119 l 738 1117 q 685 995 738 1031 q 526 960 633 960 q 368 995 419 960 q 317 1117 317 1031 l 317 1119 l 385 1119 q 417 1044 385 1064 q 527 1024 449 1024 q 638 1044 606 1024 q 669 1119 669 1065 l 738 1119 m 527 1211 q 552 1211 527 1211 q 576 1161 576 1211 q 527 1111 576 1111 q 478 1161 478 1111 q 527 1211 478 1211 z "},"॑":{"ha":0,"x_min":-179,"x_max":-107,"o":"m -179 1285 l -107 1285 l -107 963 l -179 963 l -179 1285 z "},"॒":{"ha":0,"x_min":-544,"x_max":-15,"o":"m -15 -174 l -544 -174 l -544 -110 l -15 -110 l -15 -174 z "},"॓":{"ha":468,"x_min":99,"x_max":318,"o":"m 99 1285 l 176 1285 l 318 963 l 240 963 l 99 1285 z "},"॔":{"ha":456,"x_min":99,"x_max":318,"o":"m 240 1285 l 318 1285 l 176 963 l 99 963 l 240 1285 z "},"क़":{"ha":803,"x_min":-24,"x_max":833,"o":"m 154 -60 q 129 -60 154 -60 q 104 -10 104 -60 q 154 40 104 40 q 204 -10 204 40 q 154 -60 204 -60 m 539 174 l 565 172 q 664 274 664 174 l 664 535 q 542 635 664 635 q 446 621 488 635 l 446 0 l 374 0 l 374 113 q 267 99 308 99 q 123 142 172 99 q 74 265 74 185 l 74 533 q 123 657 74 614 q 267 700 172 700 q 308 696 292 700 l 308 631 q 268 633 286 633 q 146 533 146 633 l 146 265 q 268 165 146 165 q 374 179 329 165 l 374 833 l -24 833 l -24 897 l 833 897 l 833 833 l 446 833 l 446 686 q 544 701 488 701 q 688 658 639 701 q 736 535 736 615 l 736 272 q 696 151 736 197 q 571 106 656 106 q 539 107 549 106 l 539 174 z "},"ख़":{"ha":1000,"x_min":-31,"x_max":1031,"o":"m 365 732 q 349 833 365 789 l -31 833 l -31 897 l 1031 897 l 1031 833 l 893 833 l 893 0 l 821 0 l 821 196 q 707 182 765 182 q 524 349 524 182 l 524 532 q 706 699 524 699 q 821 686 756 699 l 821 833 l 419 833 q 438 732 438 800 l 438 563 q 239 367 438 367 q 140 376 186 367 l 140 242 q 382 63 140 63 q 578 86 489 63 l 578 15 q 382 -6 476 -6 q 68 242 68 -6 l 68 613 l 140 613 l 140 443 q 238 433 201 433 q 336 466 307 433 q 365 564 365 499 l 365 732 m 821 619 q 703 632 764 632 q 618 607 642 632 q 594 532 594 582 l 594 349 q 618 274 594 299 q 714 249 642 249 q 821 263 786 249 l 821 619 m -4 -88 q -4 -63 -4 -88 q 47 -37 -4 -37 q 97 -88 97 -37 q 47 -139 97 -139 q -4 -88 -4 -139 z "},"ग़":{"ha":664,"x_min":-29,"x_max":694,"o":"m 694 897 l 694 833 l 557 833 l 557 0 l 485 0 l 485 833 l 258 833 l 258 440 q 217 319 258 365 q 92 272 175 272 q 46 276 63 272 l 46 343 q 85 340 68 340 q 186 440 186 340 l 186 833 l -29 833 l -29 897 l 694 897 m 90 93 q 90 118 90 93 q 140 143 90 143 q 190 93 190 143 q 140 43 190 43 q 90 93 90 43 z "},"ज़":{"ha":756,"x_min":-31,"x_max":786,"o":"m 303 500 q 292 601 303 557 l 136 601 l 136 667 l 576 667 l 576 833 l -31 833 l -31 897 l 786 897 l 786 833 l 649 833 l 649 0 l 576 0 l 576 603 l 365 603 q 376 501 376 568 l 376 238 q 324 105 376 151 q 184 58 272 58 q 42 74 96 58 l 42 143 q 171 125 106 125 q 303 239 303 125 l 303 500 m 48 -112 q 23 -112 48 -112 q -3 -62 -3 -112 q 48 -11 -3 -11 q 99 -62 99 -11 q 48 -112 99 -112 z "},"ड़":{"ha":568,"x_min":-31,"x_max":597,"o":"m 494 221 l 494 165 q 268 -7 494 -7 q 81 13 167 -7 l 81 83 q 268 60 163 60 q 422 165 422 60 l 422 221 q 394 294 422 269 q 296 319 367 319 l 272 319 q 74 483 74 319 l 74 539 q 272 701 74 701 l 382 701 l 382 833 l -31 833 l -31 897 l 597 897 l 597 833 l 454 833 l 454 635 l 272 635 q 175 610 203 635 q 147 538 147 586 l 147 485 q 175 411 147 436 q 272 386 203 386 l 296 386 q 494 221 494 386 m 284 -233 q 259 -233 284 -233 q 233 -183 233 -233 q 284 -132 233 -132 q 335 -183 335 -132 q 284 -233 335 -233 z "},"ढ़":{"ha":560,"x_min":-31,"x_max":589,"o":"m 285 -232 q 260 -232 285 -232 q 235 -182 235 -232 q 285 -132 235 -132 q 335 -182 335 -132 q 285 -232 335 -232 m 328 344 q 267 333 292 344 l 267 400 q 335 411 294 411 q 449 369 406 411 q 492 246 492 328 l 492 174 q 286 -7 492 -7 q 131 40 182 -7 q 81 174 81 88 l 81 532 q 279 700 81 700 l 372 700 l 372 833 l -31 833 l -31 897 l 589 897 l 589 833 l 444 833 l 444 632 l 279 632 q 181 606 208 632 q 153 532 153 581 l 153 175 q 182 91 153 121 q 286 61 211 61 q 390 91 361 61 q 419 175 419 121 l 419 246 q 328 344 419 344 z "},"फ़":{"ha":825,"x_min":-31,"x_max":856,"o":"m 389 833 l 150 833 l 150 342 q 285 235 150 235 q 389 249 340 235 l 389 833 m 389 0 l 389 183 q 282 168 332 168 q 130 213 182 168 q 78 340 78 258 l 78 833 l -31 833 l -31 897 l 856 897 l 856 833 l 458 833 l 458 678 q 568 694 511 694 q 710 649 661 694 q 758 528 758 604 l 758 257 q 714 136 758 181 q 585 92 669 92 l 560 93 l 560 160 q 657 184 629 158 q 685 258 685 210 l 685 526 q 659 601 685 576 q 567 626 633 626 q 458 611 510 626 l 458 0 l 389 0 m 106 -29 q 81 -29 106 -29 q 56 21 56 -29 q 106 71 56 71 q 157 21 157 71 q 106 -29 157 -29 z "},"य़":{"ha":686,"x_min":-31,"x_max":717,"o":"m 265 732 q 254 833 265 789 l -31 833 l -31 897 l 717 897 l 717 833 l 579 833 l 579 0 l 507 0 l 507 135 q 347 118 426 118 q 81 353 81 118 l 81 531 l 110 531 q 232 551 199 531 q 265 633 265 572 l 265 732 m 338 732 l 338 631 q 153 468 338 468 l 153 356 q 199 227 153 268 q 337 186 246 186 q 507 201 428 186 l 507 833 l 326 833 q 338 732 338 800 m 133 -57 q 108 -57 133 -57 q 83 -7 83 -57 q 133 43 83 43 q 183 -7 183 43 q 133 -57 183 -57 z "},"ॠ":{"ha":926,"x_min":-31,"x_max":956,"o":"m 956 833 l 507 833 l 507 581 l 675 581 q 777 608 747 581 q 807 690 807 636 l 807 703 l 878 703 l 878 369 l 819 369 q 735 347 761 369 q 710 263 710 324 q 836 164 710 164 l 858 164 l 858 99 l 813 99 q 717 56 732 99 q 710 -9 710 36 q 735 -72 710 -54 q 814 -89 760 -89 l 921 -89 l 921 -153 l 813 -153 q 681 -117 725 -153 q 638 9 638 -82 q 696 136 638 100 q 638 265 638 176 q 678 391 638 354 q 808 429 719 428 l 808 560 q 674 513 768 513 l 507 513 l 507 0 l 435 0 l 435 186 l 436 372 l 436 374 q 343 275 433 365 l 150 76 l 53 76 l 435 469 l 435 500 q 401 593 435 563 q 285 624 367 624 q 169 592 203 624 q 136 501 136 561 l 136 421 l 64 421 l 64 503 q 282 692 64 692 q 435 642 392 692 l 435 833 l -31 833 l -31 897 l 956 897 l 956 833 z "},"ॡ":{"ha":851,"x_min":-31,"x_max":882,"o":"m 744 286 l 674 286 q 592 263 615 286 q 568 186 568 240 q 591 114 568 132 q 664 96 614 96 l 721 96 l 721 28 l 674 28 q 592 5 615 28 q 568 -72 568 -18 q 592 -145 568 -126 q 687 -164 615 -164 q 763 -162 758 -164 l 763 -228 l 664 -228 q 496 -72 496 -228 q 550 60 496 21 q 496 188 496 94 q 667 350 496 350 l 672 350 l 672 492 q 648 569 672 542 q 560 596 624 596 q 446 493 446 596 l 446 369 l 374 369 l 374 493 q 260 596 374 596 q 172 568 196 596 q 147 489 147 540 l 147 207 q 179 102 147 139 q 296 65 211 65 l 346 65 l 346 0 l 294 0 q 74 207 74 0 l 74 489 q 120 617 74 571 q 266 663 167 663 q 408 601 365 663 q 547 663 454 663 q 672 625 639 663 l 672 833 l -31 833 l -31 897 l 882 897 l 882 833 l 744 833 l 744 286 z "},"।":{"ha":388,"x_min":207,"x_max":279,"o":"m 207 0 l 207 897 l 279 897 l 279 0 l 207 0 z "},"॥":{"ha":621,"x_min":171,"x_max":514,"o":"m 440 0 l 440 897 l 514 897 l 514 0 l 440 0 m 171 0 l 171 897 l 244 897 l 244 0 l 171 0 z "},"०":{"ha":614,"x_min":88,"x_max":526,"o":"m 447 726 q 307 869 447 869 q 167 726 167 869 l 167 201 q 307 58 167 58 q 447 201 447 58 l 447 726 m 88 726 q 142 883 88 824 q 307 942 196 942 q 472 883 418 942 q 526 726 526 824 l 526 201 q 472 45 526 104 q 307 -14 418 -14 q 142 45 196 -14 q 88 201 88 104 l 88 726 z "},"१":{"ha":375,"x_min":14,"x_max":274,"o":"m 274 928 l 274 0 l 194 0 l 194 853 l 14 722 l 14 814 l 174 928 l 274 928 z "},"२":{"ha":547,"x_min":61,"x_max":485,"o":"m 243 935 q 479 744 479 935 l 479 664 q 455 538 478 583 q 369 451 432 492 l 265 379 q 168 297 194 332 q 142 196 142 261 l 142 75 l 485 75 l 485 0 l 61 0 l 61 197 q 98 336 61 286 q 217 440 135 386 l 322 513 q 383 575 367 540 q 399 667 399 610 l 399 742 q 367 831 399 801 q 244 861 335 861 q 76 833 153 861 l 76 913 q 243 935 143 935 z "},"३":{"ha":539,"x_min":36,"x_max":451,"o":"m 211 935 q 446 740 446 935 l 446 644 q 343 465 446 508 q 451 292 451 426 l 451 189 q 392 44 451 96 q 218 -7 332 -7 q 36 18 104 -7 l 36 97 q 210 67 119 67 q 335 98 300 67 q 371 190 371 129 l 371 286 q 231 428 371 428 l 139 428 l 139 501 l 231 501 q 335 538 306 501 q 365 644 365 575 l 365 739 q 332 831 365 800 q 210 861 299 861 q 53 839 122 861 l 53 915 q 211 935 117 935 z "},"४":{"ha":550,"x_min":14,"x_max":543,"o":"m 543 249 l 543 176 l 447 176 l 447 0 l 368 0 l 368 176 l 14 176 l 14 249 l 315 928 l 447 928 l 447 249 l 543 249 m 368 249 l 368 868 l 93 249 l 368 249 z "},"५":{"ha":576,"x_min":83,"x_max":499,"o":"m 89 928 l 478 928 l 478 854 l 169 854 l 169 538 q 290 546 236 546 q 499 338 499 546 l 499 188 q 438 44 499 96 q 272 -7 376 -7 q 83 21 167 -7 l 83 101 q 260 67 176 67 q 418 189 418 67 l 418 336 q 389 437 418 404 q 285 469 360 469 q 89 453 243 469 l 89 928 z "},"६":{"ha":594,"x_min":88,"x_max":526,"o":"m 447 378 q 317 501 447 501 q 167 464 231 501 l 167 201 q 307 58 167 58 q 447 201 447 58 l 447 378 m 88 722 q 146 876 88 818 q 315 935 204 935 q 496 911 425 935 l 496 835 q 326 861 421 861 q 167 721 167 861 l 167 542 q 326 574 233 574 q 472 524 418 574 q 526 379 526 475 l 526 201 q 472 45 526 104 q 307 -14 418 -14 q 142 45 196 -14 q 88 201 88 104 l 88 722 z "},"७":{"ha":443,"x_min":7,"x_max":408,"o":"m 7 928 l 408 928 l 408 865 l 321 586 q 258 347 276 442 q 239 136 239 253 l 239 0 l 157 0 l 157 138 q 176 351 157 257 q 242 589 196 446 l 325 856 l 7 856 l 7 928 z "},"८":{"ha":628,"x_min":88,"x_max":540,"o":"m 536 732 l 536 642 q 431 463 536 507 q 540 282 540 418 l 540 196 q 483 43 540 100 q 314 -14 426 -14 q 144 43 201 -14 q 88 196 88 100 l 88 282 q 197 463 88 418 q 90 642 90 507 l 90 732 q 146 885 90 828 q 314 942 201 942 q 481 885 426 942 q 536 732 536 828 m 171 732 l 171 640 q 314 497 171 497 q 457 640 457 497 l 457 732 q 314 871 457 871 q 171 732 171 871 m 461 196 l 461 283 q 314 426 461 426 q 167 283 167 426 l 167 196 q 314 57 167 57 q 461 196 461 57 z "},"९":{"ha":594,"x_min":67,"x_max":507,"o":"m 428 726 q 288 869 428 869 q 147 726 147 869 l 147 547 q 281 417 147 417 q 428 451 372 417 l 428 726 m 67 726 q 122 883 67 824 q 288 942 176 942 q 453 883 399 942 q 507 726 507 824 l 507 201 q 447 50 507 107 q 278 -7 386 -7 q 92 19 171 -7 l 92 97 q 265 67 178 67 q 428 204 428 67 l 428 374 q 273 343 368 343 q 122 397 178 343 q 67 546 67 450 l 67 726 z "},"॰":{"ha":499,"x_min":75,"x_max":432,"o":"m 253 592 q 220 592 253 592 q 163 558 186 592 q 139 463 139 525 q 163 369 139 401 q 253 336 186 336 q 344 369 321 336 q 368 463 368 401 q 344 558 368 525 q 253 592 321 592 m 253 274 q 164 274 253 274 q 75 465 75 274 q 253 656 75 656 q 432 465 432 656 q 253 274 432 274 z "},"ॲ":{"ha":769,"x_min":50,"x_max":838,"o":"m 769 1147 l 838 1147 l 838 1144 q 785 1023 838 1058 q 626 988 733 988 q 468 1023 519 988 q 417 1144 417 1058 l 417 1147 l 485 1147 q 517 1072 485 1092 q 626 1051 549 1051 q 737 1072 704 1051 q 769 1147 769 1092 m 590 360 l 590 897 l 800 897 l 800 833 l 663 833 l 663 0 l 590 0 l 590 296 l 417 296 l 417 228 q 363 95 417 143 q 219 47 308 47 q 50 68 129 47 l 50 138 q 207 115 129 115 q 344 228 344 115 l 344 335 q 320 418 344 389 q 222 449 296 447 l 138 449 l 138 517 l 222 517 q 320 547 296 518 q 344 631 344 576 l 344 724 q 207 838 344 838 q 64 811 138 838 l 64 883 q 219 904 129 904 q 363 857 308 904 q 417 725 417 810 l 417 631 q 342 483 417 510 q 415 360 410 456 l 590 360 z "},"ॽ":{"ha":596,"x_min":97,"x_max":522,"o":"m 97 583 l 97 710 q 147 854 97 799 q 310 910 197 910 q 472 854 422 910 q 522 710 522 799 l 522 471 q 322 271 522 276 l 322 0 l 251 0 l 251 339 l 310 339 q 421 376 393 339 q 449 472 449 413 l 449 710 q 383 831 449 807 q 310 842 354 842 q 197 805 225 842 q 169 710 169 768 l 169 583 l 97 583 z "},"​":{"ha":0,"x_min":0,"x_max":0,"o":""},"‌":{"ha":0,"x_min":-32,"x_max":33,"o":"m 33 -319 l -32 -319 l -32 1126 l 33 1126 l 33 -319 z "},"‍":{"ha":0,"x_min":-176,"x_max":179,"o":"m 33 -319 l -32 -319 l -32 882 l -128 781 l -174 826 l -44 956 l -176 1088 l -131 1133 l 1 1001 l 135 1133 l 179 1089 l 46 956 l 179 824 l 133 778 l 33 882 l 33 -319 z "},"–":{"ha":508,"x_min":56,"x_max":446,"o":"m 56 481 l 446 481 l 446 415 l 56 415 l 56 481 z "},"—":{"ha":828,"x_min":56,"x_max":754,"o":"m 56 482 l 754 482 l 754 417 l 56 417 l 56 482 z "},"‘":{"ha":210,"x_min":42,"x_max":169,"o":"m 82 718 q 42 760 42 718 q 121 986 42 818 l 169 986 l 114 718 l 82 718 z "},"’":{"ha":210,"x_min":42,"x_max":169,"o":"m 128 986 q 169 946 169 986 q 89 718 169 889 l 42 718 l 97 986 l 128 986 z "},"‚":{"ha":210,"x_min":42,"x_max":169,"o":"m 128 104 q 169 63 169 104 q 89 -164 169 7 l 42 -164 l 97 104 l 128 104 z "},"“":{"ha":353,"x_min":42,"x_max":313,"o":"m 82 718 q 42 760 42 718 q 121 986 42 818 l 165 986 l 110 718 l 82 718 m 229 718 q 188 760 188 718 q 268 986 188 815 l 313 986 l 257 718 l 229 718 z "},"”":{"ha":353,"x_min":42,"x_max":313,"o":"m 125 986 q 165 946 165 986 q 86 718 165 886 l 42 718 l 97 986 l 125 986 m 271 986 q 313 946 313 986 q 232 718 313 889 l 188 718 l 243 986 l 271 986 z "},"„":{"ha":353,"x_min":42,"x_max":313,"o":"m 125 104 q 165 63 165 104 q 86 -164 165 4 l 42 -164 l 97 104 l 125 104 m 271 104 q 313 63 313 104 q 232 -164 313 7 l 188 -164 l 243 104 l 271 104 z "},"†":{"ha":482,"x_min":74,"x_max":408,"o":"m 206 1068 l 276 1068 l 269 892 q 408 897 335 897 l 408 833 l 269 840 q 276 661 276 749 l 276 -40 l 206 -40 l 206 661 l 213 840 q 74 833 156 833 l 74 897 l 213 892 q 206 1068 206 985 z "},"‡":{"ha":482,"x_min":74,"x_max":408,"o":"m 206 1068 l 276 1068 l 269 892 q 408 897 326 897 l 408 833 l 269 840 q 269 189 274 514 q 408 194 326 194 l 408 131 l 269 138 q 276 -40 276 65 l 206 -40 l 213 138 q 74 131 156 131 l 74 194 l 213 189 q 213 840 208 514 q 74 833 156 833 l 74 897 l 213 892 q 206 1068 206 985 z "},"•":{"ha":378,"x_min":94,"x_max":283,"o":"m 283 449 q 283 402 283 449 q 189 356 283 356 q 94 449 94 356 q 189 543 94 543 q 283 449 283 543 z "},"…":{"ha":743,"x_min":88,"x_max":651,"o":"m 369 0 q 344 0 369 0 q 319 50 319 0 q 369 100 319 100 q 419 50 419 100 q 369 0 419 0 m 138 0 q 113 0 138 0 q 88 50 88 0 q 138 100 88 100 q 189 50 189 100 q 138 0 189 0 m 601 0 q 575 0 601 0 q 550 50 550 0 q 601 100 550 100 q 651 50 651 100 q 601 0 651 0 z "},"‰":{"ha":1099,"x_min":49,"x_max":1056,"o":"m 801 36 q 783 61 801 36 q 764 178 764 86 q 801 319 764 269 q 910 369 839 369 q 1018 319 981 369 q 1056 178 1056 269 q 1018 36 1056 86 q 910 -14 981 -14 q 801 36 839 -14 m 910 50 q 949 50 910 50 q 988 178 988 50 q 910 306 988 306 q 832 178 832 306 q 910 50 832 50 m 448 36 q 429 61 448 36 q 410 178 410 86 q 448 319 410 269 q 557 369 486 369 q 665 319 628 369 q 703 178 703 269 q 665 36 703 86 q 557 -14 628 -14 q 448 36 486 -14 m 556 50 q 595 50 556 50 q 633 178 633 50 q 556 306 633 306 q 479 178 479 306 q 556 50 479 50 m 86 608 q 67 633 86 608 q 49 750 49 658 q 86 892 49 842 q 194 942 124 942 q 303 892 265 942 q 340 750 340 842 q 303 608 340 658 q 194 558 265 558 q 86 608 124 558 m 194 622 q 233 622 194 622 q 272 750 272 622 q 194 878 272 878 q 117 750 117 878 q 194 622 117 622 m 525 928 l 589 928 l 228 0 l 164 0 l 525 928 z "},"‹":{"ha":463,"x_min":90,"x_max":342,"o":"m 258 701 l 342 701 l 172 447 l 342 193 l 258 193 l 90 447 l 258 701 z "},"›":{"ha":444,"x_min":90,"x_max":342,"o":"m 90 701 l 174 701 l 342 447 l 174 193 l 90 193 l 260 447 l 90 701 z "},"⁄":{"ha":315,"x_min":-99,"x_max":413,"o":"m 349 928 l 413 928 l -35 0 l -99 0 l 349 928 z "},"⁴":{"ha":419,"x_min":18,"x_max":408,"o":"m 279 599 l 279 982 l 78 599 l 279 599 m 339 1029 l 339 599 l 408 599 l 408 543 l 339 543 l 339 401 l 279 401 l 279 543 l 18 543 l 18 600 l 244 1029 l 339 1029 z "},"€":{"ha":549,"x_min":19,"x_max":493,"o":"m 171 349 l 171 186 q 207 97 171 126 q 328 67 243 67 q 493 90 414 67 l 493 15 q 332 -7 424 -7 q 92 185 92 -7 l 92 349 l 19 349 l 19 411 l 92 411 l 92 533 l 19 533 l 19 594 l 92 594 l 92 743 q 332 935 92 935 q 490 913 413 935 l 490 838 q 327 861 411 861 q 207 831 243 861 q 171 742 171 801 l 171 594 l 399 594 l 399 533 l 171 533 l 171 411 l 399 411 l 399 349 l 171 349 z "},"₹":{"ha":625,"x_min":69,"x_max":564,"o":"m 564 897 l 564 833 l 383 833 q 438 726 438 800 l 438 685 l 564 685 l 564 622 l 438 622 l 438 597 q 385 440 438 488 q 210 393 333 393 l 154 393 l 447 0 l 361 0 l 69 394 l 69 461 l 210 461 q 338 491 306 461 q 369 597 369 521 l 369 622 l 71 622 l 71 685 l 369 685 l 369 726 q 231 833 369 833 l 71 833 l 71 897 l 564 897 z "},"ℓ":{"ha":486,"x_min":21,"x_max":446,"o":"m 188 165 q 212 90 188 113 q 290 68 236 68 q 383 83 344 68 l 383 8 q 285 -4 346 -4 q 107 164 107 -4 l 107 201 q 21 132 61 163 l 21 233 q 107 307 60 264 l 107 807 q 152 951 107 903 q 278 1000 197 1000 q 402 945 358 1000 q 446 788 446 890 q 188 276 446 532 l 188 165 m 188 807 l 188 389 q 365 788 365 588 q 343 891 365 860 q 276 922 321 922 q 188 807 188 922 z "},"™":{"ha":746,"x_min":100,"x_max":639,"o":"m 639 967 l 639 651 l 589 651 l 589 806 l 601 938 l 519 651 l 479 651 l 397 936 l 411 806 l 411 651 l 360 651 l 360 967 l 432 967 l 486 782 l 500 718 l 513 782 l 567 967 l 639 967 m 100 921 l 100 967 l 329 967 l 329 921 l 240 921 l 240 651 l 189 651 l 189 921 l 100 921 z "},"Ω":{"ha":639,"x_min":49,"x_max":590,"o":"m 93 726 q 150 883 93 824 q 319 942 207 942 q 489 883 432 942 q 546 726 546 824 l 546 204 q 486 71 546 108 l 590 71 l 590 0 l 372 0 l 372 72 q 465 203 465 83 l 465 725 q 319 869 465 869 q 174 725 174 869 l 174 203 q 267 72 174 83 l 267 0 l 49 0 l 49 71 l 153 71 q 93 204 93 108 l 93 726 z "},"℮":{"ha":921,"x_min":79,"x_max":847,"o":"m 668 658 q 469 713 586 713 q 269 650 351 713 l 269 408 l 668 408 l 668 658 m 847 385 l 846 356 l 269 356 l 269 100 q 469 39 358 39 q 659 79 581 39 q 776 192 738 119 l 822 167 q 685 33 774 79 q 481 -14 596 -14 q 190 94 300 -14 q 79 374 79 201 q 189 656 79 547 q 475 765 299 765 q 749 661 651 765 q 847 385 847 557 z "},"∂":{"ha":629,"x_min":94,"x_max":532,"o":"m 313 542 q 174 399 174 542 l 174 201 q 313 58 174 58 q 453 201 453 58 l 453 489 q 313 542 403 542 m 532 425 l 532 200 q 478 44 532 103 q 313 -14 424 -14 q 149 45 203 -14 q 94 200 94 104 l 94 400 q 147 553 94 496 q 308 611 199 611 q 433 571 388 611 q 351 771 408 676 q 229 928 294 865 l 336 928 q 467 720 403 857 q 532 425 532 583 z "},"∆":{"ha":649,"x_min":93,"x_max":557,"o":"m 371 928 l 557 0 l 93 0 l 281 928 l 371 928 m 325 822 l 178 72 l 472 72 l 325 822 z "},"∏":{"ha":651,"x_min":101,"x_max":550,"o":"m 101 928 l 550 928 l 550 0 l 468 0 l 468 856 l 181 856 l 181 0 l 101 0 l 101 928 z "},"∑":{"ha":521,"x_min":42,"x_max":472,"o":"m 42 928 l 472 928 l 472 857 l 126 857 l 303 464 l 126 71 l 472 71 l 472 0 l 42 0 l 42 71 l 218 464 l 42 857 l 42 928 z "},"−":{"ha":593,"x_min":56,"x_max":538,"o":"m 56 482 l 538 482 l 538 417 l 56 417 l 56 482 z "},"∕":{"ha":315,"x_min":-56,"x_max":371,"o":"m 306 928 l 371 928 l 8 0 l -56 0 l 306 928 z "},"∙":{"ha":188,"x_min":43,"x_max":144,"o":"m 94 408 q 68 408 94 408 q 43 464 43 408 q 94 519 43 519 q 144 464 144 519 q 94 408 144 408 z "},"√":{"ha":567,"x_min":51,"x_max":535,"o":"m 51 361 l 51 435 l 182 435 l 283 83 l 453 928 l 535 928 l 340 0 l 226 0 l 124 361 l 51 361 z "},"∞":{"ha":843,"x_min":67,"x_max":776,"o":"m 606 663 q 739 610 701 663 q 776 465 776 558 q 739 319 776 372 q 604 267 701 267 q 421 403 507 267 q 336 305 379 340 q 236 269 293 269 q 103 321 140 269 q 67 465 67 372 q 103 610 67 558 q 236 663 140 663 q 335 626 293 663 q 421 526 378 590 q 506 626 463 590 q 606 663 549 663 m 153 377 q 158 367 153 377 q 183 349 163 357 q 240 340 203 340 q 310 372 278 340 q 382 465 342 403 q 338 528 354 507 q 294 569 321 550 q 235 589 267 589 q 182 581 203 589 q 153 551 161 572 q 140 476 140 519 q 142 415 140 432 q 153 377 144 397 m 461 465 q 532 372 500 404 q 617 340 564 340 q 687 370 669 340 q 704 448 704 400 q 702 514 704 496 q 692 551 700 532 q 606 589 674 589 q 532 558 564 589 q 461 465 500 526 z "},"∫":{"ha":374,"x_min":25,"x_max":317,"o":"m 131 928 q 178 1063 131 1015 q 317 1108 226 1110 l 317 1038 q 211 928 211 1038 l 211 0 q 163 -134 211 -87 q 25 -181 115 -181 l 25 -110 q 131 0 131 -110 l 131 928 z "},"≈":{"ha":607,"x_min":63,"x_max":546,"o":"m 546 596 q 484 491 546 518 q 354 499 422 464 l 244 550 q 155 564 192 579 q 128 490 118 549 l 67 490 q 63 524 63 506 q 124 627 63 600 q 254 619 186 654 l 364 568 q 456 555 421 539 q 481 629 490 571 l 542 629 q 546 596 546 613 m 546 404 q 484 300 546 326 q 354 308 422 274 l 244 360 q 155 372 192 388 q 128 299 118 357 l 67 299 q 63 332 63 315 q 124 436 63 408 q 254 429 186 464 l 364 378 q 456 363 421 347 q 481 438 490 379 l 542 438 q 546 404 546 422 z "},"≠":{"ha":617,"x_min":68,"x_max":549,"o":"m 549 538 l 383 538 l 306 360 l 549 360 l 549 294 l 278 294 l 219 161 l 156 161 l 214 294 l 68 294 l 68 360 l 242 360 l 319 538 l 68 538 l 68 601 l 347 601 l 408 740 l 471 740 l 411 601 l 549 601 l 549 538 z "},"≤":{"ha":629,"x_min":67,"x_max":549,"o":"m 549 696 l 549 624 l 125 458 l 549 293 l 549 221 l 67 411 l 67 504 l 549 696 m 67 125 l 67 190 l 549 190 l 549 125 l 67 125 z "},"≥":{"ha":629,"x_min":81,"x_max":561,"o":"m 81 696 l 561 504 l 561 411 l 81 221 l 81 293 l 503 458 l 81 624 l 81 696 m 81 125 l 81 190 l 561 190 l 561 125 l 81 125 z "},"◊":{"ha":575,"x_min":53,"x_max":524,"o":"m 442 392 l 289 746 l 136 392 l 289 38 l 442 392 m 228 785 l 349 785 l 524 392 l 349 0 l 228 0 l 53 392 l 228 785 z "},"◌":{"ha":917,"x_min":61,"x_max":856,"o":"m 374 733 q 366 742 374 733 q 357 778 357 750 q 374 822 357 806 q 418 839 392 839 q 462 822 444 839 q 479 778 479 806 q 462 733 479 750 q 418 717 444 717 q 374 733 392 717 m 594 696 q 581 696 594 696 q 550 714 568 696 q 532 758 532 732 q 549 801 532 783 q 594 819 567 819 q 638 802 621 819 q 654 758 654 785 q 637 714 654 732 q 594 696 619 696 m 681 619 q 673 627 681 619 q 664 663 664 636 q 681 707 664 689 q 725 725 699 725 q 769 708 751 725 q 786 663 786 690 q 769 619 786 636 q 725 601 751 601 q 681 619 699 601 m 750 455 q 742 464 750 455 q 733 499 733 472 q 750 542 733 525 q 794 560 767 560 q 838 542 821 560 q 856 499 856 525 q 838 455 856 472 q 794 438 821 438 q 750 455 767 438 m 738 269 q 728 277 738 269 q 719 313 719 286 q 738 357 719 339 q 781 375 756 375 q 824 357 807 375 q 842 313 842 339 q 824 269 842 286 q 781 251 807 251 q 738 269 756 251 m 635 133 q 627 141 635 133 q 618 176 618 150 q 635 220 618 203 q 679 238 653 238 q 724 220 706 238 q 742 176 742 203 q 724 133 742 150 q 679 115 706 115 q 635 133 653 115 m 467 58 q 458 67 467 58 q 450 103 450 75 q 467 147 450 131 q 511 164 483 164 q 556 147 539 164 q 574 103 574 129 q 556 59 574 76 q 511 42 539 42 q 467 58 483 42 m 336 61 q 323 61 336 61 q 292 79 310 61 q 274 124 274 97 q 292 168 274 150 q 336 186 310 186 q 380 168 363 186 q 397 124 397 150 q 380 79 397 97 q 336 61 363 61 m 150 185 q 142 194 150 185 q 133 229 133 203 q 151 273 133 256 q 194 290 168 290 q 238 273 221 290 q 256 229 256 256 q 238 185 256 203 q 194 168 221 168 q 150 185 167 168 m 78 347 q 70 356 78 347 q 61 390 61 364 q 78 435 61 417 q 122 453 96 453 q 166 435 149 453 q 183 391 183 418 q 166 347 183 364 q 122 331 149 331 q 78 347 96 331 m 97 522 q 88 530 97 522 q 79 565 79 539 q 97 609 79 592 q 142 626 115 626 q 186 609 168 626 q 204 565 204 592 q 186 522 204 539 q 142 504 168 504 q 97 522 115 504 m 254 656 q 241 656 254 656 q 210 673 228 656 q 193 717 193 690 q 210 762 193 744 q 254 779 228 779 q 298 762 281 779 q 315 717 315 744 q 298 673 315 690 q 254 656 281 656 z "},"":{"ha":486,"x_min":189,"x_max":296,"o":"m 260 -85 q 296 -121 296 -85 q 233 -246 296 -157 l 189 -246 l 226 -85 l 260 -85 z "},"ﬁ":{"ha":661,"x_min":51,"x_max":560,"o":"m 560 785 l 560 0 l 479 0 l 479 715 l 211 715 l 211 0 l 131 0 l 131 715 l 51 715 l 51 785 l 131 785 l 131 828 q 361 1014 131 1014 q 535 994 453 1014 l 535 922 q 370 943 460 943 q 246 916 281 943 q 211 828 211 889 l 211 785 l 560 785 z "},"ﬂ":{"ha":661,"x_min":51,"x_max":560,"o":"m 560 994 l 560 0 l 481 0 l 481 932 q 348 944 418 944 q 244 917 278 944 q 211 828 211 889 l 211 785 l 360 785 l 360 715 l 211 715 l 211 0 l 131 0 l 131 715 l 51 715 l 51 785 l 131 785 l 131 828 q 357 1014 131 1014 q 518 994 436 1014 l 560 994 z "}}}
